<?xml version="1.0" encoding="iso-8859-1"?>
<!-- Generator: Adobe Illustrator 22.0.1, SVG Export Plug-In . SVG Version: 6.00 Build 0)  -->
<svg version="1.1" id="Layer_7" xmlns="http://www.w3.org/2000/svg" xmlns:xlink="http://www.w3.org/1999/xlink" x="0px" y="0px"
	 viewBox="0 0 512 512" style="enable-background:new 0 0 512 512;" xml:space="preserve">
<g>
	<path style="fill:#A18FA1;" d="M0,255.998C0,114.607,114.613,0,256.002,0C397.386,0,512,114.607,512,255.998
		C512,397.388,397.386,512,256.002,512C114.613,512,0,397.388,0,255.998z"/>
	<g>
		<defs>
			<path id="SVGID_83_" d="M0,255.996C0,114.607,114.613,0,256.002,0C397.387,0,512,114.607,512,255.996
				C512,397.389,397.387,512,256.002,512C114.613,512,0,397.389,0,255.996z"/>
		</defs>
		<clipPath id="SVGID_2_">
			<use xlink:href="#SVGID_83_"  style="overflow:visible;"/>
		</clipPath>
		<g style="clip-path:url(#SVGID_2_);">
			<path style="fill:#E38A5B;" d="M185.786,259.97c7.233,17.13,3.295,33.778-8.796,37.187c-12.093,3.409-27.754-7.714-34.987-24.842
				c-7.233-17.13-3.295-33.779,8.796-37.188C162.89,231.719,178.555,242.843,185.786,259.97z"/>
			<path style="fill:#E38A5B;" d="M333.019,259.97c-7.233,17.13-3.292,33.778,8.798,37.187c12.091,3.409,27.754-7.714,34.985-24.842
				c7.235-17.13,3.297-33.779-8.796-37.188C355.918,231.719,340.252,242.843,333.019,259.97z"/>
		</g>
		<ellipse style="clip-path:url(#SVGID_2_);fill:#3D2A3D;" cx="259.404" cy="177.947" rx="126.788" ry="116.063"/>
		<path style="clip-path:url(#SVGID_2_);fill:#E38A5B;" d="M464.03,568.571l-0.058-0.928c0-56.454-21.133-111.15-46.936-121.566
			l-109.897-44.274c-25.805-10.407-68.065-10.448-93.876-0.124l-111.47,44.537c-25.826,10.339-46.958,64.973-46.958,121.427
			l-0.057,0.928H464.03z"/>
		<path style="clip-path:url(#SVGID_2_);fill:#E38A5B;" d="M305.942,404.519c0,24.234-19.645,43.879-43.878,43.879h-5.321
			c-24.233,0-43.878-19.645-43.878-43.879V291.497c0-24.233,19.645-43.879,43.878-43.879h5.321
			c24.233,0,43.878,19.646,43.878,43.879V404.519z"/>
		<g style="clip-path:url(#SVGID_2_);">
			<g>
				<path style="fill:#F5B68C;" d="M353.836,289.143c0,40.187-32.578,72.765-72.765,72.765h-43.336
					c-40.187,0-72.765-32.578-72.765-72.765V167.261c0-40.187,32.578-72.765,72.765-72.765h43.336
					c40.187,0,72.765,32.578,72.765,72.765V289.143z"/>
			</g>
		</g>
		<g style="clip-path:url(#SVGID_2_);">
			<circle style="fill:#572020;" cx="223.196" cy="253.489" r="10.919"/>
			<circle style="fill:#572020;" cx="295.611" cy="253.489" r="10.919"/>
		</g>
		<g style="clip-path:url(#SVGID_2_);">
			<path style="fill:#3D2A3D;" d="M259.404,79.272c-61.224,0-110.856,53.793-110.856,120.155c0,22.038,5.478,42.685,15.032,60.444
				l11.013-93.408l169.602-0.008l11.034,93.413c9.552-17.756,15.03-38.403,15.03-60.442
				C370.259,133.066,320.627,79.272,259.404,79.272z"/>
		</g>
		<path style="clip-path:url(#SVGID_2_);fill:#E38A5B;" d="M275.03,274.928c-0.495,8.704-7.769,15.608-16.76,15.608
			c-7.616,0-13.977-4.982-16.07-11.81c-0.468,1.601-0.807,3.267-0.807,5.012c0,9.953,8.078,18.029,18.014,18.029
			c9.961,0,18.009-8.075,18.009-18.029C277.415,280.513,276.513,277.545,275.03,274.928z"/>
		<path style="clip-path:url(#SVGID_2_);fill:#2961A5;" d="M463.971,567.643c0-56.454-21.133-111.15-46.936-121.566l-87.378-35.202
			c-12.148,26.681-39.025,45.241-70.254,45.241c-31.084,0-57.858-18.387-70.086-44.87l-87.525,34.97
			c-25.826,10.339-46.958,64.973-46.958,121.427l-0.057,0.928H464.03L463.971,567.643z"/>
		<g style="clip-path:url(#SVGID_2_);">
			<g>
				<path style="fill:#A91935;" d="M221.505,308.509c0,0.205-0.013,0.435-0.013,0.653c0,20.937,16.984,37.915,37.909,37.915
					c20.929,0,37.913-16.978,37.913-37.915c0-0.218-0.017-0.449-0.026-0.653H221.505z"/>
				<path style="fill:#FFFFFF;" d="M233.541,308.509v3.244c0,6.586,5.329,11.914,11.903,11.914h39.002
					c6.584,0,11.921-5.328,11.921-11.914v-3.244H233.541z"/>
			</g>
		</g>
		<ellipse style="clip-path:url(#SVGID_2_);fill:#3D2A3D;" cx="258.489" cy="175.356" rx="100" ry="50.718"/>
	</g>
</g>
</svg>
