<?xml version="1.0" encoding="iso-8859-1"?>
<!-- Generator: Adobe Illustrator 22.0.1, SVG Export Plug-In . SVG Version: 6.00 Build 0)  -->
<svg version="1.1" id="Layer_7" xmlns="http://www.w3.org/2000/svg" xmlns:xlink="http://www.w3.org/1999/xlink" x="0px" y="0px"
	 viewBox="0 0 512 512" style="enable-background:new 0 0 512 512;" xml:space="preserve">
<g>
	<path style="fill:#966796;" d="M0,255.998C0,114.608,114.613,0,256.002,0C397.387,0,512,114.608,512,255.998
		C512,397.389,397.387,512,256.002,512C114.613,512,0,397.389,0,255.998z"/>
	<g>
		<defs>
			<path id="SVGID_89_" d="M0,255.996C0,114.607,114.613,0,256.002,0C397.387,0,512,114.607,512,255.996
				C512,397.389,397.387,512,256.002,512C114.613,512,0,397.389,0,255.996z"/>
		</defs>
		<clipPath id="SVGID_2_">
			<use xlink:href="#SVGID_89_"  style="overflow:visible;"/>
		</clipPath>
		<g style="clip-path:url(#SVGID_2_);">
			<path style="fill:#E38A5B;" d="M185.786,259.97c7.233,17.13,3.295,33.778-8.796,37.187c-12.093,3.409-27.754-7.714-34.987-24.842
				c-7.233-17.13-3.295-33.779,8.796-37.188C162.89,231.719,178.555,242.843,185.786,259.97z"/>
			<path style="fill:#E38A5B;" d="M333.019,259.97c-7.233,17.13-3.292,33.778,8.798,37.187c12.091,3.409,27.754-7.714,34.985-24.842
				c7.235-17.13,3.297-33.779-8.796-37.188C355.918,231.719,340.252,242.843,333.019,259.97z"/>
		</g>
		<g style="clip-path:url(#SVGID_2_);">
			<path style="fill:#3D2A3D;" d="M421,188.995c0,9.113-10.808,17.05-12.542,25.704c-1.773,8.851,5.106,20.329,1.684,28.55
				c-3.443,8.272-16.466,11.507-21.409,18.985c-4.915,7.436-2.751,20.66-8.982,27.158c-6.15,6.414-19.474,4.846-26.744,10.198
				c-7.141,5.257-9.557,18.451-17.625,22.543c-7.893,4.003-19.974-1.808-28.61,0.948c-8.411,2.684-14.862,14.451-23.845,15.831
				c-8.702,1.336-18.4-7.911-27.516-7.911c-9.116,0-18.814,9.247-27.516,7.911c-8.983-1.379-15.434-13.146-23.845-15.831
				c-8.636-2.756-20.718,3.055-28.61-0.948c-8.068-4.092-10.485-17.287-17.626-22.543c-7.27-5.352-20.594-3.784-26.744-10.198
				c-6.231-6.498-4.066-19.722-8.982-27.158c-4.943-7.478-17.966-10.713-21.409-18.985c-3.422-8.221,3.458-19.698,1.684-28.549
				c-1.734-8.654-12.542-16.591-12.542-25.703c0-9.113,10.808-17.05,12.542-25.704c1.773-8.851-5.106-20.329-1.684-28.55
				c3.443-8.272,16.466-11.507,21.409-18.985c4.916-7.436,2.751-20.66,8.982-27.158c6.15-6.414,19.474-4.846,26.744-10.198
				c7.141-5.256,9.557-18.451,17.625-22.543c7.893-4.003,19.974,1.808,28.61-0.948c8.411-2.684,14.862-14.451,23.845-15.83
				c8.702-1.336,18.4,7.911,27.516,7.911c9.116,0,18.814-9.247,27.516-7.911c8.983,1.379,15.434,13.146,23.845,15.83
				c8.636,2.756,20.718-3.055,28.61,0.948c8.068,4.092,10.485,17.287,17.626,22.543c7.27,5.352,20.594,3.785,26.744,10.198
				c6.231,6.498,4.066,19.722,8.982,27.158c4.943,7.478,17.965,10.713,21.408,18.985c3.422,8.221-3.458,19.698-1.685,28.549
				C410.192,171.946,421,179.882,421,188.995z"/>
		</g>
		<path style="clip-path:url(#SVGID_2_);fill:#A34322;" d="M464.03,568.571l-0.058-0.928c0-56.454-21.133-111.15-46.936-121.566
			l-109.897-44.274c-25.805-10.407-68.065-10.448-93.876-0.124l-111.47,44.537c-25.826,10.339-46.958,64.973-46.958,121.427
			l-0.057,0.928H464.03z"/>
		<path style="clip-path:url(#SVGID_2_);fill:#A34322;" d="M305.942,404.519c0,24.234-19.645,43.879-43.878,43.879h-5.321
			c-24.233,0-43.878-19.645-43.878-43.879V291.497c0-24.233,19.645-43.879,43.878-43.879h5.321
			c24.233,0,43.878,19.646,43.878,43.879V404.519z"/>
		<g style="clip-path:url(#SVGID_2_);">
			<g>
				<path style="fill:#B87240;" d="M353.836,267.475c0,52.154-42.279,94.433-94.433,94.433h0c-52.154,0-94.433-42.279-94.433-94.433
					v-78.546c0-52.154,42.279-94.433,94.433-94.433h0c52.154,0,94.433,42.279,94.433,94.433V267.475z"/>
			</g>
		</g>
		<g style="clip-path:url(#SVGID_2_);">
			<circle style="fill:#3D2A3D;" cx="223.196" cy="256.919" r="10.919"/>
			<circle style="fill:#3D2A3D;" cx="295.611" cy="256.919" r="10.919"/>
		</g>
		<g style="clip-path:url(#SVGID_2_);">
			<path style="fill:#3D2A3D;" d="M259.404,79.272c-61.224,0-110.856,53.793-110.856,120.155c0,22.038,5.478,42.685,15.032,60.444
				l6.822-57.859c2.39-20.273,19.573-35.549,39.986-35.55l98.016-0.004c20.411-0.001,37.595,15.271,39.989,35.542l6.835,57.87
				c9.552-17.756,15.03-38.403,15.03-60.442C370.259,133.066,320.627,79.272,259.404,79.272z"/>
		</g>
		<path style="clip-path:url(#SVGID_2_);fill:#A34322;" d="M275.03,274.928c-0.495,8.704-7.769,15.608-16.76,15.608
			c-7.616,0-13.977-4.982-16.07-11.81c-0.468,1.601-0.807,3.267-0.807,5.012c0,9.953,8.078,18.029,18.014,18.029
			c9.961,0,18.009-8.075,18.009-18.029C277.415,280.513,276.513,277.545,275.03,274.928z"/>
		<path style="clip-path:url(#SVGID_2_);fill:#2961A5;" d="M463.971,567.643c0-56.454-21.133-111.15-46.936-121.566l-87.378-35.202
			c-12.148,26.681-39.025,45.241-70.254,45.241c-31.084,0-57.858-18.387-70.086-44.87l-87.525,34.97
			c-25.826,10.339-46.958,64.973-46.958,121.427l-0.057,0.928H464.03L463.971,567.643z"/>
		<g style="clip-path:url(#SVGID_2_);">
			<g>
				<path style="fill:#3D2A3D;" d="M221.505,307.432c0,0.205-0.013,0.435-0.013,0.653c0,20.937,16.984,37.915,37.909,37.915
					c20.929,0,37.913-16.978,37.913-37.915c0-0.218-0.017-0.449-0.026-0.653H221.505z"/>
				<path style="fill:#FFFFFF;" d="M233.541,307.432v3.244c0,6.586,5.329,11.914,11.903,11.914h39.002
					c6.584,0,11.921-5.328,11.921-11.914v-3.244H233.541z"/>
			</g>
		</g>
		<g style="clip-path:url(#SVGID_2_);">
			<path style="fill:#3D2A3D;" d="M171,240.5L171,240.5c-13.531,0-24.5-10.969-24.5-24.5v-56c0-13.531,10.969-24.5,24.5-24.5h0
				c13.531,0,24.5,10.969,24.5,24.5v56C195.5,229.531,184.531,240.5,171,240.5z"/>
			<path style="fill:#3D2A3D;" d="M216,204.5L216,204.5c-15.335,0-27.767-12.432-27.767-27.767v-63.467
				c0-15.335,12.432-27.767,27.767-27.767h0c15.335,0,27.767,12.432,27.767,27.767v63.467C243.767,192.068,231.335,204.5,216,204.5z
				"/>
			<path style="fill:#3D2A3D;" d="M261,195.5L261,195.5c-15.335,0-27.767-12.432-27.767-27.767v-63.467
				c0-15.335,12.432-27.767,27.767-27.767h0c15.335,0,27.767,12.432,27.767,27.767v63.467C288.767,183.068,276.335,195.5,261,195.5z
				"/>
			<path style="fill:#3D2A3D;" d="M306,205.5L306,205.5c-15.335,0-27.767-12.432-27.767-27.767v-63.467
				c0-15.335,12.432-27.767,27.767-27.767h0c15.335,0,27.767,12.432,27.767,27.767v63.467C333.767,193.068,321.335,205.5,306,205.5z
				"/>
			<path style="fill:#3D2A3D;" d="M351,235.5L351,235.5c-13.531,0-24.5-10.969-24.5-24.5v-56c0-13.531,10.969-24.5,24.5-24.5h0
				c13.531,0,24.5,10.969,24.5,24.5v56C375.5,224.531,364.531,235.5,351,235.5z"/>
			<ellipse style="fill:#3D2A3D;" cx="256.5" cy="130.5" rx="100" ry="40"/>
		</g>
		<g style="clip-path:url(#SVGID_2_);">
			<g>
				<path style="fill:#3D2A3D;" d="M212.352,240.82c6.666-3.328,14.08-4.521,21.48-4.354c6.743,0.152,6.728-10.298,0-10.45
					c-9.286-0.21-18.431,1.624-26.754,5.781C201.048,234.808,206.342,243.822,212.352,240.82L212.352,240.82z"/>
			</g>
			<g>
				<path style="fill:#3D2A3D;" d="M306.485,240.82c-6.665-3.328-14.079-4.521-21.48-4.354c-6.742,0.152-6.728-10.298,0-10.45
					c9.287-0.21,18.431,1.624,26.754,5.781C317.789,234.808,312.496,243.822,306.485,240.82L306.485,240.82z"/>
			</g>
		</g>
	</g>
</g>
</svg>
