<?xml version="1.0" encoding="iso-8859-1"?>
<!-- Generator: Adobe Illustrator 22.0.1, SVG Export Plug-In . SVG Version: 6.00 Build 0)  -->
<svg version="1.1" id="Layer_7" xmlns="http://www.w3.org/2000/svg" xmlns:xlink="http://www.w3.org/1999/xlink" x="0px" y="0px"
	 viewBox="0 0 512 512" style="enable-background:new 0 0 512 512;" xml:space="preserve">
<g>
	<path style="fill:#3D2A3D;" d="M512,256.002C512,397.392,397.387,512,255.998,512C114.614,512,0,397.392,0,256.002
		C0,114.612,114.614,0,255.998,0C397.387,0,512,114.612,512,256.002z"/>
	<g>
		<defs>
			<path id="SVGID_35_" d="M0,255.996C0,114.607,114.613,0,256.002,0C397.387,0,512,114.607,512,255.996
				C512,397.389,397.387,512,256.002,512C114.613,512,0,397.389,0,255.996z"/>
		</defs>
		<clipPath id="SVGID_2_">
			<use xlink:href="#SVGID_35_"  style="overflow:visible;"/>
		</clipPath>
		<g style="clip-path:url(#SVGID_2_);">
			<path style="fill:#CF6742;" d="M437.602,516l-0.053-0.842c0-51.205-19.168-100.816-42.572-110.264l-99.68-40.158
				c-23.406-9.439-61.737-9.477-85.148-0.112l-101.107,40.397c-23.425,9.378-42.593,58.933-42.593,110.138L66.398,516H437.602z"/>
			<path style="fill:#78BEDE;" d="M437.549,515.158c0-51.205-19.168-100.816-42.572-110.264l-79.255-31.93
				C304.704,397.166,280.326,414,252,414c-28.194,0-52.479-16.678-63.57-40.698l-79.387,31.719
				c-23.425,9.378-42.593,58.933-42.593,110.138L66.398,516h371.204L437.549,515.158z"/>
		</g>
		<g style="clip-path:url(#SVGID_2_);">
			<g>
				<path style="fill:#CF6742;" d="M173.627,244.923c7.297,16.227,3.362,32.027-8.777,35.285
					c-12.131,3.25-27.889-7.274-35.186-23.508c-7.289-16.232-3.365-32.019,8.78-35.282
					C150.58,218.167,166.333,228.691,173.627,244.923z"/>
				<path style="fill:#CF6742;" d="M321.522,244.659c-7.228,16.258-3.242,32.04,8.908,35.253c12.15,3.215,27.87-7.37,35.106-23.628
					c7.233-16.251,3.25-32.037-8.903-35.245C344.478,217.819,328.759,228.409,321.522,244.659z"/>
			</g>
			<path style="fill:#CF6742;" d="M293.698,369.61c0.034,20.478-16.528,37.106-37.006,37.144l-4.494,0.005
				c-20.478,0.038-37.106-16.53-37.144-37.008l-0.164-95.491c-0.033-20.473,16.523-37.106,37.008-37.139l4.492-0.012
				c20.473-0.038,37.101,16.53,37.139,37.009L293.698,369.61z"/>
			<g>
				<path style="fill:#EDA371;" d="M346.681,251.045c0.155,81.328-93.531,123.614-157.248,73.089
					c-76-60.264-56.107-233.979,57.884-234.182c54.743-0.099,99.17,45.651,99.269,102.114
					C346.585,192.066,346.681,251.032,346.681,251.045z"/>
			</g>
			<g>
				<defs>
					<path id="SVGID_37_" d="M346.681,251.045c0.155,81.328-93.531,123.614-157.248,73.089
						c-76-60.264-56.107-233.979,57.884-234.182c54.743-0.099,99.17,45.651,99.269,102.114
						C346.585,192.066,346.681,251.032,346.681,251.045z"/>
				</defs>
				<clipPath id="SVGID_4_">
					<use xlink:href="#SVGID_37_"  style="overflow:visible;"/>
				</clipPath>
				<circle style="clip-path:url(#SVGID_4_);fill:none;" cx="322.427" cy="298.05" r="28.061"/>
				<circle style="clip-path:url(#SVGID_4_);fill:none;" cx="167.704" cy="298.05" r="28.061"/>
			</g>
			<path style="fill:#CF6742;" d="M263.481,247.54c-0.504,8.861-7.91,15.891-17.063,15.891c-7.753,0-14.23-5.072-16.361-12.024
				c-0.476,1.63-0.822,3.326-0.822,5.102c0,10.133,8.225,18.355,18.339,18.355c10.141,0,18.335-8.221,18.335-18.355
				C265.909,253.226,264.99,250.204,263.481,247.54z"/>
			<g>
				<circle style="fill:#3D2A3D;" cx="210.71" cy="236.423" r="11.117"/>
				<circle style="fill:#3D2A3D;" cx="284.434" cy="236.423" r="11.117"/>
			</g>
			<g>
				<g>
					<path style="fill:#A91935;" d="M216.799,287.948c0,0.186-0.011,0.395-0.011,0.592c0,18.991,15.405,34.39,34.384,34.39
						c18.983,0,34.388-15.399,34.388-34.39c0-0.197-0.015-0.407-0.023-0.592H216.799z"/>
					<path style="fill:#FFFFFF;" d="M227.716,287.948v2.943c0,5.974,4.833,10.806,10.797,10.806h35.376
						c5.972,0,10.812-4.833,10.812-10.806v-2.943H227.716z"/>
				</g>
			</g>
			<path style="fill:#825982;" d="M361.882,149.084c-0.047-33.595-26.101-61.041-59.096-63.407v-0.25h-4.634H201.13h-4.626v0.25
				c-33.03,2.366-59.105,29.855-59.105,63.494l0.976,81.212l12.544-0.078l8.284-62.605h37.302h106.282h37.159l9.399,64.125
				l12.543-0.096v-82.56v-0.087H361.882z"/>
			<g>
				<path style="fill:#825982;" d="M347.482,154.311c-2.324,22.365-22.326,38.614-44.684,36.291l-73.432-7.619
					c-22.357-2.324-38.602-22.323-36.283-44.67l0,0c2.319-22.374,22.326-38.615,44.684-36.299l73.429,7.628
					C333.561,111.956,349.801,131.963,347.482,154.311L347.482,154.311z"/>
				<g>
					<path style="fill:#825982;" d="M249.338,105.045l13.286,74.103c-4.073,1.149-8.262,2.081-12.595,2.721
						c-49.906,7.438-96.813-22.521-104.774-66.915c-4.803-26.788,5.688-52.696,25.738-70.672
						C180.272,77.634,212.053,101.503,249.338,105.045z"/>
					<path style="fill:#825982;" d="M250.171,104.76c-20.516,2.159-35.648,20.759-33.803,41.552
						c1.844,20.792,19.977,35.876,40.494,33.708c20.503-2.177,35.648-20.776,33.794-41.543
						C288.808,117.683,270.689,102.592,250.171,104.76z"/>
				</g>
			</g>
			<g>
				<g>
					<path style="fill:#704D70;" d="M200.489,218.123c9.951-4.969,21.019-6.748,32.064-6.499c10.066,0.227,10.044-15.373,0-15.6
						c-13.862-0.313-27.514,2.425-39.938,8.629C183.615,209.149,191.518,222.604,200.489,218.123L200.489,218.123z"/>
				</g>
				<g>
					<path style="fill:#704D70;" d="M304.157,218.123c-9.949-4.969-21.018-6.748-32.065-6.499c-10.064,0.227-10.043-15.373,0-15.6
						c13.863-0.313,27.514,2.425,39.938,8.629C321.032,209.149,313.129,222.604,304.157,218.123L304.157,218.123z"/>
				</g>
			</g>
		</g>
	</g>
</g>
</svg>
