<?xml version="1.0" encoding="iso-8859-1"?>
<!-- Generator: Adobe Illustrator 19.0.0, SVG Export Plug-In . SVG Version: 6.00 Build 0)  -->
<svg version="1.1" id="Layer_1" xmlns="http://www.w3.org/2000/svg" xmlns:xlink="http://www.w3.org/1999/xlink" x="0px" y="0px"
	 viewBox="0 0 289.48 289.48" style="enable-background:new 0 0 289.48 289.48;" xml:space="preserve">
<g>
	<path style="fill:#E8F2FB;" d="M283.74,93.48v181c0,5.52-4.48,10-10,10h-258c-5.52,0-10-4.48-10-10v-181
		C5.74,93.48,283.74,93.48,283.74,93.48z"/>
	<path style="fill:#C7E9F4;" d="M283.74,36.48v57h-278v-57c0-5.52,4.48-10,10-10h37.52v21.48h42.96V26.48h97.04v21.48h42.96V26.48
		h37.52C279.26,26.48,283.74,30.96,283.74,36.48z"/>
	<rect x="53.26" y="5" style="fill:#FFEDBE;" width="42.96" height="42.96"/>
	<rect x="193.26" y="5" style="fill:#FFEDBE;" width="42.96" height="42.96"/>
	<g>
		<path style="fill:#80D0E1;" d="M273.74,21.48h-32.52V5c0-2.761-2.239-5-5-5h-42.96c-2.761,0-5,2.239-5,5v16.48h-87.04V5
			c0-2.761-2.239-5-5-5H53.26c-2.761,0-5,2.239-5,5v16.48H15.74c-8.271,0-15,6.729-15,15v57v181c0,8.271,6.729,15,15,15h258
			c8.271,0,15-6.729,15-15v-181v-57C288.74,28.209,282.011,21.48,273.74,21.48z M198.26,10h32.96v16.48v16.48h-32.96V26.48
			L198.26,10L198.26,10z M58.26,10h32.96v16.48v16.48H58.26V26.48V10z M10.74,36.48c0-2.757,2.243-5,5-5h32.52v16.48
			c0,2.761,2.239,5,5,5h42.96c2.761,0,5-2.239,5-5V31.48h87.04v16.48c0,2.761,2.239,5,5,5h42.96c2.761,0,5-2.239,5-5V31.48h32.52
			c2.757,0,5,2.243,5,5v52h-268C10.74,88.48,10.74,36.48,10.74,36.48z M278.74,274.48c0,2.757-2.243,5-5,5h-258
			c-2.757,0-5-2.243-5-5v-176h268V274.48z"/>
		<path style="fill:#80D0E1;" d="M39.031,174.689h28.418c2.761,0,5-2.239,5-5v-28.418c0-2.761-2.239-5-5-5H39.031
			c-2.761,0-5,2.239-5,5v28.418C34.031,172.45,36.27,174.689,39.031,174.689z"/>
		<path style="fill:#80D0E1;" d="M100.031,174.689h28.418c2.761,0,5-2.239,5-5v-28.418c0-2.761-2.239-5-5-5h-28.418
			c-2.761,0-5,2.239-5,5v28.418C95.031,172.45,97.27,174.689,100.031,174.689z"/>
		<path style="fill:#80D0E1;" d="M161.031,174.689h28.418c2.761,0,5-2.239,5-5v-28.418c0-2.761-2.239-5-5-5h-28.418
			c-2.761,0-5,2.239-5,5v28.418C156.031,172.45,158.27,174.689,161.031,174.689z"/>
		<path style="fill:#80D0E1;" d="M222.031,174.689h28.418c2.761,0,5-2.239,5-5v-28.418c0-2.761-2.239-5-5-5h-28.418
			c-2.761,0-5,2.239-5,5v28.418C217.031,172.45,219.27,174.689,222.031,174.689z"/>
		<path style="fill:#80D0E1;" d="M39.031,235.356h28.418c2.761,0,5-2.239,5-5v-28.418c0-2.761-2.239-5-5-5H39.031
			c-2.761,0-5,2.239-5,5v28.418C34.031,233.117,36.27,235.356,39.031,235.356z"/>
		<path style="fill:#80D0E1;" d="M100.031,235.356h28.418c2.761,0,5-2.239,5-5v-28.418c0-2.761-2.239-5-5-5h-28.418
			c-2.761,0-5,2.239-5,5v28.418C95.031,233.117,97.27,235.356,100.031,235.356z"/>
		<path style="fill:#80D0E1;" d="M161.031,235.356h28.418c2.761,0,5-2.239,5-5v-28.418c0-2.761-2.239-5-5-5h-28.418
			c-2.761,0-5,2.239-5,5v28.418C156.031,233.117,158.27,235.356,161.031,235.356z"/>
		<path style="fill:#80D0E1;" d="M222.031,235.356h28.418c2.761,0,5-2.239,5-5v-28.418c0-2.761-2.239-5-5-5h-28.418
			c-2.761,0-5,2.239-5,5v28.418C217.031,233.117,219.27,235.356,222.031,235.356z"/>
	</g>
</g>
<g>
</g>
<g>
</g>
<g>
</g>
<g>
</g>
<g>
</g>
<g>
</g>
<g>
</g>
<g>
</g>
<g>
</g>
<g>
</g>
<g>
</g>
<g>
</g>
<g>
</g>
<g>
</g>
<g>
</g>
</svg>
