<svg id="svg" version="1.1" xmlns="http://www.w3.org/2000/svg" xmlns:xlink="http://www.w3.org/1999/xlink" width="400" height="465.1162790697675" viewBox="0, 0, 400,465.1162790697675"><g id="svgg"><path id="path0" d="M167.000 55.596 C 152.259 55.806,151.261 55.867,148.875 56.701 C 147.486 57.186,145.186 57.702,143.763 57.848 C 141.581 58.071,140.949 58.322,139.711 59.456 C 138.904 60.195,138.115 60.800,137.958 60.800 C 137.800 60.800,136.761 61.520,135.648 62.400 C 134.534 63.280,133.470 64.000,133.281 64.000 C 132.721 64.000,131.367 65.706,130.812 67.109 C 130.528 67.830,130.092 68.550,129.844 68.709 C 129.595 68.869,129.034 69.691,128.596 70.537 C 128.158 71.382,127.409 72.468,126.932 72.950 C 126.265 73.623,125.960 74.661,125.618 77.414 C 125.373 79.386,125.012 81.990,124.816 83.200 C 124.332 86.176,124.337 116.541,124.820 118.800 C 125.033 119.790,125.373 122.196,125.576 124.146 C 125.832 126.597,126.173 127.955,126.680 128.546 C 127.907 129.973,129.200 131.943,129.200 132.384 C 129.200 132.613,129.376 132.800,129.591 132.800 C 129.806 132.800,130.493 133.835,131.116 135.099 C 131.813 136.512,132.549 137.455,133.025 137.545 C 133.451 137.626,134.561 138.391,135.491 139.246 C 136.421 140.101,137.439 140.800,137.753 140.800 C 138.067 140.800,139.046 141.403,139.927 142.139 C 141.202 143.204,142.009 143.529,143.865 143.723 C 145.149 143.857,147.640 144.448,149.400 145.035 L 152.600 146.103 171.000 146.249 C 196.107 146.448,193.687 145.534,193.621 154.794 C 193.545 165.379,197.586 164.347,156.071 164.392 C 128.522 164.421,122.205 164.530,119.641 165.016 C 117.934 165.340,115.233 165.768,113.638 165.969 C 112.015 166.173,110.531 166.584,110.269 166.903 C 110.011 167.217,108.903 167.984,107.806 168.608 C 106.709 169.233,105.461 170.071,105.031 170.472 C 104.601 170.872,104.098 171.200,103.912 171.200 C 103.454 171.200,99.600 175.207,99.600 175.684 C 99.600 175.894,98.973 176.830,98.208 177.765 C 97.387 178.766,96.383 180.765,95.762 182.632 C 95.182 184.374,94.483 186.070,94.208 186.400 C 93.932 186.730,93.602 187.940,93.474 189.089 C 92.991 193.409,90.272 194.189,86.889 190.978 C 86.290 190.409,84.900 189.482,83.800 188.916 C 82.700 188.350,81.582 187.577,81.316 187.198 C 81.049 186.820,80.094 186.411,79.192 186.290 C 78.176 186.153,76.879 185.545,75.782 184.691 C 74.319 183.550,73.547 183.264,71.326 183.036 C 69.583 182.858,67.860 182.359,66.420 181.616 C 62.278 179.480,46.746 179.516,44.390 181.668 C 43.697 182.301,42.561 183.058,41.865 183.351 C 41.169 183.644,39.818 184.540,38.862 185.342 C 37.906 186.144,36.990 186.800,36.826 186.800 C 36.662 186.800,36.311 187.278,36.045 187.862 C 35.779 188.445,34.963 189.840,34.231 190.962 C 33.146 192.625,32.854 193.540,32.644 195.938 C 32.503 197.554,32.210 199.207,31.994 199.612 C 31.435 200.657,31.506 202.076,32.200 203.738 C 32.530 204.528,32.800 206.285,32.800 207.642 C 32.800 211.032,36.338 216.542,39.704 218.393 C 40.311 218.727,41.507 219.506,42.361 220.124 C 43.502 220.951,44.534 221.301,46.257 221.447 C 48.795 221.662,53.850 223.034,54.201 223.602 C 54.321 223.796,55.269 224.065,56.309 224.201 C 59.425 224.609,63.615 227.349,64.256 229.400 C 64.394 229.840,65.037 230.873,65.684 231.696 C 66.696 232.982,66.909 233.695,67.196 236.758 C 67.380 238.718,67.714 240.666,67.939 241.086 C 68.767 242.633,69.649 247.541,70.015 252.641 C 70.234 255.689,70.658 258.519,71.027 259.403 C 71.982 261.689,72.768 266.328,73.177 272.088 C 73.378 274.926,73.712 277.463,73.918 277.724 C 74.502 278.465,75.904 283.195,76.152 285.264 C 76.274 286.289,76.830 287.798,77.387 288.618 C 77.943 289.439,78.594 290.850,78.832 291.755 C 79.070 292.660,79.700 293.812,80.232 294.316 C 80.765 294.820,81.200 295.376,81.200 295.553 C 81.200 295.729,81.935 296.666,82.834 297.636 C 83.733 298.606,84.689 299.670,84.959 300.000 C 88.186 303.951,89.414 305.164,92.072 307.026 C 93.778 308.222,95.436 309.200,95.756 309.200 C 96.077 309.200,96.878 309.654,97.537 310.208 C 98.195 310.762,99.551 311.577,100.550 312.019 C 101.548 312.461,102.637 313.094,102.970 313.427 C 103.571 314.028,107.228 314.819,113.400 315.685 C 115.468 315.976,129.676 316.217,153.557 316.367 L 190.514 316.600 191.357 317.730 C 192.566 319.352,191.915 332.223,190.197 340.640 C 189.879 342.202,189.432 346.792,189.204 350.840 C 188.370 365.660,188.486 365.402,182.400 366.022 C 180.310 366.234,177.790 366.664,176.800 366.976 C 174.128 367.819,173.161 367.969,166.554 368.573 C 162.002 368.989,160.108 369.333,158.862 369.968 C 157.952 370.432,155.541 371.188,153.504 371.648 C 151.467 372.108,149.409 372.731,148.930 373.032 C 148.452 373.333,146.562 373.960,144.730 374.426 C 142.899 374.892,140.770 375.688,140.000 376.195 C 139.230 376.702,137.901 377.360,137.046 377.658 C 136.191 377.956,135.111 378.602,134.646 379.093 C 134.181 379.584,133.566 379.989,133.280 379.993 C 132.994 379.997,132.112 380.630,131.319 381.400 C 130.526 382.170,129.727 382.800,129.544 382.800 C 129.361 382.800,128.724 383.565,128.128 384.500 C 127.533 385.435,126.646 386.650,126.158 387.200 C 123.454 390.247,123.789 400.552,126.706 404.039 C 129.657 407.567,131.879 409.682,133.747 410.739 C 134.876 411.379,136.143 412.284,136.562 412.751 C 136.981 413.218,137.684 413.600,138.124 413.600 C 138.563 413.600,140.020 414.210,141.362 414.957 C 142.703 415.703,144.880 416.532,146.200 416.800 C 147.520 417.068,148.780 417.423,149.000 417.590 C 149.965 418.322,154.440 419.517,157.086 419.750 C 158.673 419.889,161.193 420.474,162.686 421.051 C 164.559 421.774,167.011 422.270,170.600 422.652 C 199.701 425.751,200.178 425.769,214.400 424.263 C 219.570 423.716,226.320 423.059,229.400 422.804 C 232.480 422.549,235.360 422.111,235.800 421.832 C 237.234 420.920,240.527 420.068,244.200 419.660 C 246.180 419.440,248.664 418.889,249.719 418.436 C 250.775 417.983,252.755 417.327,254.119 416.979 C 255.484 416.631,257.251 415.922,258.046 415.403 C 258.842 414.884,260.282 414.251,261.246 413.995 C 262.211 413.740,263.450 413.120,264.000 412.618 C 264.550 412.117,265.810 411.236,266.800 410.661 C 270.536 408.493,275.065 403.105,275.406 400.423 C 275.534 399.420,275.825 397.865,276.053 396.966 C 276.540 395.044,275.537 389.104,274.451 387.480 C 274.093 386.945,273.303 385.763,272.695 384.854 C 272.087 383.944,271.448 383.200,271.276 383.200 C 271.103 383.200,270.226 382.525,269.328 381.700 C 266.211 378.836,258.488 374.761,254.767 374.018 C 253.539 373.772,251.918 373.241,251.165 372.837 C 250.412 372.434,248.987 371.975,247.998 371.818 C 245.655 371.446,243.040 370.669,240.800 369.679 C 239.592 369.145,237.303 368.736,233.840 368.437 C 231.002 368.191,226.862 367.620,224.640 367.167 C 222.418 366.714,219.162 366.179,217.404 365.978 C 211.804 365.339,211.716 365.122,210.847 349.800 C 210.598 345.400,210.139 340.810,209.829 339.600 C 209.170 337.038,208.000 325.429,208.000 321.463 C 208.000 318.986,208.106 318.632,209.167 317.572 L 210.333 316.405 244.467 316.543 C 284.607 316.704,293.513 316.188,297.542 313.465 C 298.344 312.923,299.450 312.348,300.000 312.187 C 300.550 312.025,301.630 311.405,302.400 310.809 C 303.170 310.213,304.360 309.535,305.043 309.303 C 305.727 309.071,307.124 308.242,308.148 307.460 C 309.171 306.679,310.532 305.731,311.170 305.354 C 311.809 304.977,312.505 304.287,312.717 303.822 C 313.078 303.031,314.392 301.463,317.500 298.119 C 318.215 297.350,318.800 296.575,318.800 296.398 C 318.800 296.221,319.431 295.320,320.203 294.397 C 320.974 293.473,321.722 292.241,321.864 291.659 C 322.007 291.077,322.626 289.700,323.240 288.600 C 323.864 287.484,324.545 285.418,324.783 283.924 C 325.016 282.453,325.572 280.399,326.017 279.361 C 326.553 278.109,327.081 275.173,327.585 270.637 C 328.006 266.852,328.719 262.646,329.183 261.214 C 329.646 259.787,330.195 256.557,330.407 254.014 C 330.891 248.215,331.369 245.326,332.156 243.443 C 332.496 242.630,332.961 240.128,333.189 237.882 C 333.501 234.818,333.806 233.551,334.413 232.800 C 334.858 232.250,335.478 231.242,335.792 230.559 C 336.614 228.768,340.301 225.652,342.194 225.149 C 343.077 224.914,345.240 224.293,347.000 223.770 C 348.760 223.247,351.460 222.696,353.000 222.547 C 355.025 222.350,356.233 221.988,357.365 221.238 C 358.225 220.667,359.485 219.864,360.165 219.453 C 361.962 218.366,365.599 214.728,365.604 214.013 C 365.606 213.676,366.202 212.652,366.929 211.739 C 369.679 208.280,369.856 194.502,367.190 191.439 C 366.597 190.758,365.799 189.570,365.418 188.800 C 364.535 187.017,361.185 183.940,358.600 182.538 C 357.500 181.941,356.420 181.216,356.200 180.926 C 354.877 179.180,337.112 179.278,333.200 181.053 C 331.990 181.601,329.767 182.310,328.259 182.628 C 326.752 182.946,325.094 183.540,324.575 183.949 C 324.055 184.357,322.499 185.108,321.115 185.617 C 319.732 186.126,318.142 186.915,317.581 187.371 C 317.021 187.827,315.896 188.556,315.081 188.991 C 314.267 189.426,313.600 189.918,313.600 190.084 C 313.600 190.465,309.818 192.400,309.075 192.400 C 308.037 192.400,307.173 190.906,306.772 188.417 C 306.551 187.048,306.121 185.539,305.817 185.064 C 305.512 184.589,304.972 183.186,304.616 181.947 C 304.261 180.707,303.381 178.907,302.660 177.947 C 301.939 176.986,300.592 175.168,299.666 173.906 C 298.740 172.644,297.402 171.313,296.691 170.948 C 295.981 170.582,294.774 169.770,294.009 169.142 C 293.244 168.514,292.403 168.000,292.140 168.000 C 291.877 168.000,291.118 167.543,290.454 166.984 C 287.370 164.389,280.930 163.984,243.093 164.007 C 207.625 164.028,208.685 164.086,207.228 162.039 C 206.018 160.339,205.968 149.022,207.164 147.544 L 207.929 146.600 228.264 146.400 C 248.142 146.204,248.649 146.180,250.778 145.309 C 251.976 144.818,254.406 144.206,256.178 143.947 C 258.736 143.574,259.647 143.251,260.600 142.383 C 261.260 141.782,262.340 141.018,263.001 140.686 C 263.661 140.354,264.558 139.689,264.993 139.208 C 265.428 138.727,266.342 138.101,267.025 137.815 C 267.863 137.465,268.537 136.721,269.099 135.526 C 269.557 134.552,270.230 133.507,270.595 133.204 C 270.960 132.901,271.626 131.921,272.074 131.027 C 272.523 130.132,273.250 129.008,273.689 128.528 C 274.275 127.887,274.587 126.721,274.866 124.128 C 275.075 122.188,275.506 119.464,275.823 118.075 C 276.533 114.968,276.661 87.157,275.977 84.692 C 275.746 83.863,275.318 81.123,275.025 78.605 C 274.570 74.688,274.341 73.846,273.446 72.782 C 272.871 72.098,272.400 71.346,272.400 71.111 C 272.400 70.875,271.797 69.944,271.059 69.041 C 270.322 68.139,269.416 66.814,269.048 66.098 C 268.679 65.382,267.705 64.371,266.883 63.852 C 266.061 63.333,265.133 62.601,264.821 62.225 C 264.509 61.849,263.583 61.200,262.765 60.782 C 261.946 60.364,260.944 59.608,260.538 59.101 C 259.955 58.373,259.127 58.082,256.594 57.718 C 254.831 57.465,252.009 56.795,250.324 56.229 L 247.259 55.200 214.929 55.287 C 197.148 55.334,175.580 55.474,167.000 55.596 M161.400 70.367 C 162.940 70.591,172.030 70.793,181.600 70.817 C 206.851 70.880,241.111 71.494,243.200 71.921 C 244.190 72.123,246.620 72.515,248.600 72.792 C 250.764 73.095,252.632 73.595,253.284 74.048 C 253.880 74.461,254.524 74.800,254.714 74.800 C 255.279 74.800,256.685 76.522,257.001 77.600 C 257.163 78.150,257.512 78.870,257.778 79.200 C 260.189 82.192,260.839 117.003,258.552 120.672 C 257.282 122.709,255.156 125.200,254.673 125.215 C 254.413 125.224,253.837 125.808,253.393 126.513 C 252.749 127.537,252.226 127.850,250.793 128.072 C 247.646 128.558,243.462 129.262,241.400 129.651 C 240.296 129.859,223.903 130.113,204.800 130.218 C 181.581 130.345,168.555 130.571,165.200 130.904 C 148.238 132.587,140.929 129.224,138.858 118.785 C 137.942 114.169,137.873 83.744,138.770 80.378 C 139.488 77.684,144.696 72.258,147.200 71.595 C 148.190 71.333,149.180 71.002,149.400 70.859 C 151.238 69.667,155.412 69.496,161.400 70.367 M255.800 179.190 C 282.678 179.536,283.484 179.600,285.556 181.555 C 286.165 182.130,287.233 183.108,287.927 183.729 C 288.622 184.351,289.941 186.395,290.858 188.272 L 292.526 191.686 292.262 201.343 C 292.003 210.792,291.532 214.435,290.392 215.810 C 290.134 216.120,289.593 217.775,289.189 219.487 C 288.784 221.199,287.996 223.860,287.437 225.400 C 286.814 227.116,286.417 229.066,286.410 230.435 C 286.404 231.770,285.907 234.266,285.176 236.635 C 284.286 239.519,283.813 242.181,283.440 246.400 C 283.157 249.590,282.550 253.640,282.090 255.400 C 281.630 257.160,281.047 260.130,280.794 262.000 C 280.028 267.673,279.935 268.024,279.041 268.610 C 278.177 269.176,128.728 270.121,122.317 269.600 C 119.413 269.364,119.548 269.625,118.596 262.447 C 118.263 259.943,117.734 256.973,117.420 255.847 C 117.105 254.721,116.483 250.826,116.038 247.190 C 115.592 243.555,114.941 239.775,114.589 238.790 C 114.238 237.806,113.695 234.962,113.382 232.471 C 112.805 227.874,111.946 224.299,111.203 223.403 C 110.978 223.132,110.606 221.900,110.378 220.665 C 110.150 219.431,109.441 217.154,108.802 215.606 L 107.641 212.790 107.386 201.295 C 107.137 190.110,107.153 189.762,107.967 188.400 C 108.427 187.630,109.184 186.264,109.650 185.365 C 110.229 184.247,111.178 183.322,112.648 182.442 C 113.832 181.734,114.800 180.992,114.800 180.792 C 114.800 180.204,116.464 179.457,118.400 179.175 C 120.999 178.796,226.046 178.808,255.800 179.190 M59.600 194.920 C 61.470 195.463,64.350 196.039,66.000 196.199 C 69.206 196.512,70.206 196.873,71.183 198.076 C 71.947 199.014,74.202 200.401,77.582 202.011 C 79.003 202.687,80.676 203.816,81.301 204.520 C 81.927 205.224,83.374 206.802,84.519 208.027 C 85.664 209.252,86.960 210.771,87.400 211.402 C 87.840 212.034,88.877 213.414,89.705 214.469 C 90.668 215.698,91.582 217.578,92.245 219.694 C 92.814 221.512,93.613 223.545,94.018 224.212 C 94.424 224.879,94.953 226.656,95.194 228.163 C 95.435 229.669,95.890 231.520,96.207 232.277 C 96.523 233.034,97.060 236.477,97.401 239.927 C 97.742 243.377,98.279 247.100,98.594 248.200 C 99.548 251.525,100.319 255.949,100.792 260.800 C 101.038 263.330,101.665 267.110,102.186 269.200 C 102.706 271.290,103.347 274.069,103.610 275.375 C 103.933 276.978,104.433 278.095,105.152 278.813 C 105.737 279.398,106.430 280.348,106.692 280.923 C 107.716 283.170,113.086 286.271,116.906 286.823 C 118.318 287.026,155.481 287.188,202.559 287.195 L 285.718 287.207 288.877 285.355 C 290.614 284.336,292.343 283.065,292.718 282.530 C 293.093 281.995,294.075 280.802,294.900 279.879 C 295.725 278.955,296.508 277.750,296.639 277.200 C 297.164 275.010,298.515 270.559,298.860 269.885 C 299.378 268.873,299.973 263.922,299.988 260.508 C 299.994 258.918,300.247 256.938,300.548 256.108 C 301.929 252.306,302.428 249.731,302.786 244.563 C 302.997 241.503,303.539 237.380,303.989 235.400 C 304.440 233.420,305.081 230.555,305.413 229.033 C 305.745 227.512,306.375 225.687,306.813 224.978 C 307.251 224.270,307.969 222.284,308.409 220.566 C 308.848 218.848,309.353 217.343,309.530 217.221 C 309.708 217.100,310.540 215.955,311.380 214.678 C 313.819 210.969,319.412 204.939,321.505 203.763 C 322.547 203.176,324.313 202.090,325.429 201.348 C 326.545 200.607,327.598 200.000,327.769 200.000 C 327.940 200.000,329.097 199.388,330.340 198.641 C 331.945 197.675,333.295 197.207,335.000 197.026 C 336.320 196.886,339.290 196.313,341.600 195.753 C 346.613 194.538,348.146 194.656,350.807 196.465 C 356.774 200.520,353.631 206.187,344.693 207.487 C 340.365 208.117,334.427 210.155,332.236 211.764 C 331.556 212.264,330.428 212.898,329.728 213.173 C 328.668 213.590,325.693 216.469,322.950 219.733 C 322.187 220.640,320.400 224.159,320.400 224.754 C 320.400 224.994,320.103 225.538,319.740 225.962 C 318.943 226.893,318.174 229.038,317.576 232.000 C 317.332 233.210,316.889 234.937,316.592 235.838 C 316.295 236.738,315.761 240.248,315.405 243.638 C 314.993 247.558,314.409 250.833,313.801 252.639 C 313.131 254.628,312.718 257.145,312.422 261.039 C 311.998 266.615,311.566 268.917,310.586 270.823 C 310.296 271.385,309.853 273.352,309.601 275.193 C 309.322 277.232,308.739 279.333,308.109 280.570 C 307.540 281.686,306.878 283.345,306.637 284.255 C 306.172 286.017,304.470 288.343,301.700 291.001 C 300.765 291.898,300.000 292.820,300.000 293.049 C 300.000 293.278,299.505 293.717,298.900 294.025 C 298.295 294.333,297.009 295.174,296.042 295.893 C 295.076 296.612,294.023 297.200,293.703 297.200 C 293.382 297.200,291.659 297.833,289.872 298.608 L 286.624 300.015 278.212 300.205 C 260.955 300.594,118.930 300.763,114.874 300.399 C 111.471 300.094,110.385 299.824,108.674 298.859 C 107.533 298.216,106.150 297.558,105.600 297.397 C 101.241 296.122,94.858 289.735,92.811 284.600 C 92.284 283.280,91.622 281.836,91.340 281.390 C 90.836 280.596,89.478 276.169,88.268 271.376 C 87.931 270.043,87.452 266.713,87.202 263.976 C 86.953 261.239,86.231 257.020,85.599 254.600 C 84.967 252.180,84.338 248.580,84.202 246.600 C 83.942 242.835,83.202 238.819,81.945 234.357 C 81.535 232.903,81.200 231.397,81.200 231.010 C 81.200 229.683,77.930 223.001,76.365 221.128 C 75.504 220.099,74.800 219.096,74.800 218.899 C 74.800 218.344,69.898 214.148,68.867 213.821 C 68.361 213.661,67.308 212.968,66.526 212.281 C 65.461 211.347,64.439 210.916,62.452 210.564 C 60.994 210.306,58.205 209.623,56.255 209.047 C 54.306 208.471,52.334 208.000,51.875 208.000 C 50.743 208.000,47.188 205.787,46.200 204.468 C 44.327 201.967,45.688 196.575,48.553 195.145 C 52.199 193.325,53.982 193.289,59.600 194.920 M184.711 380.223 C 185.508 380.781,185.600 381.188,185.600 384.159 C 185.600 392.934,187.100 393.976,199.910 394.110 C 212.566 394.241,213.845 393.492,214.363 385.641 C 214.799 379.035,214.739 379.064,224.015 381.149 C 226.114 381.621,229.984 382.172,232.615 382.374 C 236.321 382.659,237.896 382.968,239.600 383.744 C 240.810 384.295,242.957 384.952,244.372 385.204 C 245.787 385.455,247.947 386.165,249.172 386.781 C 250.397 387.397,251.963 388.022,252.651 388.171 C 253.339 388.320,254.509 388.892,255.251 389.443 C 255.993 389.993,257.350 390.777,258.266 391.184 C 262.940 393.263,261.702 398.830,256.231 400.340 C 255.456 400.554,254.284 401.113,253.625 401.582 C 252.966 402.051,251.476 402.717,250.314 403.062 C 249.151 403.407,247.390 404.095,246.400 404.591 C 245.410 405.088,243.104 405.709,241.276 405.972 C 239.448 406.235,236.373 406.971,234.443 407.607 C 231.472 408.586,229.835 408.832,223.767 409.208 C 219.825 409.453,213.730 410.001,210.223 410.426 C 201.010 411.544,197.232 411.480,185.000 409.996 C 183.240 409.783,178.813 409.426,175.161 409.203 C 168.937 408.824,167.417 408.548,163.400 407.069 C 162.520 406.745,160.223 406.288,158.295 406.054 C 155.939 405.767,154.234 405.312,153.095 404.664 C 152.163 404.133,150.532 403.491,149.472 403.237 C 148.412 402.983,146.882 402.336,146.072 401.801 C 145.262 401.265,143.970 400.618,143.200 400.362 C 141.441 399.777,138.000 396.502,138.001 395.415 C 138.006 393.210,142.738 389.403,147.476 387.795 C 148.446 387.466,149.978 386.819,150.880 386.359 C 151.782 385.899,153.549 385.377,154.805 385.199 C 156.062 385.022,158.240 384.400,159.645 383.818 C 161.582 383.016,163.553 382.628,167.800 382.213 C 170.880 381.912,174.750 381.359,176.400 380.985 C 183.474 379.381,183.505 379.378,184.711 380.223 " stroke="none" fill="#575553" fill-rule="evenodd"></path><path id="path1" d="M0.000 232.400 L 0.000 464.800 200.000 464.800 L 400.000 464.800 400.000 232.400 L 400.000 0.000 200.000 0.000 L 0.000 0.000 0.000 232.400 M254.000 54.973 C 258.721 56.268,260.742 57.080,262.116 58.236 C 262.765 58.782,263.859 59.520,264.548 59.876 C 266.335 60.799,269.449 63.502,270.403 64.958 C 270.851 65.641,271.888 67.203,272.708 68.428 C 273.529 69.653,274.581 71.237,275.047 71.947 C 275.513 72.657,276.014 74.264,276.160 75.519 C 276.306 76.774,276.874 79.103,277.422 80.695 L 278.419 83.590 278.475 100.695 L 278.532 117.800 277.503 120.600 C 276.937 122.140,276.347 124.480,276.191 125.800 C 275.927 128.034,274.731 130.800,274.028 130.800 C 273.859 130.800,273.429 131.475,273.072 132.300 C 271.115 136.824,265.914 141.622,259.800 144.545 C 253.765 147.430,252.142 147.593,229.529 147.597 C 212.363 147.600,209.983 147.674,209.429 148.229 C 208.473 149.184,208.503 160.456,209.462 161.251 C 210.012 161.707,215.992 161.800,244.762 161.800 L 279.400 161.800 282.400 162.852 C 284.050 163.430,286.426 164.027,287.680 164.178 C 289.105 164.350,290.455 164.811,291.280 165.409 C 292.006 165.935,293.140 166.667,293.800 167.036 C 297.161 168.912,302.400 173.656,302.400 174.824 C 302.400 175.015,302.914 175.763,303.542 176.486 C 305.470 178.705,307.436 183.134,307.908 186.324 C 308.590 190.922,309.558 191.433,312.600 188.800 C 313.617 187.920,314.676 187.200,314.955 187.200 C 315.233 187.200,315.878 186.756,316.387 186.214 C 316.897 185.671,318.458 184.847,319.857 184.381 C 321.256 183.916,322.400 183.398,322.400 183.232 C 322.400 182.820,324.114 182.056,327.000 181.182 C 328.320 180.782,330.390 180.103,331.600 179.673 C 337.648 177.524,352.200 177.394,356.600 179.451 C 360.509 181.278,365.034 184.937,366.201 187.215 C 366.592 187.977,367.414 189.177,368.028 189.883 C 368.760 190.723,369.238 191.828,369.412 193.083 C 369.558 194.137,370.032 195.757,370.466 196.682 C 371.768 199.461,371.838 202.148,370.700 205.600 C 370.155 207.250,369.493 209.500,369.228 210.600 C 368.955 211.737,368.260 213.118,367.620 213.800 C 367.000 214.460,366.247 215.471,365.947 216.047 C 365.403 217.087,361.828 220.400,361.248 220.400 C 361.082 220.400,360.256 221.014,359.413 221.764 C 358.354 222.706,357.314 223.212,356.049 223.402 C 355.042 223.553,352.657 224.199,350.750 224.838 C 348.842 225.477,346.679 226.004,345.941 226.010 C 339.445 226.056,335.243 231.518,334.195 241.275 C 333.881 244.204,333.256 247.860,332.807 249.400 C 332.358 250.940,331.723 254.726,331.396 257.813 C 331.070 260.901,330.369 265.131,329.840 267.213 C 329.310 269.296,328.671 273.070,328.420 275.600 C 328.134 278.474,327.676 280.800,327.197 281.800 C 326.775 282.680,326.141 284.660,325.787 286.200 C 325.434 287.740,324.636 289.810,324.015 290.800 C 323.394 291.790,322.753 293.050,322.591 293.600 C 322.428 294.150,321.644 295.359,320.848 296.286 C 320.052 297.214,318.860 298.637,318.200 299.448 C 317.540 300.260,316.351 301.661,315.557 302.562 C 314.763 303.463,313.910 304.590,313.661 305.066 C 313.194 305.959,308.599 309.361,306.810 310.138 C 306.254 310.379,304.925 311.167,303.855 311.888 C 302.785 312.610,301.724 313.200,301.497 313.200 C 301.269 313.200,300.164 313.808,299.041 314.551 C 297.666 315.462,296.282 315.998,294.800 316.194 C 293.590 316.354,291.790 316.819,290.800 317.228 C 287.509 318.587,280.889 318.813,244.898 318.793 C 207.720 318.773,209.170 318.701,209.209 320.576 C 209.227 321.472,210.366 329.149,210.935 332.213 C 211.263 333.980,211.740 339.020,211.995 343.413 C 212.250 347.806,212.739 353.290,213.083 355.600 C 213.426 357.910,213.792 360.573,213.895 361.518 C 214.170 364.026,214.867 364.321,222.085 364.983 C 225.496 365.296,229.528 365.826,231.044 366.160 C 232.560 366.494,235.655 367.029,237.923 367.348 C 240.596 367.724,242.776 368.290,244.123 368.958 C 245.265 369.524,247.460 370.177,249.000 370.409 C 250.540 370.642,252.880 371.340,254.200 371.962 C 255.520 372.584,257.270 373.194,258.089 373.319 C 258.908 373.444,260.365 374.088,261.327 374.750 C 262.290 375.412,263.600 376.081,264.239 376.235 C 264.877 376.390,266.155 377.166,267.078 377.959 C 268.000 378.751,269.750 380.210,270.967 381.200 C 272.183 382.190,273.183 383.129,273.189 383.286 C 273.195 383.443,273.778 384.230,274.483 385.034 C 277.401 388.356,279.063 395.051,277.802 398.400 C 277.429 399.390,276.840 401.010,276.493 402.000 C 275.387 405.157,270.673 410.406,267.164 412.388 C 266.569 412.725,265.388 413.465,264.541 414.033 C 263.693 414.601,262.382 415.279,261.626 415.538 C 260.870 415.798,259.970 416.254,259.626 416.553 C 259.282 416.852,257.740 417.504,256.200 418.003 C 254.660 418.501,252.893 419.165,252.274 419.478 C 251.655 419.791,249.495 420.297,247.474 420.602 C 245.453 420.907,242.445 421.613,240.790 422.171 C 239.134 422.729,236.434 423.347,234.790 423.544 C 233.145 423.741,230.450 424.264,228.800 424.707 C 219.917 427.091,178.592 426.902,170.094 424.438 C 168.612 424.009,166.283 423.546,164.917 423.411 C 163.552 423.275,161.131 422.721,159.538 422.179 C 157.944 421.637,154.879 420.930,152.727 420.608 C 150.574 420.286,148.135 419.678,147.307 419.256 C 146.478 418.834,144.900 418.214,143.800 417.879 C 141.664 417.229,134.812 413.855,134.430 413.265 C 134.303 413.071,133.570 412.598,132.800 412.215 C 129.585 410.616,124.231 404.550,123.804 402.022 C 123.653 401.132,123.378 400.310,123.191 400.195 C 122.517 399.778,121.569 395.575,121.813 394.085 C 122.895 387.484,130.437 377.934,135.893 376.256 C 136.722 376.001,138.126 375.301,139.014 374.700 C 139.901 374.100,141.471 373.451,142.501 373.258 C 143.532 373.065,144.786 372.643,145.288 372.320 C 146.606 371.471,148.589 370.849,151.421 370.397 C 152.786 370.179,154.870 369.558,156.052 369.017 C 157.233 368.476,160.000 367.754,162.200 367.412 C 164.400 367.070,168.090 366.435,170.400 366.000 C 172.710 365.564,176.670 365.050,179.200 364.856 C 186.149 364.324,185.733 364.695,186.732 358.131 C 187.195 355.089,187.775 349.000,188.021 344.600 C 188.266 340.200,188.891 334.080,189.409 331.000 C 190.574 324.077,190.948 319.964,190.476 319.271 C 190.182 318.838,183.741 318.748,155.202 318.778 C 118.945 318.815,113.021 318.609,109.574 317.192 C 108.569 316.779,106.632 316.262,105.269 316.042 C 103.624 315.777,102.220 315.239,101.095 314.442 C 100.163 313.782,98.920 313.127,98.333 312.986 C 97.746 312.845,96.678 312.205,95.961 311.565 C 95.243 310.924,94.443 310.400,94.183 310.400 C 93.558 310.400,87.490 306.415,87.082 305.737 C 86.908 305.446,86.098 304.408,85.282 303.431 C 84.467 302.454,82.990 300.651,82.000 299.425 C 81.010 298.198,79.626 296.553,78.925 295.768 C 78.224 294.984,77.526 293.770,77.374 293.071 C 77.221 292.372,76.670 291.291,76.148 290.669 C 75.627 290.047,75.111 289.147,75.003 288.669 C 74.895 288.191,74.620 286.930,74.394 285.866 C 74.167 284.802,73.607 283.197,73.149 282.300 C 72.559 281.143,72.154 279.088,71.759 275.234 C 71.452 272.245,70.941 268.988,70.623 267.995 C 69.629 264.888,69.221 262.600,68.798 257.772 C 68.572 255.201,67.932 251.297,67.374 249.099 C 66.817 246.900,66.178 243.009,65.954 240.451 C 65.610 236.526,65.376 235.519,64.458 234.000 C 63.859 233.010,63.135 231.628,62.848 230.929 C 62.562 230.230,61.623 229.192,60.763 228.623 C 59.904 228.054,59.200 227.423,59.200 227.221 C 59.200 226.735,58.479 226.530,54.200 225.796 C 52.220 225.457,49.520 224.830,48.200 224.402 C 46.880 223.975,44.913 223.432,43.829 223.195 C 42.553 222.916,41.319 222.278,40.328 221.382 C 39.486 220.622,38.571 220.000,38.293 220.000 C 37.720 220.000,34.000 216.235,34.000 215.655 C 34.000 215.446,33.386 214.541,32.636 213.643 C 31.801 212.644,31.161 211.355,30.987 210.322 C 30.830 209.394,30.274 207.497,29.751 206.108 C 28.521 202.841,28.518 199.970,29.740 196.709 C 30.258 195.329,30.810 193.480,30.968 192.600 C 31.126 191.720,31.755 190.370,32.366 189.600 C 32.977 188.830,33.759 187.660,34.104 187.000 C 35.953 183.462,42.528 179.627,48.600 178.544 L 53.400 177.688 60.200 178.454 C 64.934 178.988,67.790 179.518,69.600 180.199 C 71.030 180.738,73.010 181.378,74.000 181.623 C 74.990 181.867,76.610 182.572,77.600 183.188 C 78.590 183.804,80.063 184.519,80.873 184.776 C 81.683 185.034,83.012 185.774,83.828 186.422 C 84.643 187.070,85.448 187.600,85.617 187.600 C 85.786 187.600,86.678 188.230,87.600 189.000 C 90.536 191.453,91.772 190.866,92.232 186.800 C 92.987 180.128,99.643 170.806,106.200 167.238 C 107.080 166.760,108.394 165.937,109.120 165.410 C 109.941 164.815,111.303 164.346,112.720 164.172 C 113.974 164.018,116.311 163.466,117.912 162.946 L 120.825 162.000 154.912 161.994 C 181.545 161.989,189.219 161.878,190.000 161.484 C 191.216 160.870,191.912 150.890,190.892 148.700 L 190.379 147.600 171.090 147.588 C 147.253 147.572,142.845 146.990,138.000 143.220 C 137.230 142.620,136.154 141.892,135.608 141.602 C 133.764 140.620,130.603 137.920,130.052 136.857 C 129.751 136.276,129.096 135.350,128.596 134.800 C 128.097 134.250,127.301 133.080,126.828 132.200 C 126.355 131.320,125.525 129.988,124.984 129.241 C 124.299 128.294,124.000 127.355,124.000 126.147 C 124.000 125.193,123.451 122.760,122.780 120.741 L 121.561 117.070 121.681 100.035 C 121.798 83.506,121.828 82.935,122.690 80.800 C 123.179 79.590,123.766 77.274,123.994 75.653 C 124.454 72.394,124.569 72.112,125.850 71.095 C 126.339 70.707,126.860 69.838,127.008 69.164 C 127.156 68.489,127.785 67.485,128.405 66.932 C 129.025 66.380,129.743 65.421,129.999 64.803 C 130.420 63.785,134.763 60.000,135.509 60.000 C 135.679 60.000,136.476 59.458,137.279 58.795 C 138.083 58.132,140.051 57.057,141.652 56.405 C 144.191 55.372,145.376 55.043,149.400 54.250 C 149.840 54.164,172.790 54.081,200.400 54.067 L 250.600 54.041 254.000 54.973 M174.800 383.644 C 169.981 383.899,167.982 384.303,165.123 385.600 C 164.015 386.103,162.510 386.386,160.906 386.391 C 158.943 386.398,157.880 386.662,155.906 387.631 C 154.528 388.308,152.363 389.014,151.095 389.201 C 149.492 389.437,148.333 389.903,147.289 390.730 C 146.463 391.384,145.059 392.115,144.168 392.355 C 142.578 392.783,141.084 394.014,140.715 395.200 C 140.474 395.975,144.397 398.255,146.600 398.620 C 147.480 398.765,148.762 399.226,149.448 399.643 C 150.149 400.069,151.816 400.501,153.248 400.627 C 156.549 400.920,159.463 401.540,161.122 402.304 C 162.194 402.797,162.616 402.819,163.357 402.423 C 164.034 402.061,164.676 402.043,165.835 402.353 C 168.482 403.060,192.221 402.963,197.317 402.223 C 199.692 401.878,202.932 401.631,204.517 401.673 C 206.465 401.724,207.789 401.548,208.600 401.130 C 209.260 400.790,211.240 400.402,213.000 400.268 C 214.760 400.134,217.190 399.733,218.400 399.377 C 219.610 399.021,221.320 398.633,222.200 398.514 C 223.080 398.395,224.225 397.965,224.744 397.557 C 225.486 396.974,226.269 396.836,228.415 396.908 C 230.893 396.992,231.245 396.902,232.271 395.923 C 232.914 395.309,234.234 394.660,235.339 394.412 C 237.707 393.883,241.970 391.372,243.415 389.656 L 244.478 388.392 243.539 387.599 C 242.418 386.653,241.855 386.511,238.200 386.252 C 236.597 386.139,234.571 385.685,233.460 385.191 C 231.287 384.224,224.980 383.487,220.531 383.681 L 217.800 383.800 217.731 385.941 C 217.677 387.584,217.474 388.213,216.854 388.647 C 216.345 389.004,215.946 389.885,215.774 391.034 C 215.385 393.631,214.027 395.089,211.683 395.429 C 210.647 395.580,209.480 396.037,209.089 396.446 C 207.528 398.080,192.831 398.123,191.105 396.500 C 190.579 396.005,189.748 395.600,189.258 395.600 C 186.586 395.600,184.665 393.720,184.222 390.671 C 184.068 389.610,183.595 388.395,183.171 387.971 C 182.644 387.444,182.400 386.645,182.400 385.442 C 182.400 383.322,182.121 383.256,174.800 383.644 " stroke="none" fill="#fbfbfb" fill-rule="evenodd"></path><path id="path2" d="M153.982 70.372 C 150.651 70.614,149.936 70.803,148.382 71.851 C 147.402 72.512,145.759 73.365,144.731 73.747 C 142.686 74.508,141.079 76.274,140.680 78.200 C 140.544 78.860,139.993 81.316,139.456 83.657 L 138.479 87.914 138.804 104.457 C 139.169 123.050,139.029 122.229,142.395 125.595 C 147.222 130.422,153.739 132.370,161.146 131.202 C 164.931 130.605,172.365 130.453,209.800 130.207 C 226.080 130.101,240.300 129.847,241.400 129.643 C 243.530 129.249,247.840 128.528,250.793 128.072 C 252.226 127.850,252.749 127.537,253.393 126.513 C 253.837 125.808,254.413 125.224,254.673 125.215 C 255.156 125.200,257.282 122.709,258.552 120.672 C 260.839 117.003,260.189 82.192,257.778 79.200 C 257.512 78.870,257.163 78.150,257.001 77.600 C 256.685 76.522,255.279 74.800,254.714 74.800 C 254.524 74.800,253.880 74.464,253.284 74.053 C 252.658 73.621,250.764 73.101,248.800 72.821 C 246.930 72.555,244.410 72.158,243.200 71.938 C 240.453 71.439,231.211 71.234,191.600 70.792 C 174.330 70.600,159.660 70.364,159.000 70.268 C 158.340 70.172,156.082 70.219,153.982 70.372 M120.738 179.211 C 120.374 179.423,118.949 179.886,117.571 180.239 C 114.118 181.123,112.731 182.153,110.897 185.190 C 107.789 190.337,107.498 191.899,107.538 203.211 L 107.572 212.621 108.768 215.521 C 109.425 217.116,110.150 219.431,110.378 220.665 C 110.606 221.900,110.978 223.132,111.203 223.403 C 111.946 224.299,112.805 227.874,113.382 232.471 C 113.695 234.962,114.238 237.806,114.589 238.790 C 114.941 239.775,115.592 243.555,116.038 247.190 C 116.483 250.826,117.105 254.721,117.420 255.847 C 117.734 256.973,118.263 259.943,118.596 262.447 C 119.548 269.625,119.413 269.364,122.317 269.600 C 128.728 270.121,278.177 269.176,279.041 268.610 C 279.935 268.024,280.028 267.673,280.794 262.000 C 281.047 260.130,281.630 257.160,282.090 255.400 C 282.550 253.640,283.157 249.590,283.440 246.400 C 283.813 242.181,284.286 239.519,285.176 236.635 C 285.907 234.266,286.404 231.770,286.410 230.435 C 286.417 229.066,286.814 227.116,287.437 225.400 C 287.996 223.860,288.784 221.199,289.189 219.487 C 289.593 217.775,290.134 216.120,290.392 215.810 C 291.532 214.435,292.003 210.792,292.262 201.343 L 292.526 191.686 290.858 188.272 C 289.941 186.395,288.622 184.351,287.927 183.729 C 287.233 183.108,286.165 182.130,285.556 181.555 C 283.483 179.599,282.669 179.534,256.000 179.193 C 219.596 178.727,121.544 178.740,120.738 179.211 M48.661 197.052 C 45.695 199.615,45.571 200.010,46.622 203.550 C 47.288 205.792,49.874 208.000,51.834 208.000 C 52.316 208.000,54.306 208.471,56.255 209.047 C 58.205 209.623,60.994 210.306,62.452 210.564 C 64.439 210.916,65.461 211.347,66.526 212.281 C 67.308 212.968,68.361 213.661,68.867 213.821 C 69.898 214.148,74.800 218.344,74.800 218.899 C 74.800 219.096,75.504 220.099,76.365 221.128 C 77.930 223.001,81.200 229.683,81.200 231.010 C 81.200 231.397,81.535 232.903,81.945 234.357 C 83.202 238.819,83.942 242.835,84.202 246.600 C 84.338 248.580,84.967 252.180,85.599 254.600 C 86.231 257.020,86.953 261.239,87.202 263.976 C 87.452 266.713,87.931 270.043,88.268 271.376 C 89.478 276.169,90.836 280.596,91.340 281.390 C 91.622 281.836,92.284 283.280,92.811 284.600 C 94.858 289.735,101.241 296.122,105.600 297.397 C 106.150 297.558,107.533 298.216,108.674 298.859 C 110.385 299.824,111.471 300.094,114.874 300.399 C 118.930 300.763,260.955 300.594,278.212 300.205 L 286.624 300.015 289.872 298.608 C 291.659 297.833,293.382 297.200,293.703 297.200 C 294.023 297.200,295.076 296.612,296.042 295.893 C 297.009 295.174,298.295 294.333,298.900 294.025 C 299.505 293.717,300.000 293.278,300.000 293.049 C 300.000 292.820,300.765 291.898,301.700 291.001 C 304.470 288.343,306.172 286.017,306.637 284.255 C 306.878 283.345,307.540 281.686,308.109 280.570 C 308.739 279.333,309.322 277.232,309.601 275.193 C 309.853 273.352,310.296 271.385,310.586 270.823 C 311.566 268.917,311.998 266.615,312.422 261.039 C 312.718 257.145,313.131 254.628,313.801 252.639 C 314.409 250.833,314.993 247.558,315.405 243.638 C 315.761 240.248,316.295 236.738,316.592 235.838 C 316.889 234.937,317.332 233.210,317.576 232.000 C 318.174 229.038,318.943 226.893,319.740 225.962 C 320.103 225.538,320.400 224.994,320.400 224.754 C 320.400 224.159,322.187 220.640,322.950 219.733 C 325.693 216.469,328.668 213.590,329.728 213.173 C 330.428 212.898,331.556 212.264,332.236 211.764 C 334.427 210.155,340.365 208.117,344.693 207.487 C 353.631 206.187,356.774 200.520,350.807 196.465 C 348.146 194.656,346.613 194.538,341.600 195.753 C 339.290 196.313,336.320 196.886,335.000 197.026 C 333.295 197.207,331.945 197.675,330.340 198.641 C 329.097 199.388,327.940 200.000,327.769 200.000 C 327.598 200.000,326.545 200.607,325.429 201.348 C 324.313 202.090,322.547 203.176,321.505 203.763 C 319.412 204.939,313.819 210.969,311.380 214.678 C 310.540 215.955,309.708 217.100,309.530 217.221 C 309.353 217.343,308.848 218.848,308.409 220.566 C 307.969 222.284,307.251 224.270,306.813 224.978 C 306.375 225.687,305.745 227.512,305.413 229.033 C 305.081 230.555,304.440 233.420,303.989 235.400 C 303.539 237.380,302.997 241.503,302.786 244.563 C 302.428 249.731,301.929 252.306,300.548 256.108 C 300.247 256.938,299.994 258.918,299.988 260.508 C 299.973 263.922,299.378 268.873,298.860 269.885 C 298.515 270.559,297.164 275.010,296.639 277.200 C 296.508 277.750,295.725 278.955,294.900 279.879 C 294.075 280.802,293.093 281.995,292.718 282.530 C 292.343 283.065,290.614 284.336,288.877 285.355 L 285.718 287.207 202.559 287.195 C 125.994 287.183,116.192 287.070,113.800 286.171 C 112.166 285.556,107.672 282.444,106.948 281.426 C 106.537 280.846,105.715 279.737,105.123 278.960 C 104.518 278.167,103.846 276.551,103.589 275.274 C 103.338 274.023,102.706 271.290,102.186 269.200 C 101.665 267.110,101.038 263.330,100.792 260.800 C 100.319 255.951,99.548 251.527,98.595 248.200 C 98.279 247.100,97.749 243.442,97.415 240.070 C 96.921 235.082,96.521 233.071,95.262 229.270 C 94.411 226.702,93.305 223.250,92.805 221.600 C 91.838 218.414,90.795 216.667,87.224 212.248 C 86.001 210.735,84.654 209.025,84.232 208.448 C 82.588 206.206,81.316 205.081,79.200 204.000 C 77.990 203.382,76.460 202.303,75.800 201.602 C 73.013 198.645,61.573 195.051,54.268 194.837 L 51.322 194.751 48.661 197.052 " stroke="none" fill="#cf8a4f" fill-rule="evenodd"></path><path id="path3" d="M149.400 54.250 C 145.376 55.043,144.191 55.372,141.652 56.405 C 140.051 57.057,138.083 58.132,137.279 58.795 C 136.476 59.458,135.679 60.000,135.509 60.000 C 134.763 60.000,130.420 63.785,129.999 64.803 C 129.743 65.421,129.025 66.380,128.405 66.932 C 127.785 67.485,127.156 68.489,127.008 69.164 C 126.860 69.838,126.339 70.707,125.850 71.095 C 124.569 72.112,124.454 72.394,123.994 75.653 C 123.766 77.274,123.179 79.590,122.690 80.800 C 121.828 82.935,121.798 83.506,121.681 100.035 L 121.561 117.070 122.780 120.741 C 123.451 122.760,124.000 125.193,124.000 126.147 C 124.000 127.355,124.299 128.294,124.984 129.241 C 125.525 129.988,126.355 131.320,126.828 132.200 C 127.301 133.080,128.097 134.250,128.596 134.800 C 129.096 135.350,129.751 136.276,130.052 136.857 C 130.603 137.920,133.764 140.620,135.608 141.602 C 136.154 141.892,137.230 142.620,138.000 143.220 C 142.845 146.990,147.253 147.572,171.090 147.588 L 190.379 147.600 190.892 148.700 C 191.912 150.890,191.216 160.870,190.000 161.484 C 189.219 161.878,181.545 161.989,154.912 161.994 L 120.825 162.000 117.912 162.946 C 116.311 163.466,113.974 164.018,112.720 164.172 C 111.303 164.346,109.941 164.815,109.120 165.410 C 108.394 165.937,107.080 166.760,106.200 167.238 C 99.643 170.806,92.987 180.128,92.232 186.800 C 91.772 190.866,90.536 191.453,87.600 189.000 C 86.678 188.230,85.786 187.600,85.617 187.600 C 85.448 187.600,84.643 187.070,83.828 186.422 C 83.012 185.774,81.683 185.034,80.873 184.776 C 80.063 184.519,78.590 183.804,77.600 183.188 C 76.610 182.572,74.990 181.867,74.000 181.623 C 73.010 181.378,71.030 180.738,69.600 180.199 C 67.790 179.518,64.934 178.988,60.200 178.454 L 53.400 177.688 48.600 178.544 C 42.528 179.627,35.953 183.462,34.104 187.000 C 33.759 187.660,32.977 188.830,32.366 189.600 C 31.755 190.370,31.126 191.720,30.968 192.600 C 30.810 193.480,30.258 195.329,29.740 196.709 C 28.518 199.970,28.521 202.841,29.751 206.108 C 30.274 207.497,30.830 209.394,30.987 210.322 C 31.161 211.355,31.801 212.644,32.636 213.643 C 33.386 214.541,34.000 215.446,34.000 215.655 C 34.000 216.235,37.720 220.000,38.293 220.000 C 38.571 220.000,39.486 220.622,40.328 221.382 C 41.319 222.278,42.553 222.916,43.829 223.195 C 44.913 223.432,46.880 223.975,48.200 224.402 C 49.520 224.830,52.220 225.457,54.200 225.796 C 58.479 226.530,59.200 226.735,59.200 227.221 C 59.200 227.423,59.904 228.054,60.763 228.623 C 61.623 229.192,62.562 230.230,62.848 230.929 C 63.135 231.628,63.859 233.010,64.458 234.000 C 65.376 235.519,65.610 236.526,65.954 240.451 C 66.178 243.009,66.817 246.900,67.374 249.099 C 67.932 251.297,68.572 255.201,68.798 257.772 C 69.221 262.600,69.629 264.888,70.623 267.995 C 70.941 268.988,71.452 272.245,71.759 275.234 C 72.154 279.088,72.559 281.143,73.149 282.300 C 73.607 283.197,74.167 284.802,74.394 285.866 C 74.620 286.930,74.895 288.191,75.003 288.669 C 75.111 289.147,75.627 290.047,76.148 290.669 C 76.670 291.291,77.221 292.372,77.374 293.071 C 77.526 293.770,78.224 294.984,78.925 295.768 C 79.626 296.553,81.010 298.198,82.000 299.425 C 82.990 300.651,84.467 302.454,85.282 303.431 C 86.098 304.408,86.908 305.446,87.082 305.737 C 87.490 306.415,93.558 310.400,94.183 310.400 C 94.443 310.400,95.243 310.924,95.961 311.565 C 96.678 312.205,97.746 312.845,98.333 312.986 C 98.920 313.127,100.163 313.782,101.095 314.442 C 102.220 315.239,103.624 315.777,105.269 316.042 C 106.632 316.262,108.569 316.779,109.574 317.192 C 113.021 318.609,118.945 318.815,155.202 318.778 C 183.741 318.748,190.182 318.838,190.476 319.271 C 190.948 319.964,190.574 324.077,189.409 331.000 C 188.891 334.080,188.266 340.200,188.021 344.600 C 187.775 349.000,187.195 355.089,186.732 358.131 C 185.733 364.695,186.149 364.324,179.200 364.856 C 176.670 365.050,172.710 365.564,170.400 366.000 C 168.090 366.435,164.400 367.070,162.200 367.412 C 160.000 367.754,157.233 368.476,156.052 369.017 C 154.870 369.558,152.786 370.179,151.421 370.397 C 148.589 370.849,146.606 371.471,145.288 372.320 C 144.786 372.643,143.532 373.065,142.501 373.258 C 141.471 373.451,139.901 374.100,139.014 374.700 C 138.126 375.301,136.722 376.001,135.893 376.256 C 130.437 377.934,122.895 387.484,121.813 394.085 C 121.569 395.575,122.517 399.778,123.191 400.195 C 123.378 400.310,123.653 401.132,123.804 402.022 C 124.231 404.550,129.585 410.616,132.800 412.215 C 133.570 412.598,134.303 413.071,134.430 413.265 C 134.812 413.855,141.664 417.229,143.800 417.879 C 144.900 418.214,146.478 418.834,147.307 419.256 C 148.135 419.678,150.574 420.286,152.727 420.608 C 154.879 420.930,157.944 421.637,159.538 422.179 C 161.131 422.721,163.552 423.275,164.917 423.411 C 166.283 423.546,168.612 424.009,170.094 424.438 C 178.592 426.902,219.917 427.091,228.800 424.707 C 230.450 424.264,233.145 423.741,234.790 423.544 C 236.434 423.347,239.134 422.729,240.790 422.171 C 242.445 421.613,245.453 420.907,247.474 420.602 C 249.495 420.297,251.655 419.791,252.274 419.478 C 252.893 419.165,254.660 418.501,256.200 418.003 C 257.740 417.504,259.282 416.852,259.626 416.553 C 259.970 416.254,260.870 415.798,261.626 415.538 C 262.382 415.279,263.693 414.601,264.541 414.033 C 265.388 413.465,266.569 412.725,267.164 412.388 C 270.673 410.406,275.387 405.157,276.493 402.000 C 276.840 401.010,277.429 399.390,277.802 398.400 C 279.063 395.051,277.401 388.356,274.483 385.034 C 273.778 384.230,273.195 383.443,273.189 383.286 C 273.183 383.129,272.183 382.190,270.967 381.200 C 269.750 380.210,268.000 378.751,267.078 377.959 C 266.155 377.166,264.877 376.390,264.239 376.235 C 263.600 376.081,262.290 375.412,261.327 374.750 C 260.365 374.088,258.908 373.444,258.089 373.319 C 257.270 373.194,255.520 372.584,254.200 371.962 C 252.880 371.340,250.540 370.642,249.000 370.409 C 247.460 370.177,245.265 369.524,244.123 368.958 C 242.776 368.290,240.596 367.724,237.923 367.348 C 235.655 367.029,232.560 366.494,231.044 366.160 C 229.528 365.826,225.496 365.296,222.085 364.983 C 214.867 364.321,214.170 364.026,213.895 361.518 C 213.792 360.573,213.426 357.910,213.083 355.600 C 212.739 353.290,212.250 347.806,211.995 343.413 C 211.740 339.020,211.263 333.980,210.935 332.213 C 210.366 329.149,209.227 321.472,209.209 320.576 C 209.170 318.701,207.720 318.773,244.898 318.793 C 280.889 318.813,287.509 318.587,290.800 317.228 C 291.790 316.819,293.590 316.354,294.800 316.194 C 296.282 315.998,297.666 315.462,299.041 314.551 C 300.164 313.808,301.269 313.200,301.497 313.200 C 301.724 313.200,302.785 312.610,303.855 311.888 C 304.925 311.167,306.254 310.379,306.810 310.138 C 308.599 309.361,313.194 305.959,313.661 305.066 C 313.910 304.590,314.763 303.463,315.557 302.562 C 316.351 301.661,317.540 300.260,318.200 299.448 C 318.860 298.637,320.052 297.214,320.848 296.286 C 321.644 295.359,322.428 294.150,322.591 293.600 C 322.753 293.050,323.394 291.790,324.015 290.800 C 324.636 289.810,325.434 287.740,325.787 286.200 C 326.141 284.660,326.775 282.680,327.197 281.800 C 327.676 280.800,328.134 278.474,328.420 275.600 C 328.671 273.070,329.310 269.296,329.840 267.213 C 330.369 265.131,331.070 260.901,331.396 257.813 C 331.723 254.726,332.358 250.940,332.807 249.400 C 333.256 247.860,333.881 244.204,334.195 241.275 C 335.243 231.518,339.445 226.056,345.941 226.010 C 346.679 226.004,348.842 225.477,350.750 224.838 C 352.657 224.199,355.042 223.553,356.049 223.402 C 357.314 223.212,358.354 222.706,359.413 221.764 C 360.256 221.014,361.082 220.400,361.248 220.400 C 361.828 220.400,365.403 217.087,365.947 216.047 C 366.247 215.471,367.000 214.460,367.620 213.800 C 368.260 213.118,368.955 211.737,369.228 210.600 C 369.493 209.500,370.155 207.250,370.700 205.600 C 371.838 202.148,371.768 199.461,370.466 196.682 C 370.032 195.757,369.558 194.137,369.412 193.083 C 369.238 191.828,368.760 190.723,368.028 189.883 C 367.414 189.177,366.592 187.977,366.201 187.215 C 365.034 184.937,360.509 181.278,356.600 179.451 C 352.200 177.394,337.648 177.524,331.600 179.673 C 330.390 180.103,328.320 180.782,327.000 181.182 C 324.114 182.056,322.400 182.820,322.400 183.232 C 322.400 183.398,321.256 183.916,319.857 184.381 C 318.458 184.847,316.897 185.671,316.387 186.214 C 315.878 186.756,315.233 187.200,314.955 187.200 C 314.676 187.200,313.617 187.920,312.600 188.800 C 309.558 191.433,308.590 190.922,307.908 186.324 C 307.436 183.134,305.470 178.705,303.542 176.486 C 302.914 175.763,302.400 175.015,302.400 174.824 C 302.400 173.656,297.161 168.912,293.800 167.036 C 293.140 166.667,292.006 165.935,291.280 165.409 C 290.455 164.811,289.105 164.350,287.680 164.178 C 286.426 164.027,284.050 163.430,282.400 162.852 L 279.400 161.800 244.762 161.800 C 215.992 161.800,210.012 161.707,209.462 161.251 C 208.503 160.456,208.473 149.184,209.429 148.229 C 209.983 147.674,212.363 147.600,229.529 147.597 C 248.931 147.594,252.158 147.416,255.922 146.138 C 263.644 143.518,270.672 137.847,273.072 132.300 C 273.429 131.475,273.859 130.800,274.028 130.800 C 274.731 130.800,275.927 128.034,276.191 125.800 C 276.347 124.480,276.937 122.140,277.503 120.600 L 278.532 117.800 278.475 100.695 L 278.419 83.590 277.422 80.695 C 276.874 79.103,276.306 76.774,276.160 75.519 C 276.014 74.264,275.513 72.657,275.047 71.947 C 274.581 71.237,273.529 69.653,272.708 68.428 C 271.888 67.203,270.851 65.641,270.403 64.958 C 269.449 63.502,266.335 60.799,264.548 59.876 C 263.859 59.520,262.765 58.782,262.116 58.236 C 260.742 57.080,258.721 56.268,254.000 54.973 L 250.600 54.041 200.400 54.067 C 172.790 54.081,149.840 54.164,149.400 54.250 M250.324 56.229 C 252.009 56.795,254.831 57.465,256.594 57.718 C 259.127 58.082,259.955 58.373,260.538 59.101 C 260.944 59.608,261.946 60.364,262.765 60.782 C 263.583 61.200,264.509 61.849,264.821 62.225 C 265.133 62.601,266.061 63.333,266.883 63.852 C 267.705 64.371,268.679 65.382,269.048 66.098 C 269.416 66.814,270.322 68.139,271.059 69.041 C 271.797 69.944,272.400 70.875,272.400 71.111 C 272.400 71.346,272.871 72.098,273.446 72.782 C 274.341 73.846,274.570 74.688,275.025 78.605 C 275.318 81.123,275.746 83.863,275.977 84.692 C 276.661 87.157,276.533 114.968,275.823 118.075 C 275.506 119.464,275.075 122.188,274.866 124.128 C 274.587 126.721,274.275 127.887,273.689 128.528 C 273.250 129.008,272.523 130.132,272.074 131.027 C 271.626 131.921,270.960 132.901,270.595 133.204 C 270.230 133.507,269.557 134.552,269.099 135.526 C 268.537 136.721,267.863 137.465,267.025 137.815 C 266.342 138.101,265.428 138.727,264.993 139.208 C 264.558 139.689,263.661 140.354,263.001 140.686 C 262.340 141.018,261.260 141.782,260.600 142.383 C 259.647 143.251,258.736 143.574,256.178 143.947 C 254.406 144.206,251.976 144.818,250.778 145.309 C 248.649 146.180,248.142 146.204,228.264 146.400 L 207.929 146.600 207.164 147.544 C 205.968 149.022,206.018 160.339,207.228 162.039 C 208.685 164.086,207.625 164.028,243.093 164.007 C 280.930 163.984,287.370 164.389,290.454 166.984 C 291.118 167.543,291.877 168.000,292.140 168.000 C 292.403 168.000,293.244 168.514,294.009 169.142 C 294.774 169.770,295.981 170.582,296.691 170.948 C 297.402 171.313,298.740 172.644,299.666 173.906 C 300.592 175.168,301.939 176.986,302.660 177.947 C 303.381 178.907,304.261 180.707,304.616 181.947 C 304.972 183.186,305.512 184.589,305.817 185.064 C 306.121 185.539,306.551 187.048,306.772 188.417 C 307.173 190.906,308.037 192.400,309.075 192.400 C 309.818 192.400,313.600 190.465,313.600 190.084 C 313.600 189.918,314.267 189.426,315.081 188.991 C 315.896 188.556,317.021 187.827,317.581 187.371 C 318.142 186.915,319.732 186.126,321.115 185.617 C 322.499 185.108,324.055 184.357,324.575 183.949 C 325.094 183.540,326.752 182.946,328.259 182.628 C 329.767 182.310,331.990 181.601,333.200 181.053 C 337.112 179.278,354.877 179.180,356.200 180.926 C 356.420 181.216,357.500 181.941,358.600 182.538 C 361.185 183.940,364.535 187.017,365.418 188.800 C 365.799 189.570,366.597 190.758,367.190 191.439 C 369.856 194.502,369.679 208.280,366.929 211.739 C 366.202 212.652,365.606 213.676,365.604 214.013 C 365.599 214.728,361.962 218.366,360.165 219.453 C 359.485 219.864,358.225 220.667,357.365 221.238 C 356.233 221.988,355.025 222.350,353.000 222.547 C 351.460 222.696,348.760 223.247,347.000 223.770 C 345.240 224.293,343.077 224.914,342.194 225.149 C 340.301 225.652,336.614 228.768,335.792 230.559 C 335.478 231.242,334.858 232.250,334.413 232.800 C 333.806 233.551,333.501 234.818,333.189 237.882 C 332.961 240.128,332.496 242.630,332.156 243.443 C 331.369 245.326,330.891 248.215,330.407 254.014 C 330.195 256.557,329.646 259.787,329.183 261.214 C 328.719 262.646,328.006 266.852,327.585 270.637 C 327.081 275.173,326.553 278.109,326.017 279.361 C 325.572 280.399,325.016 282.453,324.783 283.924 C 324.545 285.418,323.864 287.484,323.240 288.600 C 322.626 289.700,322.007 291.077,321.864 291.659 C 321.722 292.241,320.974 293.473,320.203 294.397 C 319.431 295.320,318.800 296.221,318.800 296.398 C 318.800 296.575,318.215 297.350,317.500 298.119 C 314.392 301.463,313.078 303.031,312.717 303.822 C 312.505 304.287,311.809 304.977,311.170 305.354 C 310.532 305.731,309.171 306.679,308.148 307.460 C 307.124 308.242,305.727 309.071,305.043 309.303 C 304.360 309.535,303.170 310.213,302.400 310.809 C 301.630 311.405,300.550 312.025,300.000 312.187 C 299.450 312.348,298.344 312.923,297.542 313.465 C 293.513 316.188,284.607 316.704,244.467 316.543 L 210.333 316.405 209.167 317.572 C 208.106 318.632,208.000 318.986,208.000 321.463 C 208.000 325.429,209.170 337.038,209.829 339.600 C 210.139 340.810,210.598 345.400,210.847 349.800 C 211.716 365.122,211.804 365.339,217.404 365.978 C 219.162 366.179,222.418 366.714,224.640 367.167 C 226.862 367.620,231.002 368.191,233.840 368.437 C 237.303 368.736,239.592 369.145,240.800 369.679 C 243.040 370.669,245.655 371.446,247.998 371.818 C 248.987 371.975,250.412 372.434,251.165 372.837 C 251.918 373.241,253.539 373.772,254.767 374.018 C 258.488 374.761,266.211 378.836,269.328 381.700 C 270.226 382.525,271.103 383.200,271.276 383.200 C 271.448 383.200,272.087 383.944,272.695 384.854 C 273.303 385.763,274.093 386.945,274.451 387.480 C 275.537 389.104,276.540 395.044,276.053 396.966 C 275.825 397.865,275.534 399.420,275.406 400.423 C 275.065 403.105,270.536 408.493,266.800 410.661 C 265.810 411.236,264.550 412.117,264.000 412.618 C 263.450 413.120,262.211 413.740,261.246 413.995 C 260.282 414.251,258.842 414.884,258.046 415.403 C 257.251 415.922,255.484 416.631,254.119 416.979 C 252.755 417.327,250.775 417.983,249.719 418.436 C 248.664 418.889,246.180 419.440,244.200 419.660 C 240.527 420.068,237.234 420.920,235.800 421.832 C 235.360 422.111,232.480 422.549,229.400 422.804 C 226.320 423.059,219.570 423.716,214.400 424.263 C 200.178 425.769,199.701 425.751,170.600 422.652 C 167.011 422.270,164.559 421.774,162.686 421.051 C 161.193 420.474,158.673 419.889,157.086 419.750 C 154.440 419.517,149.965 418.322,149.000 417.590 C 148.780 417.423,147.520 417.068,146.200 416.800 C 144.880 416.532,142.703 415.703,141.362 414.957 C 140.020 414.210,138.563 413.600,138.124 413.600 C 137.684 413.600,136.981 413.218,136.562 412.751 C 136.143 412.284,134.876 411.379,133.747 410.739 C 131.879 409.682,129.657 407.567,126.706 404.039 C 123.789 400.552,123.454 390.247,126.158 387.200 C 126.646 386.650,127.533 385.435,128.128 384.500 C 128.724 383.565,129.361 382.800,129.544 382.800 C 129.727 382.800,130.526 382.170,131.319 381.400 C 132.112 380.630,132.994 379.997,133.280 379.993 C 133.566 379.989,134.181 379.584,134.646 379.093 C 135.111 378.602,136.191 377.956,137.046 377.658 C 137.901 377.360,139.230 376.702,140.000 376.195 C 140.770 375.688,142.899 374.892,144.730 374.426 C 146.562 373.960,148.452 373.333,148.930 373.032 C 149.409 372.731,151.467 372.108,153.504 371.648 C 155.541 371.188,157.952 370.432,158.862 369.968 C 160.108 369.333,162.002 368.989,166.554 368.573 C 173.161 367.969,174.128 367.819,176.800 366.976 C 177.790 366.664,180.310 366.234,182.400 366.022 C 188.486 365.402,188.370 365.660,189.204 350.840 C 189.432 346.792,189.879 342.202,190.197 340.640 C 191.915 332.223,192.566 319.352,191.357 317.730 L 190.514 316.600 153.557 316.367 C 129.676 316.217,115.468 315.976,113.400 315.685 C 107.228 314.819,103.571 314.028,102.970 313.427 C 102.637 313.094,101.548 312.461,100.550 312.019 C 99.551 311.577,98.195 310.762,97.537 310.208 C 96.878 309.654,96.077 309.200,95.756 309.200 C 95.436 309.200,93.778 308.222,92.072 307.026 C 89.414 305.164,88.186 303.951,84.959 300.000 C 84.689 299.670,83.733 298.606,82.834 297.636 C 81.935 296.666,81.200 295.729,81.200 295.553 C 81.200 295.376,80.765 294.820,80.232 294.316 C 79.700 293.812,79.070 292.660,78.832 291.755 C 78.594 290.850,77.943 289.439,77.387 288.618 C 76.830 287.798,76.274 286.289,76.152 285.264 C 75.904 283.195,74.502 278.465,73.918 277.724 C 73.712 277.463,73.378 274.926,73.177 272.088 C 72.768 266.328,71.982 261.689,71.027 259.403 C 70.658 258.519,70.234 255.689,70.015 252.641 C 69.649 247.541,68.767 242.633,67.939 241.086 C 67.714 240.666,67.380 238.718,67.196 236.758 C 66.909 233.695,66.696 232.982,65.684 231.696 C 65.037 230.873,64.394 229.840,64.256 229.400 C 63.615 227.349,59.425 224.609,56.309 224.201 C 55.269 224.065,54.321 223.796,54.201 223.602 C 53.850 223.034,48.795 221.662,46.257 221.447 C 44.534 221.301,43.502 220.951,42.361 220.124 C 41.507 219.506,40.311 218.727,39.704 218.393 C 36.338 216.542,32.800 211.032,32.800 207.642 C 32.800 206.285,32.530 204.528,32.200 203.738 C 31.506 202.076,31.435 200.657,31.994 199.612 C 32.210 199.207,32.503 197.554,32.644 195.938 C 32.854 193.540,33.146 192.625,34.231 190.962 C 34.963 189.840,35.779 188.445,36.045 187.862 C 36.311 187.278,36.662 186.800,36.826 186.800 C 36.990 186.800,37.906 186.144,38.862 185.342 C 39.818 184.540,41.169 183.644,41.865 183.351 C 42.561 183.058,43.697 182.301,44.390 181.668 C 46.746 179.516,62.278 179.480,66.420 181.616 C 67.860 182.359,69.583 182.858,71.326 183.036 C 73.547 183.264,74.319 183.550,75.782 184.691 C 76.879 185.545,78.176 186.153,79.192 186.290 C 80.094 186.411,81.049 186.820,81.316 187.198 C 81.582 187.577,82.700 188.350,83.800 188.916 C 84.900 189.482,86.290 190.409,86.889 190.978 C 90.272 194.189,92.991 193.409,93.474 189.089 C 93.602 187.940,93.932 186.730,94.208 186.400 C 94.483 186.070,95.182 184.374,95.762 182.632 C 96.383 180.765,97.387 178.766,98.208 177.765 C 98.973 176.830,99.600 175.894,99.600 175.684 C 99.600 175.207,103.454 171.200,103.912 171.200 C 104.098 171.200,104.601 170.872,105.031 170.472 C 105.461 170.071,106.709 169.233,107.806 168.608 C 108.903 167.984,110.011 167.217,110.269 166.903 C 110.531 166.584,112.015 166.173,113.638 165.969 C 115.233 165.768,117.934 165.340,119.641 165.016 C 122.205 164.530,128.522 164.421,156.071 164.392 C 197.586 164.347,193.545 165.379,193.621 154.794 C 193.687 145.534,196.107 146.448,171.000 146.249 L 152.600 146.103 149.400 145.035 C 147.640 144.448,145.149 143.857,143.865 143.723 C 142.009 143.529,141.202 143.204,139.927 142.139 C 139.046 141.403,138.067 140.800,137.753 140.800 C 137.439 140.800,136.421 140.101,135.491 139.246 C 134.561 138.391,133.451 137.626,133.025 137.545 C 132.549 137.455,131.813 136.512,131.116 135.099 C 130.493 133.835,129.806 132.800,129.591 132.800 C 129.376 132.800,129.200 132.613,129.200 132.384 C 129.200 131.943,127.907 129.973,126.680 128.546 C 126.173 127.955,125.832 126.597,125.576 124.146 C 125.373 122.196,125.033 119.790,124.820 118.800 C 124.337 116.541,124.332 86.176,124.816 83.200 C 125.012 81.990,125.373 79.386,125.618 77.414 C 125.960 74.661,126.265 73.623,126.932 72.950 C 127.409 72.468,128.158 71.382,128.596 70.537 C 129.034 69.691,129.595 68.869,129.844 68.709 C 130.092 68.550,130.528 67.830,130.812 67.109 C 131.367 65.706,132.721 64.000,133.281 64.000 C 133.470 64.000,134.534 63.280,135.648 62.400 C 136.761 61.520,137.800 60.800,137.958 60.800 C 138.115 60.800,138.904 60.195,139.711 59.456 C 140.949 58.322,141.581 58.071,143.763 57.848 C 145.186 57.702,147.486 57.186,148.875 56.701 C 151.909 55.641,161.784 55.429,214.929 55.287 L 247.259 55.200 250.324 56.229 M152.200 70.000 C 151.657 70.233,152.396 70.353,154.500 70.372 C 156.319 70.388,157.600 70.235,157.600 70.000 C 157.600 69.515,153.328 69.515,152.200 70.000 M149.430 70.751 C 149.311 70.944,148.431 71.299,147.475 71.539 C 145.869 71.944,143.354 73.487,143.714 73.847 C 144.012 74.145,146.608 73.068,148.202 71.985 C 149.083 71.386,150.163 70.806,150.602 70.695 C 151.341 70.508,151.335 70.489,150.524 70.446 C 150.042 70.421,149.550 70.558,149.430 70.751 M139.927 77.869 C 138.727 79.213,137.376 87.600,138.359 87.600 C 138.602 87.600,138.800 87.285,138.801 86.900 C 138.801 86.515,139.256 84.324,139.811 82.031 C 140.907 77.506,140.928 76.748,139.927 77.869 M138.208 104.802 C 138.291 111.731,138.503 117.896,138.681 118.502 C 138.859 119.107,138.940 113.707,138.861 106.502 C 138.782 99.296,138.569 93.131,138.388 92.802 C 138.207 92.473,138.126 97.873,138.208 104.802 M141.218 124.642 C 141.192 125.284,145.371 129.133,146.604 129.601 C 148.592 130.357,148.588 129.997,146.597 128.951 C 145.499 128.374,143.843 127.069,142.918 126.051 C 141.993 125.033,141.228 124.399,141.218 124.642 M118.400 179.172 C 116.569 179.441,114.569 180.302,114.931 180.664 C 115.207 180.940,120.104 179.656,120.576 179.184 C 120.815 178.945,120.817 178.820,120.580 178.853 C 120.371 178.883,119.390 179.026,118.400 179.172 M111.052 183.500 C 108.664 185.931,107.450 188.915,107.351 192.600 C 107.261 195.936,107.280 196.035,107.607 193.948 C 108.104 190.771,109.259 187.694,110.943 185.062 C 112.362 182.843,112.413 182.115,111.052 183.500 M51.200 193.972 C 45.973 195.807,43.546 201.053,46.300 204.561 C 46.795 205.192,47.198 205.639,47.196 205.554 C 47.193 205.469,46.923 204.516,46.596 203.436 C 45.565 200.037,45.706 199.606,48.694 197.023 L 51.387 194.695 55.594 194.908 C 59.602 195.112,59.725 195.095,58.200 194.546 C 56.172 193.816,52.503 193.515,51.200 193.972 M66.200 197.135 C 71.148 198.890,71.728 198.995,71.121 198.022 C 70.440 196.932,69.101 196.478,65.800 196.220 L 63.000 196.001 66.200 197.135 M107.328 198.800 C 107.328 200.230,107.401 200.815,107.489 200.100 C 107.578 199.385,107.578 198.215,107.489 197.500 C 107.401 196.785,107.328 197.370,107.328 198.800 M76.204 202.006 C 76.642 202.491,77.990 203.391,79.200 204.006 C 81.315 205.081,82.586 206.203,84.232 208.448 C 84.654 209.025,86.002 210.735,87.227 212.248 C 88.452 213.762,89.937 215.717,90.527 216.593 C 91.117 217.469,91.600 217.905,91.600 217.563 C 91.600 217.220,90.835 215.950,89.900 214.740 C 88.965 213.530,87.840 212.025,87.400 211.397 C 86.960 210.768,85.664 209.252,84.519 208.027 C 83.374 206.802,81.923 205.220,81.293 204.511 C 80.663 203.801,79.081 202.750,77.778 202.173 C 75.496 201.164,75.438 201.158,76.204 202.006 M93.600 224.305 C 93.600 225.098,94.950 228.550,95.093 228.122 C 95.306 227.482,94.465 224.487,93.989 224.193 C 93.775 224.061,93.600 224.111,93.600 224.305 M180.800 379.998 C 180.030 380.167,178.050 380.611,176.400 380.985 C 174.750 381.359,170.880 381.912,167.800 382.213 C 163.553 382.628,161.582 383.016,159.645 383.818 C 158.240 384.400,156.062 385.022,154.805 385.199 C 153.549 385.377,151.782 385.899,150.880 386.359 C 149.978 386.819,148.446 387.466,147.476 387.795 C 142.738 389.403,138.006 393.210,138.001 395.415 C 138.000 396.502,141.441 399.777,143.200 400.362 C 143.970 400.618,145.262 401.265,146.072 401.801 C 146.882 402.336,148.412 402.983,149.472 403.237 C 150.532 403.491,152.163 404.133,153.095 404.664 C 154.234 405.312,155.939 405.767,158.295 406.054 C 160.223 406.288,162.520 406.745,163.400 407.069 C 167.417 408.548,168.937 408.824,175.161 409.203 C 178.813 409.426,183.240 409.783,185.000 409.996 C 197.232 411.480,201.010 411.544,210.223 410.426 C 213.730 410.001,219.825 409.453,223.767 409.208 C 229.835 408.832,231.472 408.586,234.443 407.607 C 236.373 406.971,239.448 406.235,241.276 405.972 C 243.104 405.709,245.410 405.088,246.400 404.591 C 247.390 404.095,249.151 403.407,250.314 403.062 C 251.476 402.717,252.966 402.051,253.625 401.582 C 254.284 401.113,255.456 400.554,256.231 400.340 C 261.702 398.830,262.940 393.263,258.266 391.184 C 257.350 390.777,255.993 389.993,255.251 389.443 C 254.509 388.892,253.339 388.320,252.651 388.171 C 251.963 388.022,250.397 387.397,249.172 386.781 C 247.947 386.165,245.787 385.455,244.372 385.204 C 242.957 384.952,240.810 384.295,239.600 383.744 C 237.896 382.968,236.321 382.659,232.615 382.374 C 229.984 382.172,226.114 381.621,224.015 381.149 C 214.739 379.064,214.799 379.035,214.363 385.641 C 213.845 393.492,212.566 394.241,199.910 394.110 C 187.100 393.976,185.600 392.934,185.600 384.159 C 185.600 379.774,184.839 379.115,180.800 379.998 M182.400 385.442 C 182.400 386.645,182.644 387.444,183.171 387.971 C 183.595 388.395,184.068 389.610,184.222 390.671 C 184.665 393.720,186.586 395.600,189.258 395.600 C 189.748 395.600,190.579 396.005,191.105 396.500 C 192.831 398.123,207.528 398.080,209.089 396.446 C 209.480 396.037,210.647 395.580,211.683 395.429 C 214.027 395.089,215.385 393.631,215.774 391.034 C 215.946 389.885,216.345 389.004,216.854 388.647 C 217.474 388.213,217.677 387.584,217.731 385.941 L 217.800 383.800 220.531 383.681 C 224.980 383.487,231.287 384.224,233.460 385.191 C 234.571 385.685,236.597 386.139,238.200 386.252 C 241.855 386.511,242.418 386.653,243.539 387.599 L 244.478 388.392 243.415 389.656 C 241.970 391.372,237.707 393.883,235.339 394.412 C 234.234 394.660,232.914 395.309,232.271 395.923 C 231.245 396.902,230.893 396.992,228.415 396.908 C 226.269 396.836,225.486 396.974,224.744 397.557 C 224.225 397.965,223.080 398.395,222.200 398.514 C 221.320 398.633,219.610 399.021,218.400 399.377 C 217.190 399.733,214.760 400.134,213.000 400.268 C 211.240 400.402,209.260 400.790,208.600 401.130 C 207.789 401.548,206.465 401.724,204.517 401.673 C 202.932 401.631,199.692 401.878,197.317 402.223 C 192.221 402.963,168.482 403.060,165.835 402.353 C 164.676 402.043,164.034 402.061,163.357 402.423 C 162.616 402.819,162.194 402.797,161.122 402.304 C 159.463 401.540,156.549 400.920,153.248 400.627 C 151.816 400.501,150.149 400.069,149.448 399.643 C 148.762 399.226,147.480 398.765,146.600 398.620 C 144.397 398.255,140.474 395.975,140.715 395.200 C 141.084 394.014,142.578 392.783,144.168 392.355 C 145.059 392.115,146.463 391.384,147.289 390.730 C 148.333 389.903,149.492 389.437,151.095 389.201 C 152.363 389.014,154.528 388.308,155.906 387.631 C 157.880 386.662,158.943 386.398,160.906 386.391 C 162.510 386.386,164.015 386.103,165.123 385.600 C 167.982 384.303,169.981 383.899,174.800 383.644 C 182.121 383.256,182.400 383.322,182.400 385.442 " stroke="none" fill="#868e92" fill-rule="evenodd"></path></g></svg>