<svg id="svg" version="1.1" xmlns="http://www.w3.org/2000/svg" xmlns:xlink="http://www.w3.org/1999/xlink" width="400" height="379.296066252588" viewBox="0, 0, 400,379.296066252588"><g id="svgg"><path id="path0" d="M217.457 39.469 L 163.378 39.658 160.421 40.717 C 154.057 42.994,149.786 46.878,146.719 53.174 C 144.747 57.223,146.787 56.926,120.939 56.926 C 93.807 56.926,96.886 57.830,96.709 49.812 C 96.560 43.112,96.241 42.037,93.987 40.644 C 91.778 39.278,90.011 39.553,88.030 41.572 L 86.338 43.296 86.243 61.970 L 86.149 80.645 87.006 82.163 C 88.121 84.139,90.142 85.171,92.212 84.821 C 95.712 84.230,96.774 81.922,96.774 74.910 C 96.774 66.802,94.531 67.435,122.355 67.691 L 144.023 67.891 145.351 69.373 C 146.082 70.187,146.914 71.520,147.201 72.334 C 147.854 74.186,149.996 77.230,151.555 78.524 C 152.207 79.064,153.468 80.208,154.359 81.066 L 155.977 82.625 155.977 179.049 C 155.977 236.032,155.836 275.844,155.632 276.380 C 155.442 276.880,154.145 278.215,152.749 279.346 C 149.968 281.602,148.689 283.283,146.894 287.044 C 144.789 291.454,147.157 291.082,121.243 291.082 C 93.981 291.082,97.043 291.991,96.768 283.810 C 96.544 277.162,96.068 275.614,93.936 274.602 C 91.106 273.259,88.631 274.061,86.885 276.885 C 86.011 278.299,85.327 305.124,85.974 312.609 C 86.437 317.971,90.326 321.016,93.742 318.691 C 96.390 316.889,96.564 316.356,96.774 309.446 C 96.980 302.676,96.975 302.689,99.241 302.264 C 99.867 302.147,110.216 302.102,122.238 302.164 C 147.300 302.294,144.749 301.850,146.900 306.452 C 149.694 312.428,155.172 316.973,161.868 318.872 L 164.896 319.730 218.868 319.836 L 272.840 319.942 277.502 318.765 C 281.589 317.734,282.550 317.329,285.304 315.478 C 298.010 306.938,298.827 287.537,286.852 278.712 C 283.572 276.295,283.871 286.278,283.871 179.297 C 283.871 73.742,283.625 82.748,286.567 80.431 C 291.279 76.720,294.352 71.431,295.254 65.479 C 296.180 59.370,292.839 49.805,288.457 46.022 C 283.824 42.022,279.178 40.124,272.106 39.342 C 271.793 39.307,247.201 39.364,217.457 39.469 M275.901 51.314 C 287.577 55.020,286.251 71.743,274.104 73.988 C 271.132 74.538,167.335 74.535,164.819 73.985 C 152.124 71.212,152.903 52.789,165.814 50.459 C 170.154 49.676,273.263 50.477,275.901 51.314 M255.104 85.882 C 262.290 85.980,263.544 87.563,257.825 89.314 C 255.828 89.925,253.734 90.710,246.129 93.699 C 243.426 94.761,240.609 95.739,239.867 95.873 C 239.126 96.007,237.666 96.431,236.622 96.814 C 235.579 97.197,231.651 98.440,227.894 99.576 C 224.137 100.711,220.550 101.829,219.924 102.060 C 218.912 102.432,216.033 103.269,210.057 104.928 C 200.882 107.476,186.278 112.341,185.408 113.141 C 185.210 113.323,184.811 113.472,184.523 113.472 C 183.434 113.472,173.877 117.862,171.884 119.277 C 170.309 120.396,167.687 120.050,167.322 118.675 C 166.852 116.906,166.911 88.129,167.387 87.241 C 168.434 85.285,167.140 85.336,209.867 85.579 C 231.679 85.703,252.036 85.839,255.104 85.882 M272.493 97.167 C 273.254 98.588,272.824 126.674,272.019 128.144 C 270.883 130.220,268.933 131.545,262.998 134.273 C 257.502 136.800,255.249 137.669,248.387 139.907 C 244.213 141.269,239.772 142.720,238.520 143.132 C 237.268 143.544,235.047 144.219,233.586 144.632 C 232.125 145.044,230.392 145.631,229.734 145.936 C 229.076 146.240,228.250 146.490,227.897 146.490 C 227.545 146.490,225.777 146.986,223.970 147.592 C 222.162 148.199,218.548 149.323,215.939 150.091 C 210.816 151.598,206.134 153.045,203.416 153.960 C 202.476 154.277,200.342 154.929,198.672 155.409 C 194.868 156.503,191.102 157.765,189.374 158.526 C 188.643 158.848,186.935 159.500,185.579 159.975 C 179.738 162.021,178.068 162.773,171.386 166.363 C 166.865 168.792,166.983 169.171,166.983 152.219 L 166.983 138.277 168.027 136.216 C 169.510 133.288,179.546 126.376,182.313 126.376 C 182.479 126.376,183.069 126.067,183.623 125.690 C 184.930 124.800,193.327 121.643,198.482 120.103 C 199.421 119.823,201.471 119.165,203.036 118.642 C 208.682 116.756,209.724 116.440,212.713 115.701 C 214.383 115.288,216.262 114.717,216.888 114.433 C 217.514 114.148,218.710 113.792,219.545 113.642 C 220.380 113.492,222.173 112.981,223.529 112.507 C 224.886 112.032,226.594 111.533,227.324 111.397 C 228.055 111.261,229.934 110.742,231.499 110.244 C 236.545 108.636,241.901 107.069,243.249 106.804 C 243.971 106.662,245.252 106.251,246.095 105.891 C 246.938 105.530,248.477 105.108,249.514 104.954 C 250.551 104.799,252.210 104.262,253.201 103.759 C 254.192 103.257,255.183 102.846,255.404 102.846 C 256.693 102.846,266.625 98.492,268.783 96.980 C 270.009 96.121,271.987 96.221,272.493 97.167 M271.318 145.126 C 272.199 146.188,271.700 173.786,270.778 175.015 C 269.655 176.510,267.071 178.025,262.808 179.686 C 260.721 180.500,258.757 181.369,258.444 181.619 C 258.131 181.869,256.679 182.368,255.218 182.728 C 253.757 183.088,251.879 183.774,251.044 184.252 C 250.209 184.730,249.099 185.238,248.577 185.382 C 248.055 185.527,246.310 186.142,244.699 186.750 C 243.088 187.358,241.315 187.856,240.759 187.856 C 240.203 187.856,239.215 188.185,238.565 188.587 C 237.914 188.990,236.186 189.655,234.725 190.066 C 233.264 190.478,231.556 191.020,230.930 191.271 C 229.812 191.720,228.475 192.139,221.252 194.305 C 219.269 194.899,216.879 195.640,215.939 195.950 C 215.000 196.260,212.438 197.044,210.247 197.692 C 208.055 198.340,205.493 199.144,204.554 199.479 C 199.350 201.332,196.110 202.414,193.738 203.088 C 192.277 203.503,190.681 204.103,190.192 204.420 C 189.702 204.738,188.250 205.337,186.966 205.751 C 182.583 207.164,179.972 208.236,173.573 211.249 C 170.782 212.563,168.761 212.871,168.259 212.060 C 167.828 211.362,167.751 187.961,168.173 185.711 C 168.847 182.114,173.557 177.603,178.914 175.421 C 179.736 175.087,181.914 173.995,183.754 172.995 C 185.594 171.996,188.081 170.913,189.280 170.589 C 190.480 170.266,193.169 169.393,195.256 168.649 C 197.343 167.906,199.905 167.123,200.949 166.909 C 201.992 166.695,204.042 166.123,205.503 165.638 C 206.964 165.152,208.757 164.639,209.488 164.498 C 210.218 164.356,211.499 163.933,212.334 163.558 C 213.169 163.183,214.940 162.679,216.270 162.438 C 217.599 162.197,219.819 161.603,221.203 161.118 C 222.587 160.633,224.402 160.053,225.237 159.830 C 230.637 158.383,239.822 155.740,242.827 154.768 C 244.778 154.138,247.425 153.538,248.709 153.437 C 251.034 153.253,251.647 153.050,255.977 151.033 C 257.230 150.449,259.020 149.769,259.956 149.521 C 261.763 149.041,263.791 148.021,267.156 145.898 C 269.373 144.499,270.608 144.270,271.318 145.126 M272.030 190.968 C 272.790 191.728,272.668 219.323,271.896 221.170 C 270.816 223.757,268.277 225.642,263.378 227.497 C 262.647 227.773,260.327 228.774,258.222 229.721 C 256.117 230.668,253.470 231.699,252.340 232.013 C 251.210 232.326,247.808 233.428,244.782 234.460 C 237.766 236.854,220.554 242.292,212.713 244.593 C 207.419 246.147,201.880 247.828,200.000 248.453 C 199.061 248.765,196.926 249.418,195.256 249.904 C 189.168 251.676,179.251 255.665,173.814 258.528 C 166.886 262.177,167.273 262.923,167.252 245.891 L 167.234 232.068 168.226 230.130 C 170.132 226.407,180.760 219.837,189.111 217.221 C 190.195 216.881,192.619 216.045,194.497 215.363 C 198.014 214.087,207.728 211.014,213.093 209.481 C 214.763 209.004,217.495 208.196,219.165 207.686 C 226.809 205.350,237.466 202.239,241.176 201.260 C 242.429 200.930,243.880 200.446,244.402 200.184 C 244.924 199.922,246.376 199.504,247.628 199.255 C 251.982 198.392,263.513 194.021,266.983 191.920 C 269.308 190.512,271.215 190.152,272.030 190.968 M272.104 237.379 C 272.950 238.398,272.645 271.720,271.782 272.593 C 271.010 273.372,261.170 273.523,204.837 273.616 C 173.886 273.668,173.435 273.654,173.435 272.632 C 173.435 271.334,182.078 266.144,185.958 265.112 C 186.480 264.974,187.846 264.454,188.994 263.958 C 190.142 263.461,191.850 262.802,192.789 262.493 C 193.729 262.184,195.266 261.665,196.205 261.340 C 197.144 261.015,199.706 260.229,201.898 259.594 C 204.089 258.959,207.505 257.945,209.488 257.340 C 211.471 256.734,214.886 255.704,217.078 255.049 C 219.269 254.394,222.685 253.369,224.668 252.771 C 230.427 251.035,234.426 249.853,238.899 248.565 C 241.195 247.904,244.099 247.044,245.351 246.655 C 246.603 246.265,248.567 245.749,249.715 245.507 C 250.863 245.266,252.313 244.808,252.936 244.490 C 253.559 244.171,255.181 243.527,256.541 243.058 C 261.785 241.249,264.052 240.281,266.983 238.601 C 270.223 236.744,271.353 236.474,272.104 237.379 M256.556 285.105 L 275.730 285.199 277.703 286.465 C 286.739 292.266,285.346 304.532,275.332 307.339 L 272.296 308.189 218.596 308.080 L 164.896 307.970 163.063 307.124 C 153.725 302.814,153.135 291.472,161.979 286.287 C 164.689 284.699,167.352 284.666,256.556 285.105 " stroke="none" fill="#475a6a" fill-rule="evenodd"></path><path id="path1" d="M0.000 189.753 L 0.000 379.507 200.000 379.507 L 400.000 379.507 400.000 189.753 L 400.000 0.000 200.000 0.000 L 0.000 0.000 0.000 189.753 M93.548 39.423 C 96.805 40.919,97.659 43.083,97.696 49.941 C 97.734 56.954,94.754 56.167,121.272 56.167 C 147.001 56.167,144.297 56.587,146.290 52.284 C 149.264 45.864,156.524 40.147,163.066 39.076 C 166.971 38.436,274.104 38.610,276.861 39.261 C 296.179 43.817,302.752 66.702,288.489 79.744 C 287.377 80.762,286.350 81.594,286.209 81.594 C 285.013 81.594,285.004 82.377,285.000 179.601 L 284.996 276.091 287.694 278.532 C 299.712 289.404,298.938 306.335,285.990 315.820 C 279.281 320.734,282.381 320.534,216.509 320.304 L 162.239 320.114 159.616 319.064 C 153.768 316.724,148.715 312.130,146.368 307.021 C 145.745 305.664,144.890 304.170,144.468 303.700 L 143.701 302.846 121.376 302.846 C 94.870 302.846,97.508 302.245,97.810 308.215 C 98.317 318.243,92.593 323.791,87.400 318.304 C 85.304 316.090,85.363 316.715,85.382 296.727 C 85.402 275.487,85.389 275.579,88.691 273.872 C 94.067 271.094,97.600 274.973,97.800 283.871 C 97.962 291.101,95.142 290.324,121.200 290.317 C 145.909 290.311,144.167 290.551,146.002 286.900 C 147.823 283.277,149.354 281.273,152.086 278.937 C 153.429 277.789,154.682 276.565,154.870 276.216 C 155.119 275.756,155.368 139.129,155.221 84.096 C 155.219 83.202,154.533 82.328,151.611 79.495 C 148.761 76.731,147.769 75.481,146.888 73.536 C 146.274 72.182,145.320 70.538,144.768 69.883 L 143.766 68.691 121.640 68.691 C 94.983 68.691,97.730 67.987,97.707 74.825 C 97.685 81.504,96.631 84.223,93.619 85.364 C 90.983 86.362,88.433 85.585,86.642 83.237 L 85.579 81.843 85.466 63.407 C 85.405 53.268,85.458 44.401,85.585 43.705 C 85.855 42.221,88.639 39.240,89.996 38.983 C 91.631 38.673,92.018 38.721,93.548 39.423 M166.414 51.491 C 154.474 54.159,152.438 67.389,163.188 72.452 L 165.275 73.435 218.406 73.552 C 274.672 73.676,273.881 73.698,277.443 71.901 C 286.081 67.542,284.458 54.423,274.981 52.000 C 272.158 51.278,169.520 50.797,166.414 51.491 M269.241 97.565 C 269.101 97.791,268.280 98.308,267.415 98.714 C 266.551 99.120,265.161 99.872,264.326 100.384 C 263.491 100.896,262.434 101.319,261.977 101.322 C 261.520 101.325,261.048 101.486,260.929 101.678 C 260.810 101.871,259.564 102.410,258.160 102.878 C 256.756 103.345,254.837 104.107,253.895 104.571 C 252.953 105.035,251.328 105.536,250.285 105.685 C 249.241 105.833,247.848 106.179,247.190 106.453 C 246.531 106.728,244.994 107.158,243.774 107.409 C 242.554 107.661,241.074 108.114,240.484 108.417 C 239.894 108.720,238.272 109.199,236.879 109.481 C 235.485 109.764,233.321 110.333,232.068 110.745 C 225.689 112.845,222.408 113.852,221.950 113.850 C 221.671 113.849,219.734 114.369,217.647 115.006 C 215.560 115.643,212.144 116.674,210.057 117.298 C 202.372 119.594,197.504 121.153,196.395 121.673 C 195.769 121.966,194.146 122.532,192.789 122.929 C 188.611 124.153,187.138 124.775,180.076 128.292 C 167.504 134.554,167.742 134.095,167.742 152.117 C 167.742 168.347,167.359 167.564,173.681 164.284 C 177.707 162.195,181.282 160.619,185.199 159.205 C 186.556 158.716,189.118 157.778,190.892 157.122 C 192.666 156.466,195.280 155.604,196.701 155.207 C 198.122 154.809,200.257 154.158,201.445 153.760 C 202.633 153.362,205.313 152.515,207.400 151.879 C 209.488 151.242,212.391 150.347,213.852 149.889 C 215.313 149.431,217.619 148.759,218.975 148.395 C 220.332 148.031,222.211 147.465,223.150 147.137 C 224.089 146.809,226.651 145.996,228.843 145.330 C 231.034 144.664,233.852 143.778,235.104 143.361 C 237.688 142.502,239.216 142.015,244.592 140.340 C 246.679 139.689,249.241 138.773,250.285 138.303 C 251.328 137.834,252.865 137.335,253.700 137.194 C 254.535 137.053,255.731 136.630,256.357 136.254 C 256.983 135.878,257.922 135.448,258.444 135.299 C 258.966 135.149,260.247 134.630,261.290 134.144 C 262.334 133.659,264.469 132.671,266.034 131.949 C 268.976 130.593,270.815 129.098,271.387 127.598 C 271.772 126.586,271.933 98.175,271.557 97.566 C 271.227 97.032,269.570 97.032,269.241 97.565 M268.423 238.611 C 267.422 239.139,266.161 239.882,265.620 240.262 C 265.080 240.641,263.656 241.319,262.457 241.768 C 261.257 242.217,259.821 242.821,259.265 243.111 C 258.709 243.401,257.998 243.641,257.685 243.645 C 257.372 243.648,256.176 244.109,255.028 244.669 C 253.880 245.230,251.660 245.982,250.095 246.342 C 245.397 247.420,241.424 248.492,239.730 249.139 C 238.850 249.475,237.108 249.986,235.859 250.275 C 234.609 250.564,232.476 251.163,231.120 251.606 C 229.763 252.048,227.030 252.895,225.047 253.488 C 223.065 254.081,219.991 255.002,218.216 255.535 C 216.442 256.067,214.137 256.752,213.093 257.057 C 212.049 257.362,210.683 257.792,210.057 258.013 C 208.097 258.705,202.203 260.426,199.431 261.116 C 197.970 261.480,195.920 262.124,194.877 262.546 C 193.833 262.969,191.698 263.776,190.133 264.341 C 180.212 267.922,173.740 271.587,175.551 272.601 C 175.982 272.842,184.607 272.880,199.969 272.709 C 213.031 272.564,234.354 272.435,247.353 272.423 C 269.634 272.403,271.007 272.363,271.349 271.724 C 271.621 271.216,271.874 249.552,271.735 238.659 C 271.721 237.620,270.339 237.600,268.423 238.611 M165.979 285.778 C 156.502 287.685,153.310 299.087,160.693 304.660 C 163.901 307.081,162.067 307.007,218.975 307.013 C 279.517 307.019,276.556 307.191,279.981 303.475 C 284.524 298.546,282.749 290.089,276.504 286.909 L 273.891 285.579 220.722 285.520 C 191.478 285.488,166.844 285.604,165.979 285.778 " stroke="none" fill="#fafafa" fill-rule="evenodd"></path><path id="path2" d="M169.005 85.909 C 168.343 86.215,167.615 86.815,167.387 87.241 C 166.911 88.129,166.852 116.906,167.322 118.675 C 167.687 120.050,170.309 120.396,171.884 119.277 C 173.877 117.862,183.434 113.472,184.523 113.472 C 184.811 113.472,185.210 113.323,185.408 113.141 C 186.278 112.341,200.882 107.476,210.057 104.928 C 216.033 103.269,218.912 102.432,219.924 102.060 C 220.550 101.829,224.137 100.711,227.894 99.576 C 231.651 98.440,235.579 97.197,236.622 96.814 C 237.666 96.431,239.126 96.007,239.867 95.873 C 240.609 95.739,243.426 94.761,246.129 93.699 C 253.734 90.710,255.828 89.925,257.825 89.314 C 263.544 87.563,262.290 85.980,255.104 85.882 C 219.223 85.389,170.097 85.405,169.005 85.909 M266.983 191.920 C 263.513 194.021,251.982 198.392,247.628 199.255 C 246.376 199.504,244.924 199.922,244.402 200.184 C 243.880 200.446,242.429 200.930,241.176 201.260 C 237.466 202.239,226.809 205.350,219.165 207.686 C 217.495 208.196,214.763 209.004,213.093 209.481 C 207.728 211.014,198.014 214.087,194.497 215.363 C 192.619 216.045,190.195 216.881,189.111 217.221 C 180.760 219.837,170.132 226.407,168.226 230.130 L 167.234 232.068 167.252 245.891 C 167.273 262.923,166.886 262.177,173.814 258.528 C 179.251 255.665,189.168 251.676,195.256 249.904 C 196.926 249.418,199.061 248.765,200.000 248.453 C 201.880 247.828,207.419 246.147,212.713 244.593 C 220.554 242.292,237.766 236.854,244.782 234.460 C 247.808 233.428,251.210 232.326,252.340 232.013 C 253.470 231.699,256.117 230.668,258.222 229.721 C 260.327 228.774,262.647 227.773,263.378 227.497 C 268.277 225.642,270.816 223.757,271.896 221.170 C 272.668 219.323,272.790 191.728,272.030 190.968 C 271.215 190.152,269.308 190.512,266.983 191.920 " stroke="none" fill="#d95654" fill-rule="evenodd"></path><path id="path3" d="M89.996 38.983 C 88.639 39.240,85.855 42.221,85.585 43.705 C 85.458 44.401,85.405 53.268,85.466 63.407 L 85.579 81.843 86.642 83.237 C 88.433 85.585,90.983 86.362,93.619 85.364 C 96.631 84.223,97.685 81.504,97.707 74.825 C 97.730 67.987,94.983 68.691,121.640 68.691 L 143.766 68.691 144.768 69.883 C 145.320 70.538,146.274 72.182,146.888 73.536 C 147.769 75.481,148.761 76.731,151.611 79.495 C 154.533 82.328,155.219 83.202,155.221 84.096 C 155.368 139.129,155.119 275.756,154.870 276.216 C 154.682 276.565,153.429 277.789,152.086 278.937 C 149.354 281.273,147.823 283.277,146.002 286.900 C 144.167 290.551,145.909 290.311,121.200 290.317 C 95.142 290.324,97.962 291.101,97.800 283.871 C 97.600 274.973,94.067 271.094,88.691 273.872 C 85.389 275.579,85.402 275.487,85.382 296.727 C 85.363 316.715,85.304 316.090,87.400 318.304 C 92.593 323.791,98.317 318.243,97.810 308.215 C 97.508 302.245,94.870 302.846,121.376 302.846 L 143.701 302.846 144.468 303.700 C 144.890 304.170,145.745 305.664,146.368 307.021 C 148.715 312.130,153.768 316.724,159.616 319.064 L 162.239 320.114 216.509 320.304 C 282.381 320.534,279.281 320.734,285.990 315.820 C 298.938 306.335,299.712 289.404,287.694 278.532 L 284.996 276.091 285.000 179.601 C 285.004 82.377,285.013 81.594,286.209 81.594 C 286.350 81.594,287.377 80.762,288.489 79.744 C 302.752 66.702,296.179 43.817,276.861 39.261 C 274.104 38.610,166.971 38.436,163.066 39.076 C 156.524 40.147,149.264 45.864,146.290 52.284 C 144.297 56.587,147.001 56.167,121.272 56.167 C 94.754 56.167,97.734 56.954,97.696 49.941 C 97.659 43.083,96.805 40.919,93.548 39.423 C 92.018 38.721,91.631 38.673,89.996 38.983 M274.488 39.651 C 284.088 40.956,291.864 47.221,294.045 55.408 C 295.560 61.098,295.718 62.417,295.254 65.479 C 294.352 71.431,291.279 76.720,286.567 80.431 C 283.625 82.748,283.871 73.742,283.871 179.297 C 283.871 286.278,283.572 276.295,286.852 278.712 C 293.672 283.739,296.786 292.804,294.691 301.535 C 292.451 310.869,286.953 316.380,277.502 318.765 L 272.840 319.942 218.868 319.836 L 164.896 319.730 161.868 318.872 C 155.172 316.973,149.694 312.428,146.900 306.452 C 144.749 301.850,147.300 302.294,122.238 302.164 C 110.216 302.102,99.867 302.147,99.241 302.264 C 96.975 302.689,96.980 302.676,96.774 309.446 C 96.564 316.356,96.390 316.889,93.742 318.691 C 90.326 321.016,86.437 317.971,85.974 312.609 C 85.327 305.124,86.011 278.299,86.885 276.885 C 88.631 274.061,91.106 273.259,93.936 274.602 C 96.068 275.614,96.544 277.162,96.768 283.810 C 97.043 291.991,93.981 291.082,121.243 291.082 C 147.157 291.082,144.789 291.454,146.894 287.044 C 148.689 283.283,149.968 281.602,152.749 279.346 C 154.145 278.215,155.442 276.880,155.632 276.380 C 155.836 275.844,155.977 236.032,155.977 179.049 L 155.977 82.625 154.359 81.066 C 153.468 80.208,152.207 79.064,151.555 78.524 C 149.996 77.230,147.854 74.186,147.201 72.334 C 146.914 71.520,146.082 70.187,145.351 69.373 L 144.023 67.891 122.355 67.691 C 94.531 67.435,96.774 66.802,96.774 74.910 C 96.774 81.922,95.712 84.230,92.212 84.821 C 90.142 85.171,88.121 84.139,87.006 82.163 L 86.149 80.645 86.243 61.970 L 86.338 43.296 88.030 41.572 C 90.011 39.553,91.778 39.278,93.987 40.644 C 96.241 42.037,96.560 43.112,96.709 49.812 C 96.886 57.830,93.807 56.926,120.939 56.926 C 146.787 56.926,144.747 57.223,146.719 53.174 C 149.786 46.878,154.057 42.994,160.421 40.717 L 163.378 39.658 217.457 39.469 C 247.201 39.364,271.793 39.307,272.106 39.342 C 272.419 39.377,273.491 39.516,274.488 39.651 M165.814 50.459 C 152.903 52.789,152.124 71.212,164.819 73.985 C 167.335 74.535,271.132 74.538,274.104 73.988 C 286.251 71.743,287.577 55.020,275.901 51.314 C 273.263 50.477,170.154 49.676,165.814 50.459 M274.981 52.000 C 284.458 54.423,286.081 67.542,277.443 71.901 C 273.881 73.698,274.672 73.676,218.406 73.552 L 165.275 73.435 163.188 72.452 C 152.438 67.389,154.474 54.159,166.414 51.491 C 169.520 50.797,272.158 51.278,274.981 52.000 M268.783 96.980 C 266.625 98.492,256.693 102.846,255.404 102.846 C 255.183 102.846,254.192 103.257,253.201 103.759 C 252.210 104.262,250.551 104.799,249.514 104.954 C 248.477 105.108,246.938 105.530,246.095 105.891 C 245.252 106.251,243.971 106.662,243.249 106.804 C 241.901 107.069,236.545 108.636,231.499 110.244 C 229.934 110.742,228.055 111.261,227.324 111.397 C 226.594 111.533,224.886 112.032,223.529 112.507 C 222.173 112.981,220.380 113.492,219.545 113.642 C 218.710 113.792,217.514 114.148,216.888 114.433 C 216.262 114.717,214.383 115.288,212.713 115.701 C 209.724 116.440,208.682 116.756,203.036 118.642 C 201.471 119.165,199.421 119.823,198.482 120.103 C 193.327 121.643,184.930 124.800,183.623 125.690 C 183.069 126.067,182.479 126.376,182.313 126.376 C 179.546 126.376,169.510 133.288,168.027 136.216 L 166.983 138.277 166.983 152.219 C 166.983 169.171,166.865 168.792,171.386 166.363 C 178.068 162.773,179.738 162.021,185.579 159.975 C 186.935 159.500,188.643 158.848,189.374 158.526 C 191.102 157.765,194.868 156.503,198.672 155.409 C 200.342 154.929,202.476 154.277,203.416 153.960 C 206.134 153.045,210.816 151.598,215.939 150.091 C 218.548 149.323,222.162 148.199,223.970 147.592 C 225.777 146.986,227.545 146.490,227.897 146.490 C 228.250 146.490,229.076 146.240,229.734 145.936 C 230.392 145.631,232.125 145.044,233.586 144.632 C 235.047 144.219,237.268 143.544,238.520 143.132 C 239.772 142.720,244.213 141.269,248.387 139.907 C 255.249 137.669,257.502 136.800,262.998 134.273 C 268.933 131.545,270.883 130.220,272.019 128.144 C 272.824 126.674,273.254 98.588,272.493 97.167 C 271.987 96.221,270.009 96.121,268.783 96.980 M271.557 97.566 C 271.933 98.175,271.772 126.586,271.387 127.598 C 270.815 129.098,268.976 130.593,266.034 131.949 C 264.469 132.671,262.334 133.659,261.290 134.144 C 260.247 134.630,258.966 135.149,258.444 135.299 C 257.922 135.448,256.983 135.878,256.357 136.254 C 255.731 136.630,254.535 137.053,253.700 137.194 C 252.865 137.335,251.328 137.834,250.285 138.303 C 249.241 138.773,246.679 139.689,244.592 140.340 C 239.216 142.015,237.688 142.502,235.104 143.361 C 233.852 143.778,231.034 144.664,228.843 145.330 C 226.651 145.996,224.089 146.809,223.150 147.137 C 222.211 147.465,220.332 148.031,218.975 148.395 C 217.619 148.759,215.313 149.431,213.852 149.889 C 212.391 150.347,209.488 151.242,207.400 151.879 C 205.313 152.515,202.633 153.362,201.445 153.760 C 200.257 154.158,198.122 154.809,196.701 155.207 C 195.280 155.604,192.666 156.466,190.892 157.122 C 189.118 157.778,186.556 158.716,185.199 159.205 C 181.282 160.619,177.707 162.195,173.681 164.284 C 167.359 167.564,167.742 168.347,167.742 152.117 C 167.742 134.095,167.504 134.554,180.076 128.292 C 187.138 124.775,188.611 124.153,192.789 122.929 C 194.146 122.532,195.769 121.966,196.395 121.673 C 197.504 121.153,202.372 119.594,210.057 117.298 C 212.144 116.674,215.560 115.643,217.647 115.006 C 219.734 114.369,221.671 113.849,221.950 113.850 C 222.408 113.852,225.689 112.845,232.068 110.745 C 233.321 110.333,235.485 109.764,236.879 109.481 C 238.272 109.199,239.894 108.720,240.484 108.417 C 241.074 108.114,242.554 107.661,243.774 107.409 C 244.994 107.158,246.531 106.728,247.190 106.453 C 247.848 106.179,249.241 105.833,250.285 105.685 C 251.328 105.536,252.953 105.035,253.895 104.571 C 254.837 104.107,256.756 103.345,258.160 102.878 C 259.564 102.410,260.810 101.871,260.929 101.678 C 261.048 101.486,261.520 101.325,261.977 101.322 C 262.434 101.319,263.491 100.896,264.326 100.384 C 265.161 99.872,266.551 99.120,267.415 98.714 C 268.280 98.308,269.101 97.791,269.241 97.565 C 269.570 97.032,271.227 97.032,271.557 97.566 M267.156 145.898 C 263.791 148.021,261.763 149.041,259.956 149.521 C 259.020 149.769,257.230 150.449,255.977 151.033 C 251.647 153.050,251.034 153.253,248.709 153.437 C 247.425 153.538,244.778 154.138,242.827 154.768 C 239.822 155.740,230.637 158.383,225.237 159.830 C 224.402 160.053,222.587 160.633,221.203 161.118 C 219.819 161.603,217.599 162.197,216.270 162.438 C 214.940 162.679,213.169 163.183,212.334 163.558 C 211.499 163.933,210.218 164.356,209.488 164.498 C 208.757 164.639,206.964 165.152,205.503 165.638 C 204.042 166.123,201.992 166.695,200.949 166.909 C 199.905 167.123,197.343 167.906,195.256 168.649 C 193.169 169.393,190.480 170.266,189.280 170.589 C 188.081 170.913,185.594 171.996,183.754 172.995 C 181.914 173.995,179.736 175.087,178.914 175.421 C 173.557 177.603,168.847 182.114,168.173 185.711 C 167.751 187.961,167.828 211.362,168.259 212.060 C 168.761 212.871,170.782 212.563,173.573 211.249 C 179.972 208.236,182.583 207.164,186.966 205.751 C 188.250 205.337,189.702 204.738,190.192 204.420 C 190.681 204.103,192.277 203.503,193.738 203.088 C 196.110 202.414,199.350 201.332,204.554 199.479 C 205.493 199.144,208.055 198.340,210.247 197.692 C 212.438 197.044,215.000 196.260,215.939 195.950 C 216.879 195.640,219.269 194.899,221.252 194.305 C 228.475 192.139,229.812 191.720,230.930 191.271 C 231.556 191.020,233.264 190.478,234.725 190.066 C 236.186 189.655,237.914 188.990,238.565 188.587 C 239.215 188.185,240.203 187.856,240.759 187.856 C 241.315 187.856,243.088 187.358,244.699 186.750 C 246.310 186.142,248.055 185.527,248.577 185.382 C 249.099 185.238,250.209 184.730,251.044 184.252 C 251.879 183.774,253.757 183.088,255.218 182.728 C 256.679 182.368,258.131 181.869,258.444 181.619 C 258.757 181.369,260.721 180.500,262.808 179.686 C 271.958 176.120,271.512 177.121,271.649 159.832 C 271.784 142.884,271.809 142.963,267.156 145.898 M266.983 238.601 C 264.052 240.281,261.785 241.249,256.541 243.058 C 255.181 243.527,253.559 244.171,252.936 244.490 C 252.313 244.808,250.863 245.266,249.715 245.507 C 248.567 245.749,246.603 246.265,245.351 246.655 C 244.099 247.044,241.195 247.904,238.899 248.565 C 234.426 249.853,230.427 251.035,224.668 252.771 C 222.685 253.369,219.269 254.394,217.078 255.049 C 214.886 255.704,211.471 256.734,209.488 257.340 C 207.505 257.945,204.089 258.959,201.898 259.594 C 199.706 260.229,197.144 261.015,196.205 261.340 C 195.266 261.665,193.729 262.184,192.789 262.493 C 191.850 262.802,190.142 263.461,188.994 263.958 C 187.846 264.454,186.480 264.974,185.958 265.112 C 182.078 266.144,173.435 271.334,173.435 272.632 C 173.435 273.654,173.886 273.668,204.837 273.616 C 261.170 273.523,271.010 273.372,271.782 272.593 C 272.645 271.720,272.950 238.398,272.104 237.379 C 271.353 236.474,270.223 236.744,266.983 238.601 M271.735 238.659 C 271.874 249.552,271.621 271.216,271.349 271.724 C 271.007 272.363,269.634 272.403,247.353 272.423 C 234.354 272.435,213.031 272.564,199.969 272.709 C 184.607 272.880,175.982 272.842,175.551 272.601 C 173.740 271.587,180.212 267.922,190.133 264.341 C 191.698 263.776,193.833 262.969,194.877 262.546 C 195.920 262.124,197.970 261.480,199.431 261.116 C 202.203 260.426,208.097 258.705,210.057 258.013 C 210.683 257.792,212.049 257.362,213.093 257.057 C 214.137 256.752,216.442 256.067,218.216 255.535 C 219.991 255.002,223.065 254.081,225.047 253.488 C 227.030 252.895,229.763 252.048,231.120 251.606 C 232.476 251.163,234.609 250.564,235.859 250.275 C 237.108 249.986,238.850 249.475,239.730 249.139 C 241.424 248.492,245.397 247.420,250.095 246.342 C 251.660 245.982,253.880 245.230,255.028 244.669 C 256.176 244.109,257.372 243.648,257.685 243.645 C 257.998 243.641,258.709 243.401,259.265 243.111 C 259.821 242.821,261.257 242.217,262.457 241.768 C 263.656 241.319,265.080 240.641,265.620 240.262 C 268.962 237.916,271.716 237.194,271.735 238.659 M166.224 285.032 C 154.181 286.071,151.905 301.974,163.063 307.124 L 164.896 307.970 218.596 308.080 L 272.296 308.189 275.332 307.339 C 285.346 304.532,286.739 292.266,277.703 286.465 L 275.730 285.199 256.556 285.105 C 208.843 284.870,168.483 284.838,166.224 285.032 M276.504 286.909 C 282.749 290.089,284.524 298.546,279.981 303.475 C 276.556 307.191,279.517 307.019,218.975 307.013 C 162.067 307.007,163.901 307.081,160.693 304.660 C 153.310 299.087,156.502 287.685,165.979 285.778 C 166.844 285.604,191.478 285.488,220.722 285.520 L 273.891 285.579 276.504 286.909 " stroke="none" fill="#64afed" fill-rule="evenodd"></path></g></svg>