<svg id="svg" version="1.1" xmlns="http://www.w3.org/2000/svg" xmlns:xlink="http://www.w3.org/1999/xlink" width="400" height="400" viewBox="0, 0, 400,400"><g id="svgg"><path id="path0" d="M185.200 17.210 C 183.770 17.388,180.800 17.708,178.600 17.922 C 174.984 18.274,171.333 18.865,162.400 20.543 C 158.225 21.327,154.376 22.375,141.600 26.204 C 138.554 27.117,129.259 30.759,126.775 32.012 C 125.482 32.666,124.082 33.200,123.665 33.200 C 123.249 33.200,122.479 33.529,121.954 33.931 C 121.429 34.333,118.840 35.706,116.200 36.983 C 113.560 38.260,110.950 39.620,110.400 40.006 C 109.850 40.392,108.500 41.207,107.400 41.817 C 106.300 42.428,104.710 43.394,103.867 43.964 C 102.361 44.981,99.586 46.733,97.338 48.084 C 85.922 54.945,65.145 74.275,55.797 86.730 C 55.356 87.319,54.186 88.853,53.197 90.139 C 52.209 91.426,51.040 93.050,50.600 93.749 C 50.160 94.448,49.056 96.006,48.147 97.210 C 47.237 98.415,46.176 100.026,45.789 100.791 C 45.402 101.556,44.329 103.356,43.405 104.791 C 40.323 109.579,37.733 114.160,35.713 118.400 C 31.396 127.458,30.843 128.663,30.291 130.204 C 29.976 131.082,28.968 133.814,28.050 136.276 C 26.561 140.268,24.707 145.962,22.993 151.800 C 22.146 154.686,20.513 161.773,19.998 164.800 C 19.754 166.230,19.326 168.391,19.045 169.603 C 18.131 173.556,18.539 173.628,24.348 170.537 C 26.686 169.292,30.040 167.515,31.800 166.587 C 33.560 165.659,36.260 164.222,37.800 163.394 C 39.340 162.566,42.760 160.767,45.400 159.396 C 48.040 158.025,50.920 156.496,51.800 155.999 C 52.680 155.502,55.290 154.106,57.600 152.897 C 59.910 151.689,62.520 150.294,63.400 149.798 C 64.280 149.302,66.980 147.858,69.400 146.588 C 71.820 145.319,74.970 143.653,76.400 142.887 C 77.830 142.120,80.260 140.824,81.800 140.007 C 83.340 139.190,85.590 137.981,86.800 137.321 C 92.430 134.252,95.474 132.641,108.000 126.106 C 110.530 124.787,113.320 123.300,114.200 122.804 C 115.859 121.868,121.198 119.018,126.400 116.293 C 128.050 115.428,130.300 114.223,131.400 113.614 C 133.951 112.202,138.900 109.579,145.000 106.407 C 150.470 103.561,157.266 99.929,162.400 97.106 C 163.390 96.562,166.270 95.026,168.800 93.693 C 171.330 92.360,174.210 90.821,175.200 90.273 C 176.190 89.725,179.250 88.119,182.000 86.703 C 187.586 83.827,193.382 80.757,195.800 79.393 C 196.680 78.897,199.740 77.275,202.600 75.790 C 205.460 74.304,207.980 72.959,208.200 72.801 C 208.420 72.644,210.400 71.562,212.600 70.397 C 214.800 69.233,217.689 67.699,219.020 66.989 C 220.352 66.278,224.312 64.210,227.820 62.393 C 231.329 60.576,234.380 58.953,234.600 58.788 C 234.820 58.622,236.710 57.596,238.800 56.508 C 244.454 53.565,249.994 50.617,251.800 49.590 C 252.680 49.089,255.740 47.462,258.600 45.973 C 261.460 44.484,264.790 42.710,266.000 42.030 C 267.210 41.351,269.280 40.258,270.600 39.601 C 278.883 35.481,279.598 34.863,277.316 33.800 C 276.482 33.412,275.080 32.746,274.200 32.320 C 271.407 30.966,263.985 28.130,258.400 26.281 C 248.489 23.000,244.491 21.923,237.400 20.621 C 235.420 20.257,233.080 19.803,232.200 19.612 C 230.142 19.164,223.657 18.178,218.800 17.573 C 214.327 17.017,188.966 16.743,185.200 17.210 M364.691 275.600 C 364.131 276.040,363.424 276.400,363.118 276.400 C 362.813 276.400,361.581 277.025,360.381 277.790 C 359.182 278.554,358.059 279.184,357.887 279.190 C 357.715 279.195,354.025 281.103,349.687 283.429 C 345.349 285.754,340.900 288.126,339.800 288.700 C 338.700 289.273,337.170 290.095,336.400 290.526 C 335.630 290.957,333.110 292.298,330.800 293.507 C 328.490 294.715,326.060 296.022,325.400 296.410 C 324.740 296.798,322.040 298.237,319.400 299.608 C 316.760 300.978,312.530 303.223,310.000 304.596 C 307.470 305.969,302.717 308.489,299.439 310.194 C 296.160 311.900,291.574 314.354,289.248 315.648 C 286.922 316.942,284.848 318.000,284.641 318.000 C 284.433 318.000,283.979 318.248,283.631 318.552 C 283.284 318.855,280.120 320.591,276.600 322.411 C 273.080 324.230,269.750 325.969,269.200 326.277 C 268.650 326.584,266.400 327.785,264.200 328.945 C 262.000 330.105,259.030 331.694,257.600 332.476 C 253.684 334.617,247.404 337.958,243.690 339.877 C 241.869 340.818,239.439 342.109,238.290 342.747 C 237.140 343.384,233.500 345.298,230.200 347.000 C 226.900 348.702,224.020 350.231,223.800 350.398 C 223.580 350.564,221.690 351.600,219.600 352.700 C 210.191 357.650,205.707 360.034,201.000 362.587 C 199.900 363.184,196.570 364.938,193.600 366.487 C 188.160 369.322,185.508 370.737,180.000 373.739 C 178.350 374.639,175.200 376.314,173.000 377.462 C 167.864 380.143,167.677 380.863,172.000 381.310 C 173.650 381.481,175.810 381.794,176.800 382.007 C 185.366 383.846,214.256 383.740,225.200 381.829 C 227.070 381.503,229.590 381.134,230.800 381.010 C 233.179 380.767,242.675 378.712,245.600 377.808 C 246.590 377.502,248.030 377.140,248.800 377.004 C 249.570 376.868,250.830 376.514,251.600 376.216 C 252.370 375.919,254.080 375.374,255.400 375.005 C 256.720 374.636,260.078 373.449,262.863 372.367 C 265.647 371.285,268.069 370.400,268.245 370.400 C 268.688 370.400,273.950 368.015,280.600 364.799 C 283.680 363.310,286.388 362.026,286.618 361.946 C 287.650 361.586,298.800 354.660,298.800 354.379 C 298.800 354.205,299.295 353.943,299.900 353.795 C 300.944 353.541,301.871 352.922,308.282 348.200 C 315.918 342.576,328.256 331.954,329.375 330.041 C 329.581 329.688,330.211 329.049,330.775 328.620 C 332.228 327.514,337.102 322.465,338.324 320.800 C 338.889 320.030,339.929 318.770,340.635 318.000 C 341.341 317.230,342.873 315.340,344.039 313.800 C 345.205 312.260,347.817 308.806,349.844 306.125 C 351.872 303.444,353.657 300.834,353.811 300.325 C 353.966 299.816,354.409 299.040,354.796 298.600 C 355.799 297.461,360.134 290.159,361.725 286.930 C 362.465 285.428,363.461 283.480,363.938 282.600 C 367.638 275.775,367.931 273.052,364.691 275.600 " stroke="none" fill="#fa8889" fill-rule="evenodd"></path><path id="path1" d="M346.600 95.054 C 345.720 95.563,343.875 96.524,342.500 97.190 C 341.125 97.855,340.000 98.559,340.000 98.755 C 340.000 98.951,339.377 99.228,338.616 99.371 C 337.854 99.514,336.720 100.141,336.096 100.766 C 335.471 101.390,334.397 102.025,333.708 102.176 C 333.019 102.328,332.241 102.710,331.979 103.026 C 331.717 103.342,331.289 103.600,331.028 103.600 C 330.201 103.600,321.040 108.493,320.045 109.466 C 319.520 109.980,318.710 110.401,318.245 110.403 C 317.780 110.404,316.860 110.768,316.200 111.211 C 315.540 111.655,313.560 112.742,311.800 113.628 C 310.040 114.513,306.800 116.209,304.600 117.397 C 302.400 118.585,300.119 119.759,299.532 120.006 C 298.945 120.253,298.365 120.713,298.245 121.028 C 298.124 121.343,297.742 121.600,297.395 121.600 C 296.734 121.600,291.830 124.118,290.800 124.987 C 290.470 125.265,289.660 125.621,289.000 125.777 C 288.340 125.934,287.530 126.295,287.200 126.579 C 286.870 126.863,284.710 128.050,282.400 129.217 C 280.090 130.385,275.140 132.995,271.400 135.017 C 264.631 138.679,260.862 140.678,250.200 146.264 C 247.120 147.878,244.330 149.375,244.000 149.590 C 243.670 149.805,242.590 150.403,241.600 150.918 C 240.610 151.434,238.090 152.763,236.000 153.873 C 228.496 157.859,226.117 159.118,220.600 162.024 C 217.520 163.647,214.100 165.466,213.000 166.066 C 211.900 166.667,209.020 168.180,206.600 169.429 C 204.180 170.677,201.458 172.195,200.551 172.801 C 199.644 173.408,198.250 174.119,197.454 174.382 C 196.658 174.645,195.870 175.072,195.703 175.331 C 195.396 175.807,194.768 176.134,191.700 177.413 C 190.765 177.803,190.000 178.274,190.000 178.461 C 190.000 178.647,189.730 178.800,189.400 178.800 C 189.070 178.800,188.800 178.977,188.800 179.192 C 188.800 179.408,188.305 179.707,187.700 179.857 C 187.095 180.006,185.700 180.612,184.600 181.204 C 183.500 181.795,180.800 183.228,178.600 184.388 C 176.400 185.547,174.330 186.723,174.000 187.001 C 173.670 187.278,172.950 187.641,172.400 187.806 C 171.850 187.972,170.661 188.636,169.757 189.281 C 168.853 189.926,167.863 190.492,167.557 190.539 C 166.637 190.680,154.882 196.732,153.756 197.646 C 153.511 197.844,151.887 198.702,150.147 199.552 C 148.406 200.403,146.739 201.391,146.442 201.749 C 146.145 202.107,145.646 202.400,145.332 202.400 C 144.676 202.400,135.715 207.022,134.769 207.849 C 134.421 208.152,133.847 208.400,133.492 208.400 C 133.137 208.400,132.734 208.583,132.596 208.806 C 132.458 209.029,131.732 209.468,130.982 209.782 C 130.232 210.095,129.242 210.702,128.782 211.131 C 128.321 211.560,127.462 212.009,126.872 212.128 C 126.283 212.247,125.391 212.729,124.890 213.197 C 124.390 213.666,123.667 214.110,123.285 214.184 C 122.903 214.257,121.692 214.769,120.595 215.321 C 119.498 215.873,117.430 216.901,116.000 217.607 C 114.570 218.312,113.310 219.004,113.200 219.145 C 112.904 219.522,111.015 220.546,107.217 222.386 C 105.357 223.288,103.557 224.268,103.217 224.565 C 102.878 224.862,102.168 225.237,101.639 225.399 C 101.111 225.560,99.761 226.240,98.639 226.908 C 97.518 227.577,94.620 229.152,92.200 230.410 C 79.948 236.775,72.291 240.836,71.769 241.245 C 71.532 241.431,69.822 242.362,67.969 243.313 C 66.116 244.264,63.839 245.527,62.908 246.121 C 61.977 246.714,60.967 247.200,60.664 247.200 C 60.360 247.200,59.502 247.605,58.756 248.101 C 58.010 248.596,56.320 249.537,55.000 250.191 C 53.680 250.845,52.420 251.517,52.200 251.685 C 51.980 251.853,49.460 253.178,46.600 254.630 C 43.740 256.081,41.205 257.431,40.966 257.628 C 40.727 257.826,38.882 258.808,36.866 259.810 C 34.850 260.812,33.200 261.783,33.200 261.967 C 33.200 262.152,32.615 262.534,31.900 262.817 C 29.984 263.576,29.200 264.389,29.200 265.621 C 29.200 267.976,36.441 283.550,41.610 292.312 C 42.815 294.353,44.053 296.513,44.362 297.112 C 44.671 297.710,45.048 298.290,45.200 298.400 C 45.352 298.510,46.580 300.310,47.929 302.400 C 51.308 307.636,57.524 315.754,61.712 320.400 C 72.670 332.559,75.241 334.562,77.100 332.392 C 77.473 331.956,78.053 331.600,78.389 331.600 C 79.248 331.600,85.200 328.433,85.200 327.976 C 85.200 327.769,85.479 327.600,85.821 327.600 C 86.484 327.600,94.596 323.456,95.600 322.604 C 95.930 322.324,96.650 321.961,97.200 321.797 C 97.750 321.634,99.245 320.892,100.521 320.150 C 101.798 319.407,102.906 318.800,102.983 318.800 C 103.060 318.800,104.265 318.145,105.662 317.344 C 107.058 316.544,109.910 315.009,112.000 313.933 C 119.232 310.211,121.002 309.263,121.431 308.881 C 121.668 308.670,122.295 308.360,122.825 308.192 C 123.355 308.024,124.421 307.393,125.194 306.790 C 125.967 306.187,127.139 305.568,127.798 305.415 C 128.457 305.261,129.177 304.988,129.398 304.807 C 129.619 304.626,131.330 303.683,133.200 302.711 C 143.372 297.423,147.022 295.491,149.860 293.894 C 151.587 292.923,154.027 291.632,155.283 291.025 C 156.539 290.419,157.776 289.670,158.032 289.361 C 158.288 289.053,158.707 288.800,158.962 288.800 C 159.217 288.800,160.590 288.164,162.013 287.387 C 166.561 284.902,166.716 284.820,171.987 282.115 C 174.290 280.933,176.464 279.704,176.819 279.383 C 177.173 279.062,177.758 278.800,178.118 278.800 C 178.478 278.800,179.387 278.260,180.139 277.600 C 180.891 276.940,181.806 276.400,182.173 276.400 C 183.062 276.400,185.200 275.276,185.200 274.808 C 185.200 274.455,186.141 273.968,189.500 272.581 C 190.325 272.240,191.354 271.764,191.787 271.523 C 192.220 271.282,194.470 270.092,196.787 268.879 C 199.104 267.666,201.270 266.462,201.600 266.203 C 201.930 265.944,202.830 265.494,203.600 265.203 C 204.370 264.913,205.410 264.255,205.912 263.742 C 206.413 263.229,207.313 262.702,207.912 262.571 C 208.510 262.440,209.180 262.262,209.400 262.175 C 210.469 261.752,221.426 255.879,221.600 255.635 C 221.855 255.279,225.465 253.600,225.976 253.600 C 226.187 253.600,226.504 253.365,226.680 253.078 C 226.856 252.792,227.720 252.234,228.600 251.839 C 231.972 250.326,240.047 246.077,240.799 245.420 C 241.130 245.131,241.789 244.776,242.264 244.632 C 242.739 244.487,243.346 244.106,243.613 243.785 C 243.880 243.463,244.423 243.200,244.820 243.200 C 245.218 243.200,245.781 242.975,246.071 242.700 C 246.362 242.425,247.635 241.707,248.900 241.104 C 250.165 240.502,251.200 239.827,251.200 239.604 C 251.200 239.382,251.515 239.199,251.900 239.198 C 252.285 239.196,253.140 238.906,253.800 238.552 C 254.460 238.199,256.982 236.877,259.406 235.614 C 266.372 231.986,270.120 229.947,271.200 229.200 C 271.750 228.820,273.910 227.672,276.000 226.650 C 278.090 225.628,280.970 224.141,282.400 223.346 C 283.830 222.551,287.700 220.506,291.000 218.801 C 294.300 217.096,298.080 215.106,299.400 214.379 C 300.720 213.652,303.420 212.213,305.400 211.180 C 307.380 210.147,309.720 208.886,310.600 208.378 C 311.480 207.870,313.280 206.925,314.600 206.277 C 315.920 205.629,317.270 204.873,317.600 204.597 C 317.930 204.321,318.650 203.959,319.200 203.793 C 319.750 203.626,320.920 203.004,321.800 202.409 C 322.680 201.814,324.390 200.853,325.600 200.273 C 327.821 199.209,333.121 196.417,339.000 193.215 C 340.760 192.256,343.415 190.853,344.900 190.097 C 346.385 189.340,347.600 188.559,347.600 188.361 C 347.600 188.162,348.024 188.000,348.542 188.000 C 349.059 188.000,349.969 187.550,350.562 187.000 C 351.156 186.450,351.902 186.000,352.221 186.000 C 352.539 186.000,352.800 185.832,352.800 185.627 C 352.800 185.422,353.205 185.140,353.700 185.002 C 354.765 184.703,356.517 183.896,356.800 183.573 C 356.910 183.448,357.720 183.053,358.600 182.696 C 359.480 182.339,362.000 181.054,364.200 179.841 C 366.400 178.628,369.055 177.244,370.100 176.765 C 371.145 176.285,372.000 175.742,372.000 175.557 C 372.000 175.086,374.197 174.000,375.149 174.000 C 375.583 174.000,376.447 173.577,377.069 173.061 C 377.691 172.544,378.736 171.869,379.391 171.560 C 381.053 170.776,381.539 169.200,380.676 167.390 C 380.304 166.611,380.000 165.483,380.000 164.885 C 380.000 164.287,379.640 162.539,379.200 161.000 C 378.760 159.461,378.400 157.538,378.400 156.725 C 378.400 155.912,378.234 155.145,378.031 155.019 C 377.828 154.894,377.543 154.208,377.399 153.495 C 376.815 150.620,374.471 142.890,373.002 139.000 C 372.420 137.460,371.590 135.156,371.156 133.881 C 370.723 132.605,369.835 130.513,369.184 129.231 C 368.533 127.950,368.001 126.743,368.003 126.551 C 368.007 126.111,360.230 110.627,359.189 109.000 C 358.766 108.340,357.876 106.810,357.210 105.600 C 356.544 104.390,355.661 102.950,355.248 102.400 C 354.835 101.850,353.627 100.050,352.564 98.400 C 349.732 94.006,349.060 93.630,346.600 95.054 " stroke="none" fill="#88d7fb" fill-rule="evenodd"></path><path id="path2" d="M-0.000 94.467 C -0.000 146.423,0.076 188.857,0.169 188.764 C 0.263 188.671,0.534 186.076,0.773 182.997 C 3.080 153.259,13.419 121.970,29.800 95.148 C 30.020 94.787,30.728 93.617,31.374 92.546 C 32.937 89.954,39.282 81.035,39.683 80.867 C 39.857 80.793,40.000 80.556,40.000 80.340 C 40.000 79.921,40.749 78.951,45.781 72.854 C 50.243 67.450,52.029 65.477,57.601 59.800 C 65.768 51.479,72.782 45.456,83.297 37.731 C 86.501 35.378,98.532 27.600,98.968 27.600 C 99.082 27.600,100.666 26.722,102.488 25.649 C 106.504 23.284,115.807 18.737,121.800 16.209 C 124.220 15.188,126.740 14.109,127.400 13.812 C 129.296 12.956,143.926 8.129,146.800 7.411 C 148.230 7.053,149.940 6.597,150.600 6.397 C 157.961 4.169,174.573 1.488,185.383 0.783 C 188.894 0.555,191.849 0.285,191.950 0.184 C 192.051 0.083,148.903 0.000,96.067 0.000 L 0.000 0.000 -0.000 94.467 M206.600 0.261 C 207.480 0.331,211.080 0.574,214.600 0.801 C 218.120 1.029,222.170 1.386,223.600 1.595 C 225.030 1.804,227.640 2.176,229.400 2.421 C 234.964 3.197,245.344 5.284,250.050 6.573 C 256.545 8.353,266.030 11.239,267.800 11.974 C 268.240 12.157,269.860 12.794,271.400 13.390 C 275.989 15.165,277.256 15.688,280.329 17.077 C 281.940 17.804,283.335 18.400,283.429 18.400 C 283.685 18.400,293.402 23.258,296.600 24.985 C 302.616 28.234,316.461 37.177,320.400 40.359 C 321.390 41.159,322.920 42.337,323.800 42.978 C 324.680 43.618,326.134 44.785,327.032 45.571 C 327.929 46.357,329.729 47.900,331.032 49.000 C 341.601 57.926,354.300 71.789,362.360 83.200 C 364.797 86.649,371.083 96.213,372.089 98.000 C 372.646 98.990,373.718 100.880,374.472 102.200 C 378.033 108.433,384.100 121.235,386.416 127.400 C 386.912 128.720,387.547 130.340,387.827 131.000 C 388.882 133.480,392.760 145.744,393.330 148.400 C 393.448 148.950,393.746 150.120,393.993 151.000 C 396.436 159.710,398.536 172.625,399.749 186.400 C 399.817 187.170,399.901 145.545,399.936 93.900 L 400.000 0.000 302.500 0.067 C 248.875 0.104,205.720 0.192,206.600 0.261 M279.780 35.547 C 279.571 35.738,277.420 36.932,275.000 38.201 C 272.580 39.470,269.700 40.997,268.600 41.594 C 267.500 42.191,265.430 43.314,264.000 44.089 C 262.570 44.864,259.870 46.270,258.000 47.213 C 256.130 48.156,253.250 49.682,251.600 50.603 C 249.950 51.524,246.350 53.451,243.600 54.884 C 238.725 57.424,234.877 59.468,229.607 62.315 C 228.180 63.086,225.480 64.523,223.607 65.510 C 218.262 68.323,213.552 70.830,211.715 71.841 C 210.789 72.350,207.549 74.061,204.515 75.643 C 201.482 77.225,198.190 78.968,197.200 79.517 C 194.400 81.070,188.294 84.351,181.400 88.005 C 177.482 90.083,175.062 91.358,167.000 95.593 C 164.800 96.749,161.830 98.327,160.400 99.099 C 158.970 99.871,156.270 101.314,154.400 102.305 C 152.530 103.295,150.190 104.561,149.200 105.117 C 148.210 105.673,145.690 107.018,143.600 108.105 C 138.059 110.986,131.694 114.343,129.400 115.593 C 126.218 117.327,121.739 119.717,117.143 122.131 C 114.802 123.361,112.102 124.799,111.143 125.326 C 108.204 126.941,103.630 129.376,98.600 132.004 C 95.960 133.383,92.900 135.001,91.800 135.599 C 90.700 136.198,87.820 137.727,85.400 138.997 C 82.980 140.268,79.830 141.937,78.400 142.706 C 76.970 143.475,74.540 144.777,73.000 145.600 C 71.460 146.423,69.030 147.725,67.600 148.493 C 66.170 149.261,62.846 151.019,60.213 152.401 C 57.580 153.782,54.790 155.270,54.013 155.707 C 53.236 156.144,50.170 157.761,47.200 159.299 C 44.230 160.838,41.260 162.414,40.600 162.802 C 39.940 163.189,37.780 164.358,35.800 165.399 C 33.820 166.441,30.670 168.120,28.800 169.132 C 26.930 170.144,23.780 171.809,21.800 172.832 L 18.200 174.693 17.489 180.847 C 16.965 185.380,16.764 190.423,16.723 200.000 C 16.659 215.096,17.139 220.672,19.652 234.000 C 20.839 240.296,23.258 250.414,24.004 252.200 C 24.187 252.640,25.102 255.385,26.037 258.300 C 26.971 261.215,27.892 263.600,28.084 263.600 C 28.407 263.600,35.837 259.801,40.000 257.508 C 43.370 255.651,47.791 253.302,53.000 250.600 C 58.868 247.556,64.597 244.496,70.800 241.093 C 73.094 239.834,77.275 237.643,84.400 233.967 C 86.710 232.775,88.690 231.710,88.800 231.600 C 88.910 231.490,90.890 230.422,93.200 229.227 C 95.510 228.031,97.940 226.739,98.600 226.355 C 99.260 225.970,101.510 224.763,103.600 223.673 C 105.690 222.582,108.300 221.203,109.400 220.608 C 110.500 220.014,113.650 218.353,116.400 216.918 C 119.150 215.483,121.940 213.989,122.600 213.599 C 123.260 213.208,125.330 212.088,127.200 211.109 C 129.070 210.131,131.320 208.917,132.200 208.412 C 133.080 207.908,136.770 205.957,140.400 204.077 C 148.767 199.744,150.404 198.882,153.600 197.126 C 157.918 194.755,161.125 193.049,167.000 189.997 C 170.080 188.397,172.780 186.953,173.000 186.787 C 173.220 186.622,175.920 185.191,179.000 183.608 C 182.080 182.025,184.780 180.587,185.000 180.413 C 185.220 180.238,187.560 178.968,190.200 177.591 C 192.840 176.213,196.080 174.509,197.400 173.804 C 198.720 173.099,201.420 171.661,203.400 170.608 C 205.380 169.555,207.810 168.246,208.800 167.697 C 209.790 167.149,212.400 165.756,214.600 164.601 C 216.800 163.445,220.580 161.457,223.000 160.183 C 225.420 158.908,228.120 157.514,229.000 157.083 C 229.880 156.653,231.770 155.631,233.200 154.813 C 235.772 153.341,239.292 151.468,249.400 146.193 C 252.260 144.701,254.780 143.351,255.000 143.193 C 255.220 143.035,257.560 141.777,260.200 140.397 C 262.840 139.018,265.900 137.395,267.000 136.791 C 269.734 135.289,273.376 133.347,278.600 130.603 C 284.307 127.606,288.008 125.644,295.600 121.589 C 299.010 119.768,303.060 117.611,304.600 116.796 C 310.320 113.770,317.158 110.128,322.500 107.263 C 331.423 102.477,338.362 98.793,343.800 95.956 C 348.692 93.404,349.219 92.912,348.276 91.769 C 347.927 91.346,346.148 89.095,344.321 86.767 C 338.557 79.418,337.168 77.861,330.000 70.712 C 315.365 56.114,300.377 45.148,283.657 36.805 C 280.041 35.000,280.290 35.081,279.780 35.547 M380.180 171.948 C 379.971 172.139,377.730 173.378,375.200 174.701 C 365.507 179.771,363.362 180.907,362.200 181.588 C 361.540 181.974,358.480 183.598,355.400 185.196 C 352.320 186.795,349.620 188.232,349.400 188.391 C 349.180 188.550,346.740 189.860,343.978 191.303 C 341.215 192.745,337.975 194.455,336.778 195.102 C 335.580 195.749,332.800 197.228,330.600 198.389 C 328.400 199.549,325.340 201.174,323.800 202.001 C 322.260 202.827,316.320 205.976,310.600 208.998 C 304.880 212.020,299.300 214.993,298.200 215.604 C 297.100 216.216,294.400 217.657,292.200 218.808 C 290.000 219.958,287.300 221.395,286.200 222.001 C 285.100 222.607,282.096 224.199,279.524 225.540 C 276.953 226.881,272.273 229.359,269.124 231.048 C 265.976 232.736,261.870 234.926,260.000 235.913 C 258.130 236.901,255.610 238.246,254.400 238.903 C 253.190 239.560,250.310 241.088,248.000 242.299 C 243.762 244.520,239.409 246.835,235.000 249.210 C 233.680 249.921,231.250 251.220,229.600 252.096 C 227.950 252.972,225.520 254.276,224.200 254.994 C 222.880 255.711,219.460 257.521,216.600 259.016 C 213.740 260.511,209.600 262.720,207.400 263.926 C 205.200 265.131,201.060 267.324,198.200 268.799 C 195.340 270.273,192.370 271.838,191.600 272.276 C 190.830 272.714,188.040 274.209,185.400 275.599 C 182.760 276.988,179.790 278.571,178.800 279.115 C 177.810 279.660,175.290 281.005,173.200 282.104 C 171.110 283.203,168.307 284.695,166.970 285.420 C 163.826 287.124,157.737 290.347,156.200 291.121 C 155.540 291.453,151.898 293.407,148.107 295.462 C 144.316 297.518,141.143 299.200,141.056 299.200 C 140.969 299.200,139.480 299.979,137.749 300.931 C 136.017 301.883,132.530 303.749,130.000 305.079 C 125.131 307.637,120.802 309.933,116.200 312.398 C 102.268 319.860,99.098 321.541,98.160 321.960 C 97.697 322.166,95.717 323.223,93.760 324.309 C 91.802 325.395,87.860 327.501,85.000 328.990 C 79.983 331.602,75.588 333.977,75.225 334.273 C 74.723 334.683,88.414 346.035,93.956 349.805 C 104.735 357.137,108.756 359.505,118.800 364.434 C 122.870 366.431,126.560 368.213,127.000 368.392 C 127.440 368.572,128.430 368.993,129.200 369.328 C 135.160 371.921,151.139 377.149,156.903 378.391 C 166.149 380.383,166.152 380.384,167.164 379.725 C 167.695 379.380,170.026 378.116,172.345 376.916 C 174.663 375.716,177.469 374.236,178.580 373.626 C 182.001 371.747,186.385 369.411,191.400 366.794 C 194.040 365.417,197.280 363.703,198.600 362.987 C 199.920 362.270,202.350 360.973,204.000 360.104 C 206.845 358.606,210.424 356.696,215.800 353.806 C 217.120 353.096,219.820 351.655,221.800 350.604 C 223.780 349.553,226.300 348.197,227.400 347.592 C 228.500 346.986,231.560 345.367,234.200 343.992 C 236.840 342.618,239.900 341.002,241.000 340.401 C 242.878 339.374,248.204 336.548,254.600 333.185 C 256.140 332.375,258.056 331.341,258.857 330.887 C 259.658 330.433,262.808 328.761,265.857 327.172 C 268.906 325.582,272.207 323.838,273.194 323.296 C 274.181 322.754,276.521 321.495,278.394 320.498 C 280.267 319.500,282.970 318.056,284.400 317.288 C 285.830 316.519,288.890 314.907,291.200 313.705 C 293.510 312.502,296.300 311.021,297.400 310.413 C 300.506 308.696,306.093 305.728,317.000 300.000 C 325.387 295.595,331.409 292.386,335.000 290.406 C 336.100 289.799,338.980 288.262,341.400 286.989 C 343.820 285.717,346.790 284.141,348.000 283.487 C 349.210 282.833,352.180 281.256,354.600 279.982 C 357.020 278.708,360.350 276.923,362.000 276.014 C 363.650 275.106,365.845 273.970,366.877 273.490 C 367.910 273.010,368.842 272.343,368.948 272.008 C 369.055 271.674,369.843 269.690,370.700 267.600 C 373.783 260.079,376.963 249.959,378.938 241.381 C 383.465 221.729,384.777 198.214,382.424 178.887 C 381.520 171.462,381.335 170.891,380.180 171.948 M0.000 305.733 L 0.000 400.000 95.500 399.954 L 191.000 399.908 183.200 399.162 C 173.484 398.233,170.304 397.835,166.000 397.012 C 164.130 396.654,161.790 396.212,160.800 396.030 C 136.842 391.626,108.024 379.571,87.665 365.438 C 86.050 364.317,84.340 363.139,83.865 362.821 C 71.926 354.825,54.610 338.473,44.028 325.202 C 39.175 319.115,29.600 305.465,29.600 304.632 C 29.600 304.475,29.150 303.757,28.600 303.036 C 28.050 302.314,27.600 301.621,27.600 301.495 C 27.600 301.369,26.805 299.922,25.834 298.279 C 22.571 292.760,16.775 280.573,14.002 273.400 C 13.066 270.980,12.072 268.460,11.793 267.800 C 11.514 267.140,10.882 265.250,10.389 263.600 C 9.897 261.950,9.350 260.240,9.175 259.800 C 8.864 259.016,8.135 256.584,7.257 253.400 C 7.015 252.520,6.464 250.540,6.033 249.000 C 5.602 247.460,5.078 245.300,4.867 244.200 C 4.657 243.100,4.102 240.220,3.635 237.800 C 1.936 229.001,1.409 225.256,0.767 217.400 C 0.515 214.320,0.240 211.725,0.155 211.633 C 0.070 211.542,0.000 253.887,0.000 305.733 M399.086 219.500 C 397.944 230.544,397.223 235.027,394.986 245.000 C 394.641 246.540,394.253 248.389,394.125 249.110 C 393.997 249.830,393.736 250.516,393.546 250.633 C 393.356 250.751,393.200 251.229,393.200 251.695 C 393.200 252.162,393.026 253.096,392.814 253.772 C 390.442 261.315,388.301 267.953,388.030 268.600 C 387.735 269.306,386.936 271.350,385.998 273.800 C 382.426 283.126,375.097 297.606,369.771 305.863 C 368.577 307.714,367.600 309.305,367.600 309.399 C 367.600 309.693,362.837 316.403,359.264 321.141 C 350.015 333.408,337.192 346.551,325.200 356.059 C 318.115 361.676,305.480 370.400,304.430 370.400 C 304.230 370.400,304.007 370.538,303.933 370.706 C 303.410 371.907,284.409 381.633,276.200 384.902 C 275.100 385.340,273.660 385.925,273.000 386.202 C 272.340 386.479,271.080 386.930,270.200 387.205 C 269.320 387.480,268.420 387.839,268.200 388.003 C 267.785 388.312,261.223 390.472,256.000 392.018 C 243.974 395.577,230.435 398.104,217.600 399.186 C 214.850 399.418,212.060 399.669,211.400 399.744 C 210.740 399.819,252.905 399.907,305.100 399.940 L 400.000 400.000 400.000 306.400 C 400.000 254.920,399.950 212.800,399.889 212.800 C 399.828 212.800,399.467 215.815,399.086 219.500 " stroke="none" fill="#fbfbfb" fill-rule="evenodd"></path><path id="path3" d="M187.540 0.994 C 187.411 1.122,185.167 1.396,182.553 1.603 C 177.724 1.985,170.390 2.887,166.400 3.591 C 165.190 3.804,163.480 4.086,162.600 4.217 C 161.720 4.348,160.730 4.566,160.400 4.702 C 160.070 4.837,158.630 5.172,157.200 5.446 C 155.770 5.719,153.880 6.119,153.000 6.334 C 148.603 7.410,144.516 8.501,143.800 8.790 C 143.360 8.968,141.380 9.603,139.400 10.200 C 137.420 10.797,135.487 11.446,135.105 11.643 C 134.723 11.839,134.084 12.000,133.685 12.000 C 133.286 12.000,132.789 12.151,132.580 12.335 C 132.371 12.519,130.580 13.266,128.600 13.995 C 126.620 14.723,124.100 15.723,123.000 16.216 C 121.900 16.708,120.010 17.530,118.800 18.041 C 116.551 18.991,104.925 24.823,102.400 26.267 C 101.630 26.708,100.190 27.519,99.200 28.071 C 94.921 30.454,79.365 40.868,78.400 41.995 C 78.290 42.124,76.760 43.383,75.000 44.793 C 65.236 52.616,55.902 61.678,48.005 71.000 C 47.073 72.100,45.926 73.453,45.455 74.006 C 44.985 74.559,44.070 75.729,43.421 76.606 C 42.773 77.483,42.131 78.290,41.995 78.400 C 40.391 79.700,28.841 97.264,25.556 103.400 C 23.669 106.925,19.066 116.144,18.267 118.000 C 17.935 118.770,17.009 120.930,16.208 122.800 C 15.407 124.670,14.597 126.560,14.408 127.000 C 14.219 127.440,13.585 129.150,13.000 130.800 C 12.415 132.450,11.790 134.160,11.611 134.600 C 11.432 135.040,10.795 137.020,10.194 139.000 C 9.593 140.980,8.959 142.960,8.784 143.400 C 8.410 144.343,6.886 149.908,6.374 152.200 C 6.178 153.080,5.734 155.060,5.388 156.600 C 4.649 159.894,4.035 162.925,3.769 164.600 C 3.664 165.260,3.395 166.700,3.172 167.800 C 2.766 169.798,2.235 173.985,1.575 180.400 C 0.502 190.826,0.493 211.306,1.557 220.400 C 1.750 222.050,2.110 225.200,2.357 227.400 C 2.603 229.600,2.905 231.760,3.026 232.200 C 3.147 232.640,3.404 233.990,3.597 235.200 C 3.791 236.410,4.123 238.120,4.336 239.000 C 4.549 239.880,4.923 241.680,5.167 243.000 C 5.411 244.320,5.784 246.030,5.996 246.800 C 6.208 247.570,6.850 249.910,7.422 252.000 C 8.719 256.743,11.151 264.606,11.813 266.200 C 12.087 266.860,12.441 267.850,12.600 268.400 C 12.759 268.950,13.112 269.940,13.384 270.600 C 13.656 271.260,14.736 273.870,15.782 276.400 C 23.797 295.772,35.968 315.503,48.967 330.200 C 50.135 331.520,51.603 333.230,52.230 334.000 C 55.677 338.235,67.316 349.268,74.000 354.636 C 80.372 359.753,92.983 368.800,93.744 368.800 C 93.938 368.800,96.247 370.242,97.420 371.094 C 97.652 371.262,98.192 371.596,98.620 371.836 C 99.049 372.076,100.300 372.777,101.400 373.394 C 104.951 375.386,116.135 381.029,118.400 381.972 C 119.610 382.476,121.500 383.291,122.600 383.784 C 125.590 385.122,132.807 387.761,138.000 389.414 C 140.530 390.219,142.913 391.040,143.295 391.239 C 143.677 391.437,144.307 391.604,144.695 391.610 C 145.083 391.615,146.480 391.985,147.800 392.432 C 150.539 393.359,150.837 393.428,161.600 395.631 C 166.967 396.730,173.788 397.744,180.800 398.485 C 186.997 399.140,214.434 399.144,220.000 398.491 C 228.008 397.551,235.373 396.431,239.000 395.600 C 240.100 395.349,242.260 394.897,243.800 394.597 C 247.672 393.844,253.911 392.222,254.252 391.882 C 254.407 391.727,254.956 391.600,255.472 391.600 C 255.988 391.600,256.723 391.429,257.105 391.220 C 257.487 391.011,259.330 390.371,261.200 389.799 C 264.469 388.798,269.329 387.109,271.000 386.393 C 271.440 386.205,272.250 385.924,272.800 385.770 C 273.677 385.525,274.909 385.002,280.200 382.628 C 283.156 381.302,294.830 375.506,297.000 374.288 C 298.320 373.547,300.284 372.446,301.365 371.842 C 302.446 371.237,304.676 369.856,306.321 368.772 C 307.965 367.687,309.391 366.800,309.488 366.800 C 309.800 366.800,325.438 355.460,326.000 354.826 C 326.227 354.569,331.482 350.004,333.600 348.222 C 336.932 345.420,351.558 330.303,352.812 328.366 C 352.928 328.186,353.679 327.265,354.480 326.319 C 355.280 325.374,356.723 323.610,357.686 322.400 C 359.770 319.780,368.000 308.112,368.000 307.778 C 368.000 307.649,368.516 306.792,369.147 305.872 C 371.577 302.331,382.000 282.870,382.000 281.875 C 382.000 281.756,382.596 280.340,383.323 278.729 C 386.184 272.399,389.228 264.058,391.180 257.200 C 391.462 256.210,391.846 254.950,392.033 254.400 C 392.749 252.297,394.094 246.839,394.842 243.000 C 395.271 240.800,395.797 238.447,396.011 237.772 C 396.225 237.096,396.400 235.998,396.400 235.331 C 396.400 234.665,396.573 233.598,396.785 232.960 C 396.996 232.322,397.379 230.090,397.636 228.000 C 400.658 203.384,400.367 188.275,396.406 164.200 C 396.225 163.100,395.781 160.940,395.419 159.400 C 395.056 157.860,394.608 155.790,394.422 154.800 C 394.067 152.910,392.613 147.307,392.035 145.600 C 391.849 145.050,391.025 142.440,390.205 139.800 C 389.385 137.160,388.568 134.640,388.389 134.200 C 388.210 133.760,387.578 132.050,386.984 130.400 C 384.804 124.349,381.741 117.381,378.015 110.000 C 374.823 103.676,374.246 102.621,373.900 102.467 C 373.735 102.393,373.600 102.182,373.600 101.997 C 373.600 101.812,372.690 100.162,371.577 98.331 C 370.464 96.499,369.339 94.645,369.077 94.211 C 365.736 88.682,357.219 76.859,353.374 72.412 C 352.893 71.855,351.181 69.870,349.570 68.000 C 346.230 64.124,337.015 54.874,333.232 51.600 C 331.834 50.390,330.490 49.212,330.245 48.982 C 326.740 45.693,308.298 32.000,307.373 32.000 C 307.268 32.000,306.422 31.519,305.491 30.932 C 299.124 26.912,296.550 25.460,289.740 22.042 C 286.188 20.259,283.186 18.800,283.070 18.800 C 282.953 18.800,281.495 18.170,279.828 17.400 C 278.161 16.630,276.698 16.000,276.576 16.000 C 276.455 16.000,275.589 15.650,274.650 15.223 C 272.903 14.427,270.781 13.621,267.600 12.545 C 266.610 12.210,265.440 11.783,265.000 11.595 C 264.217 11.261,258.772 9.573,256.000 8.805 C 255.230 8.591,253.340 8.042,251.800 7.584 C 250.260 7.126,248.280 6.603,247.400 6.422 C 245.936 6.122,239.901 4.835,237.000 4.205 C 233.352 3.413,224.301 2.171,217.600 1.543 C 212.811 1.094,187.895 0.639,187.540 0.994 M217.600 16.384 C 219.030 16.581,222.540 17.028,225.400 17.375 C 228.260 17.723,231.140 18.174,231.800 18.376 C 232.460 18.579,233.990 18.869,235.200 19.022 C 236.410 19.175,237.850 19.472,238.400 19.684 C 238.950 19.896,240.210 20.228,241.200 20.423 C 247.366 21.637,251.128 22.591,253.919 23.651 C 254.424 23.843,255.241 24.000,255.734 24.000 C 256.227 24.000,257.344 24.364,258.215 24.810 C 259.087 25.255,260.520 25.812,261.400 26.046 C 262.960 26.462,267.905 28.447,269.295 29.216 C 269.677 29.427,270.224 29.600,270.510 29.600 C 270.796 29.600,271.744 29.970,272.615 30.423 C 273.487 30.876,275.280 31.703,276.600 32.261 C 277.920 32.820,279.360 33.596,279.800 33.986 C 280.240 34.376,282.490 35.681,284.800 36.887 C 301.753 45.736,314.874 55.150,328.088 67.942 C 335.183 74.811,344.694 85.718,348.485 91.335 C 349.055 92.179,349.896 93.132,350.353 93.452 C 351.048 93.939,353.278 97.050,357.298 103.142 C 357.682 103.724,357.997 104.442,357.998 104.738 C 357.999 105.034,358.405 105.831,358.900 106.509 C 359.805 107.748,361.880 111.306,363.839 114.980 C 364.420 116.069,365.319 117.602,365.838 118.386 C 366.357 119.170,367.164 120.979,367.631 122.406 C 368.099 123.833,368.997 126.104,369.626 127.453 C 370.256 128.802,371.028 130.602,371.342 131.453 C 371.655 132.304,372.483 134.530,373.181 136.400 C 373.880 138.270,374.629 140.513,374.846 141.384 C 375.064 142.256,375.403 143.163,375.600 143.400 C 375.797 143.637,376.140 144.544,376.363 145.416 C 376.586 146.287,377.118 148.080,377.545 149.400 C 378.667 152.868,380.819 162.015,380.809 163.274 C 380.804 163.865,381.004 164.855,381.254 165.474 C 381.504 166.093,381.855 168.310,382.033 170.400 C 382.212 172.490,382.549 175.730,382.782 177.600 C 384.725 193.158,384.289 215.189,381.753 229.600 C 380.530 236.549,380.321 237.535,378.024 247.200 C 377.110 251.049,373.854 260.935,371.567 266.804 C 370.496 269.556,369.498 272.436,369.351 273.204 C 369.205 273.972,368.751 275.268,368.342 276.084 C 367.934 276.900,367.599 277.800,367.598 278.084 C 367.595 278.655,367.681 278.488,363.601 285.800 C 362.005 288.660,360.184 291.973,359.555 293.162 C 358.926 294.352,358.130 295.635,357.786 296.015 C 357.443 296.395,356.981 297.360,356.760 298.160 C 356.539 298.960,355.873 300.138,355.279 300.777 C 354.097 302.050,352.559 304.081,349.200 308.807 C 347.990 310.509,346.190 312.936,345.200 314.199 C 344.210 315.463,343.212 316.818,342.981 317.212 C 342.751 317.605,342.031 318.441,341.381 319.068 C 340.295 320.118,337.657 323.134,335.200 326.134 C 334.650 326.806,333.907 327.636,333.549 327.978 C 324.979 336.172,319.455 341.178,317.559 342.470 C 316.808 342.981,315.745 343.819,315.197 344.332 C 314.649 344.845,313.660 345.764,313.000 346.375 C 312.340 346.986,311.179 347.786,310.420 348.152 C 309.051 348.813,306.204 350.846,301.529 354.500 C 300.192 355.545,298.890 356.400,298.637 356.400 C 298.383 356.400,296.021 357.688,293.388 359.261 C 290.755 360.835,287.095 362.816,285.255 363.664 C 283.415 364.511,281.394 365.639,280.764 366.169 C 280.135 366.699,279.030 367.259,278.310 367.414 C 277.589 367.570,275.740 368.272,274.200 368.975 C 270.347 370.734,267.094 372.000,266.424 372.000 C 266.115 372.000,265.579 372.241,265.231 372.535 C 264.884 372.829,263.340 373.469,261.800 373.957 C 260.260 374.446,258.370 375.081,257.600 375.370 C 256.830 375.659,254.580 376.374,252.600 376.959 C 250.620 377.545,248.190 378.279,247.200 378.591 C 243.060 379.894,228.854 382.531,220.800 383.490 C 213.918 384.310,191.474 384.653,185.800 384.025 C 183.600 383.781,180.450 383.508,178.800 383.416 C 175.576 383.238,172.315 382.688,168.800 381.730 C 167.590 381.401,165.970 380.962,165.200 380.755 C 163.825 380.387,159.754 379.469,156.600 378.817 C 131.612 373.652,100.075 357.250,78.606 338.256 C 76.403 336.307,74.150 334.540,73.600 334.330 C 73.050 334.120,71.250 332.482,69.600 330.691 C 67.950 328.900,65.544 326.437,64.253 325.217 C 62.962 323.998,61.357 322.190,60.686 321.200 C 60.016 320.210,58.732 318.571,57.834 317.558 C 53.470 312.639,50.495 308.785,49.531 306.800 C 49.264 306.250,48.226 304.631,47.223 303.203 C 45.274 300.426,41.174 293.907,39.925 291.600 C 39.508 290.830,38.732 289.480,38.201 288.600 C 37.168 286.890,36.834 286.219,33.620 279.400 C 32.480 276.980,31.206 274.280,30.789 273.400 C 29.316 270.286,28.000 267.097,28.000 266.640 C 28.000 266.386,26.999 263.122,25.776 259.389 C 23.521 252.508,22.127 247.598,20.780 241.800 C 20.371 240.040,19.862 237.880,19.649 237.000 C 19.436 236.120,18.789 232.160,18.211 228.200 C 17.633 224.240,16.948 219.560,16.689 217.800 C 15.881 212.309,16.069 188.611,16.981 181.200 C 17.400 177.790,17.703 174.010,17.654 172.799 C 17.606 171.588,17.843 169.811,18.183 168.849 C 18.522 167.887,18.800 166.543,18.800 165.863 C 18.800 164.766,19.606 160.925,20.829 156.200 C 21.057 155.320,21.492 153.610,21.796 152.400 C 22.100 151.190,22.820 148.670,23.397 146.800 C 23.974 144.930,24.592 142.860,24.772 142.200 C 24.951 141.540,25.858 139.020,26.786 136.600 C 27.715 134.180,28.743 131.390,29.070 130.400 C 29.911 127.850,36.376 114.348,38.454 110.800 C 39.034 109.810,39.942 108.190,40.472 107.200 C 41.003 106.210,42.463 103.842,43.718 101.939 C 44.973 100.035,46.000 98.295,46.000 98.071 C 46.000 97.848,46.810 96.716,47.800 95.557 C 48.790 94.397,49.600 93.286,49.600 93.087 C 49.600 92.889,50.230 91.991,51.000 91.092 C 51.770 90.192,52.400 89.215,52.400 88.919 C 52.400 88.624,52.836 88.184,53.369 87.941 C 53.902 87.698,54.439 87.117,54.563 86.650 C 54.686 86.182,55.473 85.080,56.311 84.200 C 57.149 83.320,58.356 81.880,58.993 81.000 C 59.630 80.120,60.767 78.742,61.520 77.938 C 62.273 77.134,63.099 76.054,63.356 75.538 C 63.613 75.022,64.271 74.386,64.817 74.123 C 65.364 73.861,66.333 72.961,66.970 72.123 C 67.607 71.286,69.374 69.520,70.897 68.200 C 72.419 66.880,73.922 65.310,74.237 64.712 C 74.551 64.113,75.195 63.417,75.667 63.164 C 76.139 62.912,77.872 61.601,79.518 60.252 C 81.164 58.904,83.520 57.046,84.755 56.125 C 85.990 55.204,87.270 54.202,87.600 53.898 C 87.930 53.594,89.370 52.474,90.800 51.409 C 92.230 50.345,93.966 48.913,94.658 48.227 C 95.350 47.541,96.430 46.739,97.058 46.444 C 98.375 45.825,98.435 45.792,102.324 43.513 C 107.734 40.344,110.584 38.724,113.600 37.105 C 117.723 34.891,122.706 32.400,123.012 32.400 C 123.151 32.400,124.540 31.760,126.099 30.978 C 127.658 30.195,129.857 29.315,130.985 29.021 C 132.114 28.727,134.605 27.837,136.522 27.043 C 138.439 26.250,141.264 25.253,142.798 24.827 C 144.333 24.402,145.787 23.931,146.030 23.781 C 146.506 23.487,149.283 22.677,152.800 21.806 C 154.010 21.506,155.720 21.081,156.600 20.860 C 157.480 20.639,159.550 20.168,161.200 19.812 C 165.134 18.964,167.483 18.432,169.200 18.002 C 169.970 17.809,172.670 17.449,175.200 17.201 C 177.730 16.954,180.790 16.614,182.000 16.446 C 185.153 16.007,214.502 15.956,217.600 16.384 " stroke="none" fill="#bebebe" fill-rule="evenodd"></path><path id="path4" d="M277.100 36.229 C 275.605 37.040,275.696 37.378,277.200 36.600 C 277.860 36.259,278.400 35.894,278.400 35.790 C 278.400 35.532,278.357 35.547,277.100 36.229 M272.300 38.827 C 271.475 39.263,270.800 39.708,270.800 39.818 C 270.800 39.927,271.520 39.649,272.400 39.200 C 273.280 38.751,274.000 38.297,274.000 38.192 C 274.000 37.930,273.997 37.931,272.300 38.827 M265.100 42.626 C 264.055 43.170,263.200 43.705,263.200 43.814 C 263.200 43.924,264.100 43.557,265.200 43.000 C 266.300 42.443,267.200 41.900,267.200 41.793 C 267.200 41.529,267.236 41.514,265.100 42.626 M258.719 45.957 C 256.119 47.438,255.765 47.921,258.200 46.664 C 260.549 45.452,261.558 44.798,261.000 44.849 C 260.780 44.869,259.754 45.368,258.719 45.957 M251.500 49.825 C 250.015 50.587,248.800 51.301,248.800 51.411 C 248.800 51.520,250.060 50.976,251.600 50.200 C 253.140 49.424,254.400 48.702,254.400 48.595 C 254.400 48.327,254.512 48.279,251.500 49.825 M239.900 56.027 C 239.075 56.463,238.400 56.908,238.400 57.018 C 238.400 57.127,239.120 56.849,240.000 56.400 C 240.880 55.951,241.600 55.497,241.600 55.392 C 241.600 55.130,241.597 55.131,239.900 56.027 M236.300 57.829 C 234.749 58.670,234.925 58.961,236.500 58.159 C 238.008 57.393,238.275 57.194,237.767 57.216 C 237.565 57.225,236.905 57.501,236.300 57.829 M225.900 63.429 C 224.405 64.240,224.496 64.578,226.000 63.800 C 226.660 63.459,227.200 63.094,227.200 62.990 C 227.200 62.732,227.157 62.747,225.900 63.429 M219.900 66.629 C 218.405 67.440,218.496 67.778,220.000 67.000 C 220.660 66.659,221.200 66.294,221.200 66.190 C 221.200 65.932,221.157 65.947,219.900 66.629 M213.900 69.826 C 212.855 70.370,212.000 70.905,212.000 71.014 C 212.000 71.124,212.900 70.757,214.000 70.200 C 215.100 69.643,216.000 69.100,216.000 68.993 C 216.000 68.729,216.036 68.714,213.900 69.826 M207.500 73.227 C 206.675 73.663,206.000 74.108,206.000 74.218 C 206.000 74.327,206.720 74.049,207.600 73.600 C 208.480 73.151,209.200 72.697,209.200 72.592 C 209.200 72.330,209.197 72.331,207.500 73.227 M187.200 84.018 C 186.210 84.660,185.512 85.188,185.650 85.192 C 185.995 85.203,189.600 83.171,189.600 82.966 C 189.600 82.605,188.921 82.902,187.200 84.018 M175.900 90.027 C 175.075 90.463,174.400 90.908,174.400 91.018 C 174.400 91.127,175.120 90.849,176.000 90.400 C 176.880 89.951,177.600 89.497,177.600 89.392 C 177.600 89.130,177.597 89.131,175.900 90.027 M169.100 93.626 C 167.835 94.279,166.800 94.903,166.800 95.012 C 166.800 95.122,167.880 94.666,169.200 94.000 C 170.520 93.334,171.600 92.701,171.600 92.594 C 171.600 92.328,171.674 92.297,169.100 93.626 M163.100 96.827 C 162.275 97.263,161.600 97.708,161.600 97.818 C 161.600 97.996,164.759 96.519,165.167 96.151 C 165.627 95.734,164.425 96.128,163.100 96.827 M157.500 99.829 C 156.005 100.640,156.096 100.978,157.600 100.200 C 158.260 99.859,158.800 99.494,158.800 99.390 C 158.800 99.132,158.757 99.147,157.500 99.829 M150.700 103.426 C 149.655 103.970,148.800 104.505,148.800 104.614 C 148.800 104.724,149.700 104.357,150.800 103.800 C 151.900 103.243,152.800 102.700,152.800 102.593 C 152.800 102.329,152.836 102.314,150.700 103.426 M145.100 106.427 C 144.275 106.863,143.600 107.308,143.600 107.418 C 143.600 107.527,144.320 107.249,145.200 106.800 C 146.080 106.351,146.800 105.897,146.800 105.792 C 146.800 105.530,146.797 105.531,145.100 106.427 M130.695 114.072 C 129.427 114.760,128.451 115.384,128.527 115.460 C 128.689 115.622,133.200 113.218,133.200 112.970 C 133.200 112.715,133.177 112.726,130.695 114.072 M125.500 116.827 C 124.675 117.263,124.000 117.708,124.000 117.818 C 124.000 117.927,124.720 117.649,125.600 117.200 C 126.480 116.751,127.200 116.297,127.200 116.192 C 127.200 115.930,127.197 115.931,125.500 116.827 M118.700 120.427 C 117.875 120.863,117.200 121.308,117.200 121.418 C 117.200 121.527,117.920 121.249,118.800 120.800 C 119.680 120.351,120.400 119.897,120.400 119.792 C 120.400 119.530,120.397 119.531,118.700 120.427 M114.900 122.446 C 113.095 123.602,113.263 123.868,115.100 122.763 C 116.960 121.645,117.018 121.598,116.567 121.607 C 116.365 121.610,115.615 121.988,114.900 122.446 M105.897 127.166 C 104.085 128.328,104.086 128.556,105.900 127.641 C 106.835 127.170,107.600 126.697,107.600 126.592 C 107.600 126.249,107.023 126.444,105.897 127.166 M94.612 133.224 C 93.738 133.660,92.838 134.212,92.612 134.451 C 92.385 134.690,93.145 134.414,94.300 133.836 C 95.455 133.259,96.400 132.700,96.400 132.593 C 96.400 132.331,96.410 132.327,94.612 133.224 M87.100 137.226 C 85.835 137.879,84.800 138.503,84.800 138.612 C 84.800 138.722,85.880 138.266,87.200 137.600 C 88.520 136.934,89.600 136.301,89.600 136.194 C 89.600 135.928,89.674 135.897,87.100 137.226 M76.696 142.758 C 74.393 144.109,73.680 144.766,75.548 143.816 C 77.619 142.762,79.446 141.601,79.000 141.622 C 78.780 141.632,77.743 142.143,76.696 142.758 M71.400 145.627 C 70.740 146.050,70.380 146.396,70.600 146.395 C 70.820 146.395,71.540 146.037,72.200 145.600 C 72.860 145.163,73.220 144.817,73.000 144.832 C 72.780 144.847,72.060 145.204,71.400 145.627 M68.300 147.227 C 67.475 147.663,66.800 148.108,66.800 148.218 C 66.800 148.327,67.520 148.049,68.400 147.600 C 69.280 147.151,70.000 146.697,70.000 146.592 C 70.000 146.330,69.997 146.331,68.300 147.227 M61.487 150.866 C 59.774 151.768,58.434 152.568,58.509 152.642 C 58.673 152.806,64.800 149.625,64.800 149.376 C 64.800 149.116,64.848 149.094,61.487 150.866 M56.300 153.627 C 55.475 154.063,54.800 154.508,54.800 154.618 C 54.800 154.727,55.520 154.449,56.400 154.000 C 57.280 153.551,58.000 153.097,58.000 152.992 C 58.000 152.730,57.997 152.731,56.300 153.627 M44.300 160.026 C 43.035 160.679,42.000 161.303,42.000 161.412 C 42.000 161.522,43.080 161.066,44.400 160.400 C 45.720 159.734,46.800 159.101,46.800 158.994 C 46.800 158.728,46.874 158.697,44.300 160.026 M37.100 163.826 C 36.055 164.370,35.200 164.905,35.200 165.014 C 35.200 165.124,36.100 164.757,37.200 164.200 C 38.300 163.643,39.200 163.100,39.200 162.993 C 39.200 162.729,39.236 162.714,37.100 163.826 M25.497 169.966 C 23.898 170.991,23.603 171.406,25.000 170.666 C 26.676 169.777,27.471 169.208,27.000 169.235 C 26.780 169.248,26.104 169.577,25.497 169.966 M20.300 172.827 C 19.475 173.263,18.800 173.708,18.800 173.818 C 18.800 173.927,19.520 173.649,20.400 173.200 C 21.280 172.751,22.000 172.297,22.000 172.192 C 22.000 171.930,21.997 171.931,20.300 172.827 M364.300 275.227 C 363.475 275.663,362.800 276.108,362.800 276.218 C 362.800 276.327,363.520 276.049,364.400 275.600 C 365.280 275.151,366.000 274.697,366.000 274.592 C 366.000 274.330,365.997 274.331,364.300 275.227 M358.800 278.200 C 357.810 278.730,357.142 279.172,357.316 279.182 C 357.741 279.206,360.800 277.634,360.800 277.392 C 360.800 277.127,360.817 277.120,358.800 278.200 M355.000 280.210 C 354.120 280.752,353.559 281.197,353.753 281.198 C 354.163 281.200,356.800 279.616,356.800 279.367 C 356.800 279.113,356.721 279.151,355.000 280.210 M312.705 302.690 C 310.782 303.709,309.284 304.617,309.375 304.709 C 309.555 304.888,316.400 301.243,316.400 300.968 C 316.400 300.725,316.507 300.675,312.705 302.690 M307.100 305.627 C 306.275 306.063,305.600 306.508,305.600 306.618 C 305.600 306.727,306.320 306.449,307.200 306.000 C 308.080 305.551,308.800 305.097,308.800 304.992 C 308.800 304.730,308.797 304.731,307.100 305.627 M301.500 308.626 C 300.455 309.170,299.600 309.705,299.600 309.814 C 299.600 309.924,300.500 309.557,301.600 309.000 C 302.700 308.443,303.600 307.900,303.600 307.793 C 303.600 307.529,303.636 307.514,301.500 308.626 M296.400 311.400 C 295.410 311.930,294.742 312.372,294.916 312.382 C 295.341 312.406,298.400 310.834,298.400 310.592 C 298.400 310.327,298.417 310.320,296.400 311.400 M269.800 325.600 C 269.140 326.037,268.780 326.392,269.000 326.388 C 269.401 326.382,271.576 324.823,271.200 324.812 C 271.090 324.808,270.460 325.163,269.800 325.600 M244.700 338.827 C 243.875 339.263,243.200 339.708,243.200 339.818 C 243.200 339.927,243.920 339.649,244.800 339.200 C 245.680 338.751,246.400 338.297,246.400 338.192 C 246.400 337.930,246.397 337.931,244.700 338.827 M238.300 342.226 C 237.255 342.770,236.400 343.305,236.400 343.414 C 236.400 343.524,237.300 343.157,238.400 342.600 C 239.500 342.043,240.400 341.500,240.400 341.393 C 240.400 341.129,240.436 341.114,238.300 342.226 M225.100 349.227 C 224.275 349.663,223.600 350.108,223.600 350.218 C 223.600 350.327,224.320 350.049,225.200 349.600 C 226.080 349.151,226.800 348.697,226.800 348.592 C 226.800 348.330,226.797 348.331,225.100 349.227 M207.100 358.827 C 206.275 359.263,205.600 359.708,205.600 359.818 C 205.600 359.927,206.320 359.649,207.200 359.200 C 208.080 358.751,208.800 358.297,208.800 358.192 C 208.800 357.930,208.797 357.931,207.100 358.827 M199.900 362.629 C 198.405 363.440,198.496 363.778,200.000 363.000 C 200.660 362.659,201.200 362.294,201.200 362.190 C 201.200 361.932,201.157 361.947,199.900 362.629 M193.500 366.026 C 192.235 366.679,191.200 367.303,191.200 367.412 C 191.200 367.522,192.280 367.066,193.600 366.400 C 194.920 365.734,196.000 365.101,196.000 364.994 C 196.000 364.728,196.074 364.697,193.500 366.026 M181.500 372.426 C 180.235 373.079,179.200 373.703,179.200 373.812 C 179.200 373.922,180.280 373.466,181.600 372.800 C 182.920 372.134,184.000 371.501,184.000 371.394 C 184.000 371.128,184.074 371.097,181.500 372.426 " stroke="none" fill="#e4baba" fill-rule="evenodd"></path><path id="path5" d="M348.872 93.713 C 348.552 94.099,348.712 94.346,349.523 94.715 C 350.178 95.013,351.384 96.472,352.600 98.437 C 353.700 100.215,354.981 102.149,355.446 102.735 C 355.912 103.321,356.772 104.700,357.357 105.800 C 357.942 106.900,358.767 108.340,359.189 109.000 C 360.231 110.629,368.007 126.111,368.003 126.551 C 368.001 126.743,368.533 127.950,369.184 129.231 C 369.835 130.513,370.723 132.605,371.156 133.881 C 371.590 135.156,372.420 137.460,373.002 139.000 C 374.471 142.890,376.815 150.620,377.399 153.495 C 377.543 154.208,377.828 154.894,378.031 155.019 C 378.234 155.145,378.400 155.912,378.400 156.725 C 378.400 157.538,378.760 159.461,379.200 161.000 C 379.640 162.539,380.000 164.287,380.000 164.885 C 380.000 165.483,380.307 166.616,380.682 167.402 C 381.233 168.558,381.278 169.059,380.916 170.016 C 380.518 171.071,380.553 171.200,381.235 171.200 C 382.211 171.200,382.295 168.538,381.400 166.000 C 381.070 165.065,380.804 163.827,380.809 163.250 C 380.819 162.010,378.657 152.838,377.545 149.400 C 377.118 148.080,376.586 146.287,376.363 145.416 C 376.140 144.544,375.797 143.637,375.600 143.400 C 375.403 143.163,375.064 142.256,374.846 141.384 C 374.629 140.513,373.880 138.270,373.181 136.400 C 372.483 134.530,371.655 132.304,371.342 131.453 C 371.028 130.602,370.256 128.802,369.626 127.453 C 368.997 126.104,368.099 123.833,367.631 122.406 C 367.164 120.979,366.357 119.170,365.838 118.386 C 365.319 117.602,364.420 116.069,363.839 114.980 C 361.880 111.306,359.805 107.748,358.900 106.509 C 358.405 105.831,357.999 105.034,357.998 104.738 C 357.996 104.168,357.928 104.056,354.231 98.537 C 350.642 93.179,349.883 92.495,348.872 93.713 M334.623 101.433 C 333.974 101.907,333.954 102.000,334.500 102.000 C 334.859 102.000,335.271 101.808,335.416 101.573 C 335.840 100.887,335.461 100.820,334.623 101.433 M318.800 109.833 C 318.242 110.143,318.065 110.385,318.400 110.381 C 318.730 110.378,319.349 110.110,319.776 109.787 C 320.739 109.059,320.145 109.087,318.800 109.833 M373.065 174.647 C 372.440 174.986,372.018 175.352,372.127 175.461 C 372.341 175.674,374.800 174.505,374.800 174.190 C 374.800 173.863,374.240 174.010,373.065 174.647 M353.212 185.184 C 352.888 185.389,352.721 185.654,352.841 185.774 C 352.960 185.894,353.405 185.729,353.829 185.409 C 354.673 184.771,354.160 184.585,353.212 185.184 M168.300 189.829 C 166.805 190.640,166.896 190.978,168.400 190.200 C 169.060 189.859,169.600 189.494,169.600 189.390 C 169.600 189.132,169.557 189.147,168.300 189.829 M31.600 262.600 C 31.050 262.914,30.780 263.172,31.000 263.172 C 31.220 263.172,31.850 262.914,32.400 262.600 C 32.950 262.286,33.220 262.028,33.000 262.028 C 32.780 262.028,32.150 262.286,31.600 262.600 M206.900 262.888 C 206.405 263.127,206.000 263.479,206.000 263.671 C 206.000 263.863,206.540 263.741,207.200 263.400 C 209.009 262.465,208.738 262.002,206.900 262.888 M29.400 263.832 C 28.960 264.165,28.318 264.365,27.973 264.276 C 27.025 264.030,29.142 270.680,31.145 274.238 C 31.381 274.657,32.501 276.980,33.634 279.400 C 36.736 286.026,37.151 286.863,38.201 288.600 C 38.732 289.480,39.508 290.830,39.925 291.600 C 41.174 293.907,45.274 300.426,47.223 303.203 C 48.226 304.631,49.264 306.250,49.531 306.800 C 50.495 308.785,53.470 312.639,57.834 317.558 C 58.732 318.571,60.021 320.210,60.698 321.200 C 61.375 322.190,63.160 324.184,64.665 325.632 C 66.170 327.079,68.570 329.556,69.998 331.136 C 72.847 334.287,73.543 334.692,74.775 333.923 C 75.901 333.220,75.810 332.800,74.533 332.800 C 71.951 332.800,55.182 313.639,47.929 302.400 C 46.580 300.310,45.352 298.510,45.200 298.400 C 45.048 298.290,44.671 297.710,44.362 297.112 C 44.053 296.513,42.815 294.353,41.610 292.312 C 36.524 283.691,29.200 267.979,29.200 265.690 C 29.200 265.125,29.498 264.334,29.862 263.931 C 30.661 263.049,30.483 263.011,29.400 263.832 M186.270 273.879 C 185.648 274.205,185.226 274.559,185.332 274.665 C 185.438 274.771,186.216 274.493,187.062 274.047 C 187.908 273.600,188.330 273.246,188.000 273.260 C 187.670 273.274,186.891 273.552,186.270 273.879 M125.600 306.444 C 125.050 306.898,124.826 307.153,125.101 307.010 C 127.406 305.819,127.726 305.606,127.200 305.611 C 126.870 305.615,126.150 305.989,125.600 306.444 " stroke="none" fill="#a5c4d6" fill-rule="evenodd"></path><path id="path6" d="M182.000 16.446 C 180.790 16.614,177.730 16.954,175.200 17.201 C 172.670 17.449,169.970 17.809,169.200 18.002 C 167.483 18.432,165.134 18.964,161.200 19.812 C 159.550 20.168,157.480 20.639,156.600 20.860 C 155.720 21.081,154.010 21.506,152.800 21.806 C 149.283 22.677,146.506 23.487,146.030 23.781 C 145.787 23.931,144.333 24.402,142.798 24.827 C 141.264 25.253,138.439 26.250,136.522 27.043 C 134.605 27.837,132.114 28.727,130.985 29.021 C 129.857 29.315,127.658 30.195,126.099 30.978 C 124.540 31.760,123.151 32.400,123.012 32.400 C 122.464 32.400,113.059 37.298,107.924 40.258 C 106.453 41.106,103.892 42.575,102.234 43.523 C 100.576 44.470,99.114 45.415,98.986 45.623 C 98.858 45.830,98.423 46.000,98.020 46.000 C 97.616 46.000,96.412 46.775,95.343 47.722 C 94.274 48.669,92.230 50.322,90.800 51.394 C 89.370 52.467,87.930 53.594,87.600 53.898 C 87.270 54.202,85.990 55.204,84.755 56.125 C 83.520 57.046,81.164 58.904,79.518 60.252 C 77.872 61.601,76.139 62.912,75.667 63.164 C 75.195 63.417,74.551 64.113,74.237 64.712 C 73.922 65.310,72.419 66.880,70.897 68.200 C 69.374 69.520,67.607 71.286,66.970 72.123 C 66.333 72.961,65.364 73.861,64.817 74.123 C 64.271 74.386,63.613 75.022,63.356 75.538 C 63.099 76.054,62.273 77.134,61.520 77.938 C 60.767 78.742,59.630 80.120,58.993 81.000 C 58.356 81.880,57.149 83.320,56.311 84.200 C 55.473 85.080,54.686 86.182,54.563 86.650 C 54.439 87.117,53.902 87.698,53.369 87.941 C 52.836 88.184,52.400 88.624,52.400 88.919 C 52.400 89.215,51.770 90.192,51.000 91.092 C 50.230 91.991,49.600 92.889,49.600 93.087 C 49.600 93.286,48.790 94.397,47.800 95.557 C 46.810 96.716,46.000 97.848,46.000 98.071 C 46.000 98.295,44.973 100.035,43.718 101.939 C 42.463 103.842,41.003 106.210,40.472 107.200 C 39.942 108.190,39.034 109.810,38.454 110.800 C 36.376 114.348,29.911 127.850,29.070 130.400 C 28.743 131.390,27.715 134.180,26.786 136.600 C 25.858 139.020,24.951 141.540,24.772 142.200 C 24.592 142.860,23.974 144.930,23.397 146.800 C 22.820 148.670,22.100 151.190,21.796 152.400 C 21.492 153.610,21.057 155.320,20.829 156.200 C 19.606 160.925,18.800 164.766,18.800 165.863 C 18.800 166.543,18.530 167.865,18.200 168.800 C 16.989 172.232,17.555 174.637,19.288 173.423 C 19.977 172.941,20.030 172.800,19.522 172.800 C 18.575 172.800,18.470 172.091,19.045 169.603 C 19.326 168.391,19.754 166.230,19.998 164.800 C 20.513 161.773,22.146 154.686,22.993 151.800 C 24.707 145.962,26.561 140.268,28.050 136.276 C 28.968 133.814,29.976 131.082,30.291 130.204 C 30.843 128.663,31.396 127.458,35.713 118.400 C 37.733 114.160,40.323 109.579,43.405 104.791 C 44.329 103.356,45.402 101.556,45.789 100.791 C 46.176 100.026,47.237 98.415,48.147 97.210 C 49.056 96.006,50.160 94.448,50.600 93.749 C 51.040 93.050,52.209 91.426,53.197 90.139 C 54.186 88.853,55.356 87.319,55.797 86.730 C 65.145 74.275,85.922 54.945,97.338 48.084 C 99.586 46.733,102.361 44.981,103.867 43.964 C 104.710 43.394,106.300 42.428,107.400 41.817 C 108.500 41.207,109.850 40.392,110.400 40.006 C 110.950 39.620,113.560 38.260,116.200 36.983 C 118.840 35.706,121.429 34.333,121.954 33.931 C 122.479 33.529,123.249 33.200,123.665 33.200 C 124.082 33.200,125.482 32.666,126.775 32.012 C 129.259 30.759,138.554 27.117,141.600 26.204 C 154.376 22.375,158.225 21.327,162.400 20.543 C 171.538 18.826,174.933 18.271,178.000 17.993 C 179.870 17.823,183.380 17.469,185.800 17.206 C 191.111 16.629,213.128 16.876,218.800 17.577 C 223.611 18.171,230.121 19.160,232.200 19.612 C 233.080 19.803,235.420 20.257,237.400 20.621 C 244.491 21.923,248.489 23.000,258.400 26.281 C 263.985 28.130,271.407 30.966,274.200 32.320 C 275.080 32.746,276.485 33.413,277.321 33.803 C 278.299 34.258,278.767 34.709,278.630 35.065 C 278.461 35.507,278.583 35.530,279.233 35.182 C 280.228 34.650,280.058 33.965,278.768 33.305 C 276.058 31.918,270.855 29.600,270.450 29.600 C 270.197 29.600,269.677 29.427,269.295 29.216 C 267.905 28.447,262.960 26.462,261.400 26.046 C 260.520 25.812,259.087 25.255,258.215 24.810 C 257.344 24.364,256.227 24.000,255.734 24.000 C 255.241 24.000,254.424 23.843,253.919 23.651 C 251.128 22.591,247.366 21.637,241.200 20.423 C 240.210 20.228,238.950 19.896,238.400 19.684 C 237.850 19.472,236.410 19.175,235.200 19.022 C 233.990 18.869,232.460 18.579,231.800 18.376 C 231.140 18.174,228.260 17.723,225.400 17.375 C 222.540 17.028,219.030 16.581,217.600 16.384 C 214.502 15.956,185.153 16.007,182.000 16.446 M367.200 274.000 C 366.322 274.481,366.061 274.773,366.500 274.783 C 367.610 274.810,366.767 277.381,363.938 282.600 C 363.461 283.480,362.465 285.428,361.725 286.930 C 360.134 290.159,355.799 297.461,354.796 298.600 C 354.409 299.040,353.966 299.816,353.811 300.325 C 353.657 300.834,351.872 303.444,349.844 306.125 C 347.817 308.806,345.205 312.260,344.039 313.800 C 342.873 315.340,341.341 317.230,340.635 318.000 C 339.929 318.770,338.889 320.030,338.324 320.800 C 337.102 322.465,332.228 327.514,330.775 328.620 C 330.211 329.049,329.581 329.688,329.375 330.041 C 328.256 331.954,315.918 342.576,308.282 348.200 C 301.871 352.922,300.944 353.541,299.900 353.795 C 299.295 353.943,298.800 354.205,298.800 354.379 C 298.800 354.660,287.650 361.586,286.618 361.946 C 286.388 362.026,283.680 363.310,280.600 364.799 C 273.950 368.015,268.688 370.400,268.245 370.400 C 268.069 370.400,265.647 371.285,262.863 372.367 C 260.078 373.449,256.720 374.636,255.400 375.005 C 254.080 375.374,252.370 375.919,251.600 376.216 C 250.830 376.514,249.570 376.868,248.800 377.004 C 248.030 377.140,246.590 377.502,245.600 377.808 C 242.675 378.712,233.179 380.767,230.800 381.010 C 229.590 381.134,227.070 381.503,225.200 381.829 C 214.311 383.730,183.857 383.832,176.800 381.992 C 176.030 381.791,173.993 381.514,172.274 381.377 C 169.713 381.172,169.097 380.990,168.868 380.373 C 168.596 379.636,168.564 379.637,167.424 380.384 L 166.258 381.149 167.429 381.410 C 168.073 381.554,169.140 381.826,169.800 382.015 C 172.100 382.672,175.821 383.252,178.800 383.416 C 180.450 383.508,183.600 383.781,185.800 384.025 C 191.474 384.653,213.918 384.310,220.800 383.490 C 228.854 382.531,243.060 379.894,247.200 378.591 C 248.190 378.279,250.620 377.545,252.600 376.959 C 254.580 376.374,256.830 375.659,257.600 375.370 C 258.370 375.081,260.260 374.446,261.800 373.957 C 263.340 373.469,264.884 372.829,265.231 372.535 C 265.579 372.241,266.115 372.000,266.424 372.000 C 267.094 372.000,270.347 370.734,274.200 368.975 C 275.740 368.272,277.589 367.570,278.310 367.414 C 279.030 367.259,280.135 366.699,280.764 366.169 C 281.394 365.639,283.415 364.511,285.255 363.664 C 287.095 362.816,290.755 360.835,293.388 359.261 C 296.021 357.688,298.383 356.400,298.637 356.400 C 298.890 356.400,300.192 355.545,301.529 354.500 C 306.204 350.846,309.051 348.813,310.420 348.152 C 311.179 347.786,312.340 346.986,313.000 346.375 C 313.660 345.764,314.649 344.845,315.197 344.332 C 315.745 343.819,316.808 342.981,317.559 342.470 C 319.455 341.178,324.979 336.172,333.549 327.978 C 333.907 327.636,334.650 326.806,335.200 326.134 C 337.657 323.134,340.295 320.118,341.381 319.068 C 342.031 318.441,342.751 317.605,342.981 317.212 C 343.212 316.818,344.210 315.463,345.200 314.199 C 346.190 312.936,347.990 310.509,349.200 308.807 C 352.559 304.081,354.097 302.050,355.279 300.777 C 355.873 300.138,356.539 298.960,356.760 298.160 C 356.981 297.360,357.443 296.395,357.786 296.015 C 358.130 295.635,358.926 294.352,359.555 293.162 C 360.184 291.973,362.005 288.660,363.601 285.800 C 367.681 278.488,367.595 278.655,367.598 278.084 C 367.599 277.800,367.960 276.862,368.400 276.000 C 369.808 273.240,369.507 272.737,367.200 274.000 " stroke="none" fill="#d7b4ac" fill-rule="evenodd"></path><path id="path7" d="M190.400 0.400 C 189.410 0.554,193.910 0.677,200.400 0.674 C 208.668 0.670,211.003 0.582,208.200 0.381 C 203.164 0.020,192.776 0.031,190.400 0.400 M181.000 1.058 C 173.804 1.615,156.164 4.713,150.600 6.397 C 149.940 6.597,148.230 7.053,146.800 7.411 C 143.926 8.129,129.296 12.956,127.400 13.812 C 126.740 14.109,124.220 15.188,121.800 16.209 C 115.807 18.737,106.504 23.284,102.488 25.649 C 100.666 26.722,99.082 27.600,98.968 27.600 C 96.542 27.600,72.890 45.151,63.664 53.798 C 57.667 59.417,51.065 66.454,45.781 72.854 C 40.749 78.951,40.000 79.921,40.000 80.340 C 40.000 80.556,39.857 80.793,39.683 80.867 C 39.282 81.035,32.937 89.954,31.374 92.546 C 30.728 93.617,30.020 94.787,29.800 95.148 C 14.934 119.489,5.996 144.631,1.627 174.400 C 1.059 178.273,0.703 185.840,1.166 184.200 C 1.353 183.540,1.527 181.878,1.553 180.506 C 1.579 179.134,1.775 177.244,1.989 176.306 C 2.203 175.368,2.575 172.980,2.815 171.000 C 3.412 166.083,4.008 162.751,5.388 156.600 C 5.734 155.060,6.178 153.080,6.374 152.200 C 6.886 149.908,8.410 144.343,8.784 143.400 C 8.959 142.960,9.593 140.980,10.194 139.000 C 10.795 137.020,11.432 135.040,11.611 134.600 C 11.790 134.160,12.415 132.450,13.000 130.800 C 13.585 129.150,14.219 127.440,14.408 127.000 C 14.597 126.560,15.407 124.670,16.208 122.800 C 17.009 120.930,17.935 118.770,18.267 118.000 C 19.066 116.144,23.669 106.925,25.556 103.400 C 28.841 97.264,40.391 79.700,41.995 78.400 C 42.131 78.290,42.773 77.483,43.421 76.606 C 44.070 75.729,44.985 74.559,45.455 74.006 C 45.926 73.453,47.073 72.100,48.005 71.000 C 55.902 61.678,65.236 52.616,75.000 44.793 C 76.760 43.383,78.290 42.124,78.400 41.995 C 79.365 40.868,94.921 30.454,99.200 28.071 C 100.190 27.519,101.630 26.708,102.400 26.267 C 104.925 24.823,116.551 18.991,118.800 18.041 C 120.010 17.530,121.900 16.708,123.000 16.216 C 124.100 15.723,126.620 14.723,128.600 13.995 C 130.580 13.266,132.371 12.519,132.580 12.335 C 132.789 12.151,133.286 12.000,133.685 12.000 C 134.084 12.000,134.723 11.839,135.105 11.643 C 135.487 11.446,137.420 10.797,139.400 10.200 C 141.380 9.603,143.360 8.968,143.800 8.790 C 144.516 8.501,148.603 7.410,153.000 6.334 C 153.880 6.119,155.770 5.719,157.200 5.446 C 158.630 5.172,160.070 4.837,160.400 4.702 C 160.730 4.566,161.720 4.348,162.600 4.217 C 163.480 4.086,165.190 3.804,166.400 3.591 C 170.390 2.887,177.724 1.985,182.553 1.603 C 185.167 1.396,187.402 1.131,187.520 1.014 C 187.733 0.800,184.012 0.825,181.000 1.058 M212.500 1.013 C 212.664 1.189,214.824 1.471,217.300 1.640 C 223.293 2.050,232.730 3.278,237.000 4.205 C 239.901 4.835,245.936 6.122,247.400 6.422 C 248.280 6.603,250.260 7.126,251.800 7.584 C 253.340 8.042,255.230 8.591,256.000 8.805 C 258.772 9.573,264.217 11.261,265.000 11.595 C 265.440 11.783,266.610 12.210,267.600 12.545 C 270.781 13.621,272.903 14.427,274.650 15.223 C 275.589 15.650,276.455 16.000,276.576 16.000 C 276.698 16.000,278.161 16.630,279.828 17.400 C 281.495 18.170,282.953 18.800,283.070 18.800 C 283.186 18.800,286.188 20.259,289.740 22.042 C 296.550 25.460,299.124 26.912,305.491 30.932 C 306.422 31.519,307.268 32.000,307.373 32.000 C 308.298 32.000,326.740 45.693,330.245 48.982 C 330.490 49.212,331.834 50.390,333.232 51.600 C 337.015 54.874,346.230 64.124,349.570 68.000 C 351.181 69.870,352.893 71.855,353.374 72.412 C 357.219 76.859,365.736 88.682,369.077 94.211 C 369.339 94.645,370.464 96.499,371.577 98.331 C 372.690 100.162,373.600 101.812,373.600 101.997 C 373.600 102.182,373.735 102.393,373.900 102.467 C 374.246 102.621,374.823 103.676,378.015 110.000 C 381.741 117.381,384.804 124.349,386.984 130.400 C 387.578 132.050,388.210 133.760,388.389 134.200 C 388.568 134.640,389.385 137.160,390.205 139.800 C 391.025 142.440,391.849 145.050,392.035 145.600 C 392.613 147.307,394.067 152.910,394.422 154.800 C 394.608 155.790,395.056 157.860,395.419 159.400 C 396.108 162.332,396.322 163.526,397.385 170.400 C 398.330 176.512,398.778 180.969,399.189 188.343 C 399.389 191.942,399.679 195.002,399.832 195.143 C 400.190 195.473,399.721 184.454,399.188 180.000 C 397.814 168.529,395.878 157.720,393.993 151.000 C 393.746 150.120,393.448 148.950,393.330 148.400 C 392.760 145.744,388.882 133.480,387.827 131.000 C 387.547 130.340,386.912 128.720,386.416 127.400 C 384.100 121.235,378.033 108.433,374.472 102.200 C 373.718 100.880,372.646 98.990,372.089 98.000 C 371.083 96.213,364.797 86.649,362.360 83.200 C 354.300 71.789,341.601 57.926,331.032 49.000 C 329.729 47.900,327.929 46.357,327.032 45.571 C 326.134 44.785,324.680 43.618,323.800 42.978 C 322.920 42.337,321.390 41.159,320.400 40.359 C 316.461 37.177,302.616 28.234,296.600 24.985 C 293.402 23.258,283.685 18.400,283.429 18.400 C 283.335 18.400,281.940 17.804,280.329 17.077 C 277.256 15.688,275.989 15.165,271.400 13.390 C 269.860 12.794,268.240 12.157,267.800 11.974 C 266.030 11.239,256.545 8.353,250.050 6.573 C 245.165 5.235,234.666 3.135,229.200 2.402 C 227.330 2.152,224.810 1.785,223.600 1.587 C 220.405 1.065,212.148 0.638,212.500 1.013 M280.800 35.110 C 280.800 35.302,281.835 35.939,283.100 36.524 C 297.761 43.310,315.471 56.220,330.000 70.712 C 337.168 77.861,338.557 79.418,344.321 86.767 C 346.148 89.095,347.927 91.346,348.276 91.769 C 349.219 92.912,348.692 93.404,343.800 95.956 C 338.362 98.793,331.423 102.477,322.500 107.263 C 317.158 110.128,310.320 113.770,304.600 116.796 C 303.060 117.611,299.010 119.768,295.600 121.589 C 288.008 125.644,284.307 127.606,278.600 130.603 C 273.376 133.347,269.734 135.289,267.000 136.791 C 265.900 137.395,262.840 139.018,260.200 140.397 C 257.560 141.777,255.220 143.035,255.000 143.193 C 254.780 143.351,252.260 144.701,249.400 146.193 C 239.292 151.468,235.772 153.341,233.200 154.813 C 231.770 155.631,229.880 156.653,229.000 157.083 C 228.120 157.514,225.420 158.908,223.000 160.183 C 220.580 161.457,216.800 163.445,214.600 164.601 C 212.400 165.756,209.790 167.149,208.800 167.697 C 207.810 168.246,205.380 169.555,203.400 170.608 C 201.420 171.661,198.720 173.099,197.400 173.804 C 196.080 174.509,192.840 176.213,190.200 177.591 C 187.560 178.968,185.220 180.238,185.000 180.413 C 184.780 180.587,182.080 182.025,179.000 183.608 C 175.920 185.191,173.220 186.622,173.000 186.787 C 172.780 186.953,170.080 188.397,167.000 189.997 C 161.125 193.049,157.918 194.755,153.600 197.126 C 150.404 198.882,148.767 199.744,140.400 204.077 C 136.770 205.957,133.080 207.908,132.200 208.412 C 131.320 208.917,129.070 210.131,127.200 211.109 C 125.330 212.088,123.260 213.208,122.600 213.599 C 121.940 213.989,119.150 215.483,116.400 216.918 C 113.650 218.353,110.500 220.014,109.400 220.608 C 108.300 221.203,105.690 222.582,103.600 223.673 C 101.510 224.763,99.260 225.970,98.600 226.355 C 97.940 226.739,95.510 228.031,93.200 229.227 C 90.890 230.422,88.910 231.490,88.800 231.600 C 88.690 231.710,86.710 232.775,84.400 233.967 C 77.275 237.643,73.094 239.834,70.800 241.093 C 64.597 244.496,58.868 247.556,53.000 250.600 C 47.791 253.302,43.370 255.651,40.000 257.508 C 35.837 259.801,28.407 263.600,28.084 263.600 C 27.892 263.600,26.971 261.215,26.037 258.300 C 25.102 255.385,24.187 252.640,24.004 252.200 C 23.258 250.414,20.839 240.296,19.652 234.000 C 17.182 220.897,16.668 215.065,16.693 200.400 C 16.708 191.515,16.904 186.167,17.357 182.262 C 18.006 176.676,18.142 174.524,17.830 174.837 C 16.478 176.189,15.574 210.228,16.689 217.800 C 16.948 219.560,17.633 224.240,18.211 228.200 C 18.789 232.160,19.436 236.120,19.649 237.000 C 19.862 237.880,20.374 240.040,20.786 241.800 C 22.993 251.222,26.990 263.944,27.846 264.273 C 28.140 264.386,28.969 264.124,29.690 263.693 C 30.410 263.261,32.170 262.277,33.600 261.506 C 39.470 258.341,47.658 253.971,51.657 251.870 C 53.998 250.639,56.698 249.201,57.657 248.674 C 58.616 248.147,62.100 246.313,65.400 244.598 C 68.700 242.883,71.580 241.351,71.800 241.193 C 72.219 240.892,76.377 238.666,82.800 235.303 C 93.564 229.667,96.419 228.151,98.800 226.807 C 100.230 225.999,102.930 224.557,104.800 223.602 C 106.670 222.646,108.830 221.506,109.600 221.068 C 111.258 220.124,114.764 218.267,121.606 214.708 C 124.359 213.276,128.229 211.210,130.206 210.118 C 132.182 209.026,136.140 206.904,139.000 205.404 C 145.019 202.246,153.397 197.768,156.000 196.316 C 156.990 195.764,160.500 193.916,163.800 192.208 C 167.100 190.500,170.880 188.516,172.200 187.799 C 179.340 183.919,198.802 173.600,198.980 173.600 C 199.094 173.600,200.046 173.084,201.094 172.453 C 202.142 171.822,204.710 170.414,206.800 169.323 C 208.890 168.233,212.220 166.476,214.200 165.420 C 216.180 164.365,219.240 162.736,221.000 161.801 C 222.760 160.865,225.640 159.335,227.400 158.400 C 229.160 157.465,232.040 155.936,233.800 155.003 C 235.560 154.070,238.440 152.537,240.200 151.596 C 241.960 150.655,245.110 148.983,247.200 147.882 C 249.290 146.780,256.400 142.996,263.000 139.472 C 269.600 135.949,276.800 132.120,279.000 130.964 C 281.200 129.807,283.990 128.324,285.200 127.669 C 286.410 127.013,288.300 126.016,289.400 125.453 C 290.500 124.890,293.110 123.505,295.200 122.374 C 301.469 118.984,304.386 117.425,308.800 115.111 C 311.110 113.900,314.530 112.088,316.400 111.085 C 322.275 107.934,336.422 100.412,340.800 98.111 C 350.404 93.063,349.931 93.476,348.522 91.389 C 336.537 73.638,312.218 51.934,291.400 40.408 C 285.449 37.114,280.800 34.790,280.800 35.110 M379.780 171.559 C 379.571 171.756,377.690 172.814,375.600 173.911 C 371.920 175.842,354.097 185.268,348.000 188.509 C 341.379 192.027,338.456 193.580,335.400 195.201 C 333.640 196.135,331.120 197.484,329.800 198.198 C 325.829 200.348,321.240 202.790,316.800 205.116 C 314.490 206.326,311.790 207.769,310.800 208.322 C 309.810 208.875,307.650 210.013,306.000 210.850 C 304.350 211.687,302.100 212.886,301.000 213.515 C 299.900 214.144,296.570 215.928,293.600 217.480 C 288.555 220.116,273.329 228.197,267.000 231.599 C 263.443 233.510,258.353 236.209,254.000 238.493 C 249.261 240.979,244.492 243.537,242.600 244.609 C 241.720 245.107,239.252 246.427,237.115 247.541 C 234.978 248.655,231.828 250.327,230.115 251.257 C 228.402 252.187,226.280 253.297,225.400 253.725 C 224.520 254.152,221.730 255.624,219.200 256.996 C 216.670 258.368,212.890 260.390,210.800 261.490 C 208.710 262.590,205.560 264.256,203.800 265.192 C 197.580 268.499,193.768 270.529,191.000 272.010 C 189.460 272.834,186.490 274.413,184.400 275.520 C 182.310 276.627,178.620 278.598,176.200 279.900 C 173.780 281.201,169.280 283.580,166.200 285.184 C 163.120 286.789,160.420 288.236,160.200 288.400 C 159.980 288.564,157.280 290.004,154.200 291.600 C 151.120 293.196,148.420 294.635,148.200 294.798 C 147.980 294.961,145.640 296.220,143.000 297.595 C 140.360 298.970,136.940 300.771,135.400 301.599 C 133.860 302.426,130.890 304.002,128.800 305.101 C 124.531 307.344,119.959 309.770,115.800 311.998 C 114.260 312.823,111.200 314.447,109.000 315.608 C 106.800 316.769,104.190 318.165,103.200 318.710 C 101.244 319.789,96.948 322.077,91.600 324.889 C 89.730 325.873,86.310 327.686,84.000 328.918 C 81.690 330.151,78.630 331.781,77.200 332.541 C 73.914 334.287,73.861 334.071,78.606 338.262 C 92.356 350.407,107.258 359.941,125.400 368.202 C 133.268 371.784,149.819 377.416,156.600 378.817 C 157.480 378.999,159.460 379.429,161.000 379.773 C 165.957 380.879,166.209 380.919,165.867 380.555 C 165.684 380.360,163.974 379.876,162.067 379.481 C 155.999 378.221,155.291 378.050,150.903 376.779 C 143.348 374.591,133.617 371.250,129.200 369.328 C 128.430 368.993,127.440 368.572,127.000 368.392 C 121.754 366.252,109.579 359.859,103.600 356.105 C 99.232 353.362,98.069 352.603,93.956 349.805 C 88.414 346.035,74.723 334.683,75.225 334.273 C 75.588 333.977,79.983 331.602,85.000 328.990 C 87.860 327.501,91.802 325.395,93.760 324.309 C 95.717 323.223,97.697 322.166,98.160 321.960 C 99.098 321.541,102.268 319.860,116.200 312.398 C 120.802 309.933,125.131 307.637,130.000 305.079 C 132.530 303.749,136.017 301.883,137.749 300.931 C 139.480 299.979,140.969 299.200,141.056 299.200 C 141.143 299.200,144.316 297.518,148.107 295.462 C 151.898 293.407,155.540 291.453,156.200 291.121 C 157.737 290.347,163.826 287.124,166.970 285.420 C 168.307 284.695,171.110 283.203,173.200 282.104 C 175.290 281.005,177.810 279.660,178.800 279.115 C 179.790 278.571,182.760 276.988,185.400 275.599 C 188.040 274.209,190.830 272.714,191.600 272.276 C 192.370 271.838,195.340 270.273,198.200 268.799 C 201.060 267.324,205.200 265.131,207.400 263.926 C 209.600 262.720,213.740 260.511,216.600 259.016 C 219.460 257.521,222.880 255.711,224.200 254.994 C 225.520 254.276,227.950 252.972,229.600 252.096 C 231.250 251.220,233.680 249.921,235.000 249.210 C 239.409 246.835,243.762 244.520,248.000 242.299 C 250.310 241.088,253.190 239.560,254.400 238.903 C 255.610 238.246,258.130 236.901,260.000 235.913 C 261.870 234.926,265.976 232.736,269.124 231.048 C 272.273 229.359,276.953 226.881,279.524 225.540 C 282.096 224.199,285.100 222.607,286.200 222.001 C 287.300 221.395,290.000 219.958,292.200 218.808 C 294.400 217.657,297.100 216.216,298.200 215.604 C 299.300 214.993,304.880 212.020,310.600 208.998 C 316.320 205.976,322.260 202.827,323.800 202.001 C 325.340 201.174,328.400 199.549,330.600 198.389 C 332.800 197.228,335.580 195.749,336.778 195.102 C 337.975 194.455,341.215 192.745,343.978 191.303 C 346.740 189.860,349.180 188.550,349.400 188.391 C 349.620 188.232,352.320 186.795,355.400 185.196 C 358.480 183.598,361.540 181.974,362.200 181.588 C 363.348 180.915,364.833 180.128,375.200 174.697 C 377.730 173.372,380.033 172.104,380.317 171.881 C 381.283 171.121,381.610 172.203,382.417 178.828 C 384.766 198.126,383.411 222.626,378.976 241.056 C 377.979 245.198,377.809 246.324,378.247 245.887 C 378.492 245.641,380.060 238.915,380.809 234.900 C 381.828 229.427,382.076 227.885,382.620 223.600 C 384.081 212.090,384.420 189.030,383.247 181.000 C 383.022 179.460,382.630 176.625,382.377 174.700 C 381.909 171.138,381.171 170.246,379.780 171.559 M0.257 188.059 C -0.084 191.322,0.001 210.407,0.369 213.200 C 0.528 214.410,0.673 208.695,0.690 200.500 C 0.708 192.305,0.675 185.600,0.618 185.600 C 0.561 185.600,0.398 186.706,0.257 188.059 M399.635 204.400 C 399.563 204.510,399.349 207.570,399.159 211.200 C 398.970 214.830,398.654 219.240,398.458 221.000 C 397.645 228.311,397.147 231.865,396.785 232.960 C 396.573 233.598,396.400 234.665,396.400 235.331 C 396.400 235.998,396.225 237.096,396.011 237.772 C 395.797 238.447,395.271 240.800,394.842 243.000 C 394.094 246.839,392.749 252.297,392.033 254.400 C 391.846 254.950,391.462 256.210,391.180 257.200 C 389.228 264.058,386.184 272.399,383.323 278.729 C 382.596 280.340,382.000 281.756,382.000 281.875 C 382.000 282.870,371.577 302.331,369.147 305.872 C 368.516 306.792,368.000 307.649,368.000 307.778 C 368.000 308.112,359.770 319.780,357.686 322.400 C 356.723 323.610,355.280 325.374,354.480 326.319 C 353.679 327.265,352.928 328.186,352.812 328.366 C 351.558 330.303,336.932 345.420,333.600 348.222 C 331.482 350.004,326.227 354.569,326.000 354.826 C 325.438 355.460,309.800 366.800,309.488 366.800 C 309.391 366.800,307.965 367.687,306.321 368.772 C 304.676 369.856,302.446 371.237,301.365 371.842 C 300.284 372.446,298.320 373.547,297.000 374.288 C 294.599 375.636,282.815 381.476,279.800 382.812 C 275.598 384.674,273.842 385.554,274.289 385.576 C 274.557 385.589,275.727 385.181,276.889 384.670 C 278.050 384.158,279.810 383.395,280.800 382.973 C 286.957 380.353,303.568 371.544,303.933 370.706 C 304.007 370.538,304.230 370.400,304.430 370.400 C 305.480 370.400,318.115 361.676,325.200 356.059 C 337.192 346.551,350.015 333.408,359.264 321.141 C 362.837 316.403,367.600 309.693,367.600 309.399 C 367.600 309.305,368.577 307.714,369.771 305.863 C 375.097 297.606,382.426 283.126,385.998 273.800 C 386.936 271.350,387.735 269.306,388.030 268.600 C 388.301 267.953,390.442 261.315,392.814 253.772 C 393.026 253.096,393.200 252.162,393.200 251.695 C 393.200 251.229,393.356 250.751,393.546 250.633 C 393.736 250.516,393.997 249.830,394.125 249.110 C 394.253 248.389,394.641 246.540,394.986 245.000 C 397.237 234.964,397.851 231.115,399.200 218.600 C 399.875 212.332,400.142 203.619,399.635 204.400 M1.028 219.400 C 1.244 223.376,1.883 228.635,2.412 230.800 C 2.644 231.748,2.685 231.102,2.542 228.800 C 2.425 226.930,2.166 224.770,1.967 224.000 C 1.768 223.230,1.582 221.610,1.555 220.400 C 1.528 219.190,1.354 217.660,1.168 217.000 C 0.952 216.231,0.902 217.094,1.028 219.400 M2.813 233.233 C 2.821 233.765,3.182 235.910,3.616 238.000 C 4.050 240.090,4.596 242.790,4.829 244.000 C 5.062 245.210,5.604 247.460,6.034 249.000 C 6.464 250.540,7.015 252.520,7.257 253.400 C 8.135 256.584,8.864 259.016,9.175 259.800 C 9.350 260.240,9.897 261.950,10.389 263.600 C 10.882 265.250,11.514 267.140,11.793 267.800 C 12.072 268.460,13.066 270.980,14.002 273.400 C 16.775 280.573,22.571 292.760,25.834 298.279 C 26.805 299.922,27.600 301.369,27.600 301.495 C 27.600 301.621,28.050 302.314,28.600 303.036 C 29.150 303.757,29.600 304.475,29.600 304.632 C 29.600 305.465,39.175 319.115,44.028 325.202 C 54.610 338.473,71.926 354.825,83.865 362.821 C 84.340 363.139,86.050 364.317,87.665 365.438 C 108.024 379.571,136.842 391.626,160.800 396.030 C 161.790 396.212,164.130 396.655,166.000 397.014 C 167.870 397.374,170.660 397.823,172.200 398.013 C 198.854 401.296,219.331 400.441,244.600 394.991 C 250.951 393.621,267.061 388.851,268.200 388.003 C 268.420 387.840,269.590 387.390,270.800 387.004 C 273.043 386.288,274.721 385.261,272.800 385.780 C 272.250 385.929,271.440 386.205,271.000 386.393 C 269.329 387.109,264.469 388.798,261.200 389.799 C 259.330 390.371,257.487 391.011,257.105 391.220 C 256.723 391.429,255.988 391.600,255.472 391.600 C 254.956 391.600,254.407 391.727,254.252 391.882 C 253.911 392.222,247.672 393.844,243.800 394.597 C 242.260 394.897,240.100 395.349,239.000 395.600 C 235.373 396.431,228.008 397.551,220.000 398.491 C 214.434 399.144,186.997 399.140,180.800 398.485 C 173.788 397.744,166.967 396.730,161.600 395.631 C 150.837 393.428,150.539 393.359,147.800 392.432 C 146.480 391.985,145.083 391.615,144.695 391.610 C 144.307 391.604,143.677 391.437,143.295 391.239 C 142.913 391.040,140.530 390.219,138.000 389.414 C 132.807 387.761,125.590 385.122,122.600 383.784 C 121.500 383.291,119.610 382.476,118.400 381.972 C 116.135 381.029,104.951 375.386,101.400 373.394 C 100.300 372.777,99.049 372.076,98.620 371.836 C 98.192 371.596,97.652 371.262,97.420 371.094 C 96.247 370.242,93.938 368.800,93.744 368.800 C 92.983 368.800,80.372 359.753,74.000 354.636 C 67.316 349.268,55.677 338.235,52.230 334.000 C 51.603 333.230,50.135 331.520,48.967 330.200 C 35.968 315.503,23.797 295.772,15.782 276.400 C 14.736 273.870,13.656 271.260,13.384 270.600 C 13.112 269.940,12.759 268.950,12.600 268.400 C 12.441 267.850,12.087 266.860,11.813 266.200 C 11.151 264.606,8.719 256.743,7.422 252.000 C 6.850 249.910,6.208 247.570,5.996 246.800 C 5.784 246.030,5.411 244.320,5.167 243.000 C 4.923 241.680,4.549 239.880,4.336 239.000 C 4.123 238.120,3.799 236.353,3.615 235.074 C 3.267 232.652,2.790 231.557,2.813 233.233 M377.049 248.823 C 374.692 256.934,372.904 262.222,370.700 267.600 C 368.879 272.040,368.516 273.173,369.096 272.600 C 370.327 271.382,378.212 248.397,377.919 246.877 C 377.853 246.530,377.461 247.405,377.049 248.823 " stroke="none" fill="#d7e2e3" fill-rule="evenodd"></path><path id="path8" d="M276.880 36.670 C 275.055 37.673,273.639 38.573,273.736 38.669 C 273.887 38.820,280.270 35.464,280.756 34.978 C 281.336 34.397,279.774 35.079,276.880 36.670 M263.709 43.732 C 258.599 46.436,254.286 48.781,254.124 48.943 C 253.593 49.474,258.699 46.976,263.400 44.405 C 264.500 43.803,267.020 42.451,269.000 41.400 C 272.245 39.677,273.682 38.786,273.180 38.808 C 273.081 38.812,268.819 41.028,263.709 43.732 M246.501 52.870 C 242.706 54.886,239.674 56.608,239.764 56.697 C 239.936 56.869,252.733 50.155,253.380 49.554 C 254.125 48.860,253.314 49.251,246.501 52.870 M232.800 60.129 C 212.242 71.069,211.140 71.674,211.369 71.903 C 211.486 72.019,211.810 71.934,212.090 71.715 C 212.371 71.495,214.310 70.413,216.400 69.311 C 225.241 64.648,227.161 63.630,230.200 62.001 C 231.960 61.058,234.570 59.661,236.000 58.898 C 238.334 57.651,239.674 56.774,239.180 56.815 C 239.081 56.823,236.210 58.315,232.800 60.129 M209.389 72.534 C 208.705 72.997,202.092 76.526,198.063 78.578 C 197.327 78.953,196.828 79.361,196.953 79.486 C 197.078 79.612,197.410 79.535,197.690 79.316 C 197.971 79.097,200.900 77.522,204.200 75.816 C 207.500 74.110,210.371 72.554,210.580 72.357 C 211.179 71.794,210.286 71.927,209.389 72.534 M194.600 80.459 C 189.954 82.852,186.361 84.895,186.520 85.053 C 186.618 85.151,187.576 84.751,188.649 84.164 C 189.722 83.577,191.770 82.476,193.200 81.718 C 195.495 80.501,196.911 79.565,196.380 79.618 C 196.281 79.627,195.480 80.006,194.600 80.459 M184.000 86.032 C 183.230 86.464,178.507 89.006,173.505 91.680 C 168.502 94.354,164.485 96.619,164.579 96.712 C 164.672 96.805,166.155 96.113,167.874 95.174 C 169.593 94.235,172.440 92.715,174.200 91.796 C 183.781 86.796,185.433 85.907,185.780 85.570 C 186.418 84.949,185.508 85.185,184.000 86.032 M154.400 101.837 C 149.230 104.601,142.750 108.039,140.000 109.478 C 135.313 111.930,133.874 112.800,134.506 112.800 C 134.652 112.800,135.543 112.373,136.486 111.850 C 137.429 111.328,140.270 109.827,142.800 108.514 C 145.330 107.202,148.210 105.673,149.200 105.117 C 150.190 104.561,152.530 103.295,154.400 102.305 C 163.187 97.649,164.699 96.782,163.980 96.806 C 163.881 96.810,159.570 99.073,154.400 101.837 M131.273 114.084 C 130.103 114.742,129.218 115.351,129.305 115.438 C 129.481 115.615,134.000 113.239,134.000 112.970 C 134.000 112.646,133.389 112.895,131.273 114.084 M127.389 116.134 C 126.705 116.597,120.092 120.126,116.063 122.178 C 115.327 122.553,114.822 122.955,114.939 123.072 C 115.056 123.190,116.108 122.751,117.276 122.097 C 118.444 121.443,121.380 119.871,123.800 118.604 C 126.220 117.336,128.371 116.142,128.580 115.949 C 129.187 115.391,128.279 115.532,127.389 116.134 M110.600 125.133 C 108.620 126.184,105.200 128.001,103.000 129.171 C 100.800 130.340,94.590 133.635,89.200 136.492 C 83.810 139.349,78.500 142.185,77.400 142.794 C 76.300 143.404,73.600 144.850,71.400 146.008 C 69.200 147.165,66.500 148.604,65.400 149.206 C 64.300 149.807,62.437 150.784,61.260 151.376 C 60.083 151.969,59.199 152.533,59.296 152.629 C 59.393 152.726,60.355 152.337,61.436 151.765 C 68.416 148.070,71.236 146.567,73.000 145.602 C 75.245 144.373,80.024 141.828,85.400 138.997 C 87.380 137.954,90.260 136.425,91.800 135.598 C 93.340 134.772,96.580 133.061,99.000 131.795 C 103.343 129.524,107.307 127.416,111.600 125.093 C 113.620 124.000,114.824 123.184,114.380 123.211 C 114.281 123.216,112.580 124.081,110.600 125.133 M51.509 156.520 C 47.829 158.518,44.893 160.226,44.983 160.317 C 45.074 160.407,46.465 159.770,48.074 158.901 C 49.683 158.032,52.620 156.459,54.600 155.405 C 58.168 153.506,59.332 152.756,58.580 152.844 C 58.371 152.869,55.189 154.523,51.509 156.520 M39.272 163.047 C 36.562 164.494,34.426 165.759,34.525 165.858 C 34.624 165.958,35.312 165.702,36.053 165.289 C 36.794 164.876,38.975 163.683,40.900 162.637 C 42.825 161.591,44.400 160.660,44.400 160.568 C 44.400 160.307,44.476 160.270,39.272 163.047 M26.709 169.705 C 23.028 171.710,20.092 173.425,20.183 173.516 C 20.274 173.607,21.665 172.970,23.274 172.101 C 24.883 171.232,27.820 169.659,29.800 168.605 C 31.780 167.551,33.571 166.534,33.780 166.344 C 34.777 165.441,32.878 166.343,26.709 169.705 M365.389 274.136 C 364.596 274.674,361.055 276.592,354.000 280.302 C 351.910 281.401,349.210 282.835,348.000 283.489 C 346.790 284.142,343.820 285.717,341.400 286.989 C 338.980 288.262,336.100 289.799,335.000 290.406 C 333.900 291.013,331.560 292.270,329.800 293.200 C 328.040 294.131,326.420 295.079,326.200 295.308 C 325.736 295.791,329.051 294.062,349.800 283.000 C 354.640 280.419,360.310 277.405,362.400 276.301 C 364.490 275.197,366.371 274.137,366.580 273.947 C 367.191 273.389,366.274 273.535,365.389 274.136 M322.800 296.935 C 321.853 297.438,318.501 299.204,309.400 303.994 C 307.200 305.152,304.500 306.589,303.400 307.187 C 302.300 307.785,299.645 309.215,297.500 310.365 C 295.355 311.514,293.600 312.535,293.600 312.634 C 293.600 312.857,296.343 311.476,302.800 308.001 C 305.550 306.521,309.780 304.274,312.200 303.007 C 320.195 298.822,324.000 296.748,324.000 296.573 C 324.000 296.321,323.903 296.350,322.800 296.935 M290.200 314.160 C 288.880 314.887,286.180 316.345,284.200 317.399 C 282.220 318.453,279.250 320.042,277.600 320.930 C 275.950 321.817,274.094 322.800,273.475 323.114 C 272.856 323.427,272.437 323.771,272.544 323.877 C 272.650 323.984,274.057 323.354,275.669 322.478 C 280.035 320.106,282.465 318.806,288.100 315.827 C 290.905 314.344,293.200 313.057,293.200 312.966 C 293.200 312.612,292.512 312.886,290.200 314.160 M267.398 326.333 C 259.752 330.341,256.612 332.070,256.200 332.497 C 255.980 332.726,258.500 331.514,261.800 329.806 C 268.755 326.204,272.000 324.412,272.000 324.171 C 272.000 323.914,272.111 323.862,267.398 326.333 M253.201 333.849 C 250.391 335.394,250.317 335.826,253.100 334.437 C 254.475 333.750,255.600 333.101,255.600 332.994 C 255.600 332.642,255.022 332.848,253.201 333.849 M245.900 337.752 C 242.108 339.809,240.675 340.730,242.147 340.165 C 242.544 340.012,244.325 339.103,246.104 338.144 C 247.883 337.185,249.477 336.400,249.646 336.400 C 249.815 336.400,250.064 336.220,250.200 336.000 C 250.642 335.286,249.865 335.602,245.900 337.752 M237.669 342.086 C 236.057 342.958,234.818 343.751,234.915 343.848 C 235.102 344.035,241.200 340.849,241.200 340.565 C 241.200 340.245,240.571 340.516,237.669 342.086 M232.400 344.937 C 231.410 345.430,229.250 346.567,227.600 347.464 C 223.208 349.853,216.961 353.197,209.800 356.991 C 208.260 357.807,206.820 358.663,206.600 358.894 C 206.172 359.342,214.136 355.222,223.400 350.203 C 224.720 349.488,227.600 347.963,229.800 346.814 C 233.275 344.999,234.997 343.949,234.380 344.021 C 234.281 344.033,233.390 344.445,232.400 344.937 M203.200 360.532 C 202.650 360.822,200.040 362.197,197.400 363.587 C 194.760 364.978,192.420 366.297,192.200 366.518 C 191.730 366.991,203.619 360.871,204.180 360.352 C 204.718 359.854,204.363 359.919,203.200 360.532 M189.600 367.739 C 187.914 368.580,183.178 371.104,178.600 373.603 C 177.500 374.203,175.998 375.001,175.263 375.377 C 174.527 375.752,174.005 376.139,174.103 376.236 C 174.200 376.333,175.702 375.629,177.440 374.672 C 179.178 373.714,182.940 371.710,185.800 370.218 C 190.331 367.855,192.217 366.747,191.580 366.821 C 191.481 366.833,190.590 367.246,189.600 367.739 M170.330 377.942 C 166.141 380.230,165.394 381.042,169.400 378.955 C 171.380 377.923,173.171 376.926,173.380 376.739 C 174.171 376.033,172.933 376.522,170.330 377.942 " stroke="none" fill="#fcd4cc" fill-rule="evenodd"></path></g></svg>