<svg id="svg" version="1.1" xmlns="http://www.w3.org/2000/svg" xmlns:xlink="http://www.w3.org/1999/xlink" width="400" height="375.64102564102564" viewBox="0, 0, 400,375.64102564102564"><g id="svgg"><path id="path0" d="M190.602 19.963 C 187.397 20.156,183.083 20.647,181.015 21.053 C 178.947 21.459,175.056 22.038,172.368 22.338 C 169.680 22.639,166.466 23.224,165.226 23.638 C 163.985 24.053,161.786 24.577,160.338 24.803 C 158.891 25.029,156.607 25.622,155.263 26.120 C 153.919 26.619,151.821 27.204,150.601 27.421 C 149.380 27.638,147.689 28.218,146.841 28.711 C 145.994 29.204,144.398 29.798,143.295 30.032 C 142.192 30.266,140.585 30.866,139.724 31.366 C 138.862 31.866,137.518 32.392,136.735 32.535 C 135.953 32.678,134.684 33.225,133.916 33.751 C 133.147 34.276,131.791 34.927,130.903 35.198 C 130.014 35.468,128.798 36.037,128.202 36.462 C 127.605 36.886,126.396 37.489,125.513 37.800 C 124.631 38.111,123.642 38.608,123.314 38.904 C 122.987 39.201,121.794 39.872,120.664 40.395 C 119.534 40.919,118.186 41.664,117.669 42.051 C 117.152 42.437,115.461 43.484,113.910 44.377 C 110.287 46.462,106.093 49.195,105.809 49.653 C 105.687 49.850,104.965 50.351,104.204 50.767 C 103.442 51.183,101.889 52.285,100.752 53.216 C 99.615 54.147,98.012 55.370,97.191 55.932 C 96.369 56.495,95.420 57.209,95.080 57.519 C 94.741 57.829,93.045 59.338,91.311 60.872 C 84.004 67.334,75.087 76.826,69.549 84.033 C 68.825 84.975,67.683 86.394,67.011 87.185 C 66.339 87.977,65.789 88.777,65.789 88.962 C 65.789 89.148,65.155 90.093,64.380 91.063 C 62.511 93.401,61.418 95.032,60.706 96.547 C 60.384 97.232,59.619 98.484,59.007 99.329 C 58.395 100.173,57.895 101.069,57.895 101.319 C 57.895 101.569,57.312 102.510,56.600 103.411 C 55.887 104.311,55.202 105.457,55.076 105.958 C 54.950 106.460,54.450 107.396,53.964 108.040 C 53.479 108.684,52.906 109.858,52.691 110.650 C 52.476 111.441,51.880 112.639,51.367 113.312 C 50.854 113.985,50.317 115.157,50.175 115.916 C 50.032 116.675,49.446 117.887,48.872 118.609 C 48.298 119.331,47.711 120.549,47.567 121.315 C 47.424 122.080,46.830 123.646,46.247 124.793 C 45.665 125.941,45.073 127.547,44.932 128.363 C 44.791 129.178,44.242 130.701,43.712 131.746 C 43.182 132.791,42.508 134.831,42.215 136.278 C 41.921 137.726,41.364 139.586,40.977 140.414 C 40.589 141.241,40.098 143.206,39.884 144.780 C 39.670 146.355,39.075 148.808,38.561 150.231 C 37.920 152.008,37.447 154.587,37.051 158.459 C 36.734 161.560,36.211 165.028,35.888 166.165 C 34.409 171.384,34.422 198.824,35.907 204.887 C 36.236 206.231,36.755 209.697,37.061 212.589 C 37.433 216.113,37.984 218.998,38.733 221.335 C 39.347 223.252,39.853 225.369,39.858 226.038 C 39.862 226.708,40.290 228.440,40.808 229.887 C 41.327 231.335,41.990 233.733,42.281 235.217 C 42.572 236.701,43.229 238.562,43.740 239.353 C 44.251 240.143,44.787 241.551,44.930 242.481 C 45.074 243.412,45.661 245.019,46.235 246.053 C 46.809 247.086,47.396 248.595,47.540 249.405 C 47.684 250.215,48.212 251.415,48.714 252.073 C 49.215 252.730,49.852 254.013,50.129 254.924 C 50.406 255.834,51.082 257.237,51.632 258.041 C 52.182 258.845,52.632 259.784,52.632 260.126 C 52.632 260.469,53.219 261.672,53.938 262.799 C 54.656 263.927,55.248 265.107,55.254 265.422 C 55.259 265.737,55.747 266.582,56.338 267.302 C 56.929 268.021,57.528 268.975,57.668 269.422 C 57.809 269.869,58.419 270.857,59.023 271.617 C 59.627 272.377,60.232 273.348,60.367 273.775 C 60.503 274.202,61.453 275.752,62.480 277.219 C 63.506 278.687,64.865 280.691,65.500 281.673 C 66.135 282.655,66.766 283.459,66.904 283.459 C 67.042 283.459,67.535 284.135,68.000 284.962 C 68.465 285.789,68.990 286.466,69.166 286.466 C 69.343 286.466,69.870 287.101,70.337 287.876 C 73.495 293.119,89.979 309.574,98.486 315.977 C 99.585 316.805,101.010 317.910,101.652 318.434 C 102.294 318.957,103.496 319.843,104.323 320.401 C 105.150 320.959,107.180 322.347,108.835 323.486 C 110.489 324.625,111.984 325.558,112.157 325.560 C 112.330 325.562,113.175 326.049,114.036 326.642 C 116.294 328.198,117.999 329.209,119.925 330.132 C 120.855 330.578,122.209 331.334,122.932 331.810 C 123.656 332.287,125.001 332.942,125.921 333.266 C 126.841 333.590,127.856 334.090,128.177 334.379 C 128.497 334.667,129.690 335.268,130.827 335.714 C 131.964 336.160,133.148 336.751,133.459 337.026 C 133.769 337.301,134.953 337.811,136.090 338.160 C 137.227 338.508,138.919 339.186,139.850 339.666 C 140.780 340.146,142.218 340.654,143.045 340.796 C 143.872 340.937,145.485 341.528,146.630 342.109 C 147.774 342.690,149.645 343.338,150.786 343.549 C 151.927 343.760,153.782 344.288,154.908 344.723 C 156.034 345.159,158.393 345.769,160.150 346.079 C 161.908 346.390,164.276 346.990,165.414 347.414 C 166.702 347.894,169.535 348.382,172.932 348.710 C 175.930 348.999,179.314 349.489,180.451 349.799 C 186.255 351.382,212.063 351.521,219.128 350.007 C 221.068 349.591,225.043 349.009,227.963 348.714 C 230.882 348.418,233.936 347.894,234.750 347.550 C 235.563 347.206,237.847 346.609,239.825 346.222 C 241.803 345.836,244.644 345.090,246.140 344.564 C 247.635 344.039,249.352 343.609,249.955 343.609 C 250.558 343.609,251.983 343.119,253.122 342.520 C 254.260 341.921,256.081 341.240,257.166 341.008 C 258.252 340.775,259.918 340.173,260.867 339.671 C 261.817 339.169,263.291 338.580,264.143 338.362 C 264.994 338.145,266.130 337.622,266.666 337.201 C 267.202 336.779,268.470 336.188,269.483 335.887 C 270.496 335.586,271.743 335.011,272.253 334.610 C 272.764 334.208,274.014 333.553,275.031 333.153 C 276.048 332.753,278.064 331.737,279.511 330.896 C 280.959 330.054,282.989 328.910,284.023 328.354 C 285.056 327.798,286.380 326.942,286.965 326.453 C 287.549 325.964,288.226 325.562,288.469 325.560 C 288.711 325.558,290.263 324.620,291.917 323.476 C 293.571 322.332,295.728 320.870,296.711 320.228 C 297.693 319.586,298.496 318.927,298.496 318.765 C 298.496 318.602,299.173 318.089,300.000 317.624 C 300.827 317.159,301.504 316.655,301.504 316.503 C 301.504 316.351,302.130 315.840,302.896 315.367 C 308.161 312.112,327.415 292.893,330.297 288.014 C 330.678 287.370,331.105 286.842,331.247 286.842 C 331.389 286.842,331.862 286.292,332.298 285.620 C 332.735 284.948,333.853 283.383,334.784 282.143 C 335.714 280.902,336.769 279.397,337.129 278.798 C 337.488 278.199,338.223 277.184,338.762 276.542 C 339.301 275.901,339.942 274.762,340.186 274.012 C 340.430 273.261,340.949 272.358,341.339 272.005 C 341.729 271.652,342.512 270.448,343.078 269.328 C 343.645 268.209,344.236 267.293,344.393 267.293 C 344.550 267.293,344.871 266.709,345.107 265.996 C 345.342 265.282,345.969 264.060,346.499 263.278 C 347.029 262.497,347.702 261.178,347.994 260.346 C 348.286 259.515,348.903 258.242,349.364 257.519 C 349.826 256.795,350.435 255.526,350.719 254.699 C 351.003 253.872,351.552 252.788,351.940 252.290 C 352.328 251.793,352.920 250.439,353.256 249.283 C 353.592 248.127,354.102 246.820,354.390 246.380 C 354.679 245.939,355.235 244.457,355.627 243.086 C 356.019 241.715,356.759 239.707,357.270 238.624 C 357.782 237.540,358.373 235.721,358.583 234.580 C 358.793 233.439,359.312 231.623,359.737 230.546 C 360.162 229.468,360.688 227.441,360.906 226.041 C 361.123 224.641,361.710 222.227,362.208 220.677 C 362.707 219.126,363.308 215.912,363.545 213.534 C 363.781 211.156,364.305 207.519,364.708 205.451 C 366.463 196.463,366.458 174.355,364.699 165.226 C 364.300 163.158,363.784 159.605,363.552 157.331 C 363.320 155.056,362.719 151.927,362.216 150.376 C 361.713 148.825,361.122 146.403,360.903 144.993 C 360.683 143.583,360.167 141.553,359.756 140.482 C 359.344 139.410,358.762 137.372,358.462 135.952 C 358.162 134.532,357.577 132.795,357.162 132.091 C 356.747 131.388,356.136 129.759,355.803 128.470 C 355.471 127.182,354.888 125.536,354.507 124.812 C 354.126 124.088,353.525 122.522,353.171 121.332 C 352.817 120.141,352.219 118.813,351.844 118.379 C 351.468 117.946,350.871 116.806,350.517 115.845 C 350.162 114.884,349.661 113.844,349.402 113.534 C 349.143 113.224,348.577 112.069,348.144 110.968 C 347.711 109.867,346.937 108.347,346.423 107.591 C 345.909 106.835,345.489 106.021,345.489 105.782 C 345.489 105.543,344.897 104.487,344.173 103.435 C 343.449 102.383,342.857 101.391,342.856 101.231 C 342.856 101.071,342.179 99.944,341.352 98.727 C 340.526 97.511,339.850 96.310,339.850 96.060 C 339.850 95.810,339.494 95.283,339.059 94.890 C 338.625 94.497,338.021 93.696,337.719 93.111 C 337.071 91.859,333.866 87.426,331.015 83.838 C 330.395 83.058,329.211 81.525,328.383 80.431 C 327.556 79.338,326.372 77.896,325.752 77.228 C 325.132 76.560,323.440 74.729,321.992 73.159 C 318.062 68.895,314.037 64.989,308.022 59.602 C 307.782 59.387,306.622 58.449,305.444 57.519 C 304.267 56.588,302.580 55.235,301.696 54.511 C 300.812 53.788,299.119 52.519,297.934 51.692 C 296.749 50.865,295.223 49.765,294.542 49.248 C 293.862 48.731,292.754 47.970,292.080 47.556 C 288.396 45.295,286.092 43.929,284.519 43.075 C 283.552 42.549,282.642 41.928,282.497 41.695 C 282.353 41.461,281.356 40.881,280.283 40.406 C 279.210 39.932,277.685 39.105,276.895 38.569 C 276.105 38.033,275.177 37.594,274.833 37.594 C 274.489 37.594,273.412 37.089,272.439 36.473 C 271.467 35.856,270.207 35.244,269.640 35.114 C 269.073 34.983,267.993 34.462,267.239 33.956 C 266.486 33.450,265.001 32.807,263.940 32.527 C 262.879 32.247,261.435 31.678,260.732 31.263 C 260.028 30.848,258.386 30.235,257.082 29.901 C 255.778 29.567,254.148 28.961,253.459 28.555 C 252.770 28.148,250.991 27.564,249.506 27.256 C 248.020 26.948,245.928 26.362,244.857 25.953 C 243.785 25.545,241.755 25.028,240.345 24.805 C 238.935 24.582,236.513 23.994,234.962 23.498 C 233.234 22.945,230.324 22.436,227.444 22.183 C 224.859 21.956,221.729 21.513,220.489 21.197 C 216.006 20.059,199.972 19.396,190.602 19.963 M208.647 33.434 C 213.092 33.829,216.983 34.243,217.293 34.353 C 217.603 34.463,220.093 34.735,222.825 34.957 C 226.095 35.223,228.732 35.668,230.542 36.258 C 232.054 36.752,234.471 37.321,235.912 37.524 C 237.354 37.726,239.464 38.251,240.602 38.691 C 241.739 39.130,243.899 39.748,245.401 40.062 C 246.904 40.377,248.721 40.981,249.438 41.404 C 250.156 41.828,251.718 42.427,252.909 42.736 C 254.100 43.045,255.583 43.606,256.203 43.982 C 256.823 44.358,258.177 44.920,259.211 45.231 C 260.244 45.543,263.056 46.809,265.459 48.046 C 267.861 49.283,270.226 50.421,270.713 50.575 C 271.200 50.730,272.425 51.425,273.436 52.120 C 274.446 52.815,275.486 53.383,275.748 53.383 C 276.010 53.383,276.446 53.651,276.717 53.978 C 276.989 54.305,278.151 55.071,279.301 55.681 C 283.094 57.691,291.568 63.630,296.053 67.419 C 306.580 76.315,318.221 88.503,321.992 94.579 C 322.406 95.246,323.506 96.756,324.436 97.935 C 325.994 99.909,326.685 100.953,328.760 104.469 C 329.173 105.169,330.074 106.601,330.761 107.650 C 331.449 108.700,332.261 110.154,332.565 110.883 C 332.870 111.612,333.421 112.548,333.790 112.965 C 334.159 113.381,334.766 114.568,335.139 115.602 C 335.512 116.635,336.048 117.749,336.331 118.076 C 336.614 118.404,337.125 119.503,337.466 120.520 C 337.808 121.537,338.465 122.824,338.926 123.380 C 339.387 123.937,339.973 125.263,340.229 126.328 C 340.484 127.393,341.083 128.968,341.559 129.828 C 342.035 130.688,342.542 132.068,342.686 132.895 C 342.829 133.722,343.359 135.234,343.862 136.254 C 344.365 137.275,345.105 139.521,345.507 141.245 C 345.909 142.968,346.490 144.982,346.798 145.719 C 347.106 146.456,347.543 148.186,347.769 149.564 C 347.996 150.941,348.580 153.590,349.068 155.451 C 349.556 157.312,350.132 160.695,350.348 162.970 C 350.564 165.244,350.899 168.628,351.092 170.489 C 352.510 184.104,352.502 185.342,350.899 202.256 C 350.051 211.202,348.645 218.733,346.723 224.624 C 346.183 226.278,345.522 228.786,345.253 230.197 C 344.984 231.608,344.425 233.311,344.010 233.982 C 343.595 234.653,343.019 236.205,342.729 237.432 C 342.439 238.658,341.757 240.490,341.214 241.503 C 340.670 242.516,340.226 243.625,340.226 243.967 C 340.226 244.309,338.957 247.114,337.406 250.200 C 335.855 253.287,334.586 255.997,334.586 256.222 C 334.586 256.448,334.084 257.298,333.469 258.110 C 332.855 258.922,332.347 259.785,332.341 260.028 C 332.336 260.270,331.931 260.947,331.442 261.531 C 330.954 262.116,330.169 263.355,329.699 264.286 C 329.229 265.216,328.445 266.456,327.956 267.040 C 327.467 267.625,327.068 268.338,327.068 268.625 C 327.068 268.912,326.598 269.702,326.023 270.382 C 325.448 271.061,324.495 272.336,323.904 273.214 C 323.313 274.093,322.711 274.812,322.566 274.812 C 322.420 274.812,322.094 275.266,321.841 275.821 C 321.292 277.026,320.606 277.893,315.265 284.128 C 309.911 290.378,301.257 298.899,295.969 303.127 C 291.770 306.484,283.630 312.406,283.215 312.406 C 282.967 312.406,282.286 312.806,281.702 313.294 C 281.117 313.783,279.878 314.567,278.947 315.037 C 278.017 315.506,277.162 316.036,277.047 316.213 C 276.822 316.562,275.025 317.539,268.583 320.816 C 266.294 321.980,264.254 322.932,264.051 322.932 C 263.847 322.932,263.097 323.363,262.385 323.888 C 261.673 324.414,260.181 325.109,259.070 325.432 C 257.959 325.756,256.521 326.328,255.874 326.705 C 255.228 327.081,253.600 327.669,252.256 328.012 C 250.912 328.354,249.299 328.949,248.673 329.334 C 248.046 329.720,246.236 330.303,244.650 330.630 C 243.064 330.958,241.147 331.485,240.389 331.801 C 239.631 332.118,237.128 332.774,234.825 333.259 C 232.523 333.744,229.962 334.323,229.135 334.546 C 222.082 336.449,200.157 337.769,190.414 336.878 C 180.456 335.968,174.373 335.253,172.086 334.726 C 170.794 334.427,167.762 333.780,165.349 333.286 C 162.935 332.792,160.604 332.198,160.169 331.965 C 159.733 331.732,157.871 331.212,156.030 330.810 C 154.189 330.409,152.121 329.756,151.435 329.359 C 150.749 328.963,149.161 328.381,147.905 328.066 C 146.649 327.751,144.806 327.059,143.808 326.529 C 142.810 325.998,141.759 325.564,141.472 325.564 C 141.185 325.564,139.674 324.887,138.113 324.060 C 136.552 323.233,134.960 322.556,134.577 322.556 C 134.193 322.556,133.762 322.367,133.620 322.137 C 133.477 321.906,132.156 321.137,130.684 320.429 C 129.212 319.721,126.908 318.482,125.564 317.676 C 124.220 316.870,122.286 315.759,121.267 315.208 C 120.248 314.656,119.155 313.946,118.839 313.629 C 118.522 313.313,117.664 312.804,116.932 312.499 C 116.200 312.194,114.984 311.413,114.229 310.765 C 113.474 310.117,112.120 309.069,111.221 308.437 C 105.316 304.284,104.285 303.452,98.496 298.173 C 92.203 292.434,82.189 281.867,81.050 279.764 C 80.863 279.418,80.144 278.500,79.453 277.724 C 78.761 276.949,78.195 276.170,78.195 275.994 C 78.195 275.818,77.815 275.253,77.350 274.740 C 76.185 273.453,74.061 270.511,72.932 268.620 C 71.130 265.601,70.481 264.554,69.340 262.828 C 68.708 261.872,67.974 260.553,67.708 259.896 C 67.442 259.239,66.909 258.415,66.523 258.066 C 66.136 257.716,65.551 256.617,65.220 255.624 C 64.890 254.630,64.382 253.620,64.091 253.378 C 63.800 253.137,63.229 252.049,62.822 250.960 C 62.415 249.872,61.667 248.370,61.160 247.624 C 60.653 246.877,60.123 245.626,59.981 244.844 C 59.840 244.061,59.331 242.818,58.851 242.082 C 58.370 241.345,57.786 239.823,57.551 238.698 C 57.317 237.574,56.622 235.658,56.006 234.440 C 55.391 233.221,54.887 231.746,54.887 231.160 C 54.887 230.574,54.391 228.845,53.784 227.317 C 53.177 225.790,52.562 223.459,52.417 222.138 C 52.272 220.818,51.756 218.624,51.271 217.264 C 50.776 215.878,50.215 213.068,49.994 210.873 C 49.777 208.718,49.354 205.348,49.052 203.383 C 47.196 191.300,47.190 174.752,49.039 167.293 C 49.320 166.156,49.661 163.448,49.795 161.275 C 50.059 156.992,50.305 155.700,51.409 152.807 C 51.807 151.766,52.241 149.866,52.375 148.586 C 52.509 147.306,53.046 145.206,53.568 143.920 C 54.091 142.634,54.672 140.642,54.859 139.494 C 55.047 138.346,55.620 136.645,56.134 135.714 C 56.647 134.784,57.258 133.105,57.491 131.983 C 57.724 130.861,58.254 129.395,58.667 128.726 C 59.081 128.056,59.687 126.608,60.014 125.508 C 60.340 124.408,61.012 123.027,61.507 122.439 C 62.001 121.852,62.406 121.161,62.406 120.905 C 62.406 120.649,63.083 119.108,63.910 117.481 C 64.737 115.854,65.414 114.313,65.414 114.057 C 65.414 113.801,65.816 113.113,66.307 112.529 C 66.798 111.944,67.517 110.850,67.905 110.098 C 68.899 108.167,70.591 105.345,71.854 103.510 C 72.447 102.649,72.932 101.771,72.932 101.559 C 72.932 101.347,73.567 100.409,74.342 99.474 C 75.117 98.539,76.220 97.133,76.793 96.349 C 78.779 93.631,80.274 91.536,80.894 90.602 C 81.238 90.085,82.420 88.693,83.522 87.509 C 84.625 86.325,86.626 84.138,87.970 82.647 C 91.447 78.791,94.139 76.095,97.303 73.299 C 98.818 71.960,100.602 70.357,101.267 69.737 C 103.086 68.041,104.554 66.818,106.010 65.788 C 106.731 65.277,107.577 64.636,107.890 64.362 C 108.203 64.088,109.643 63.027,111.090 62.004 C 112.538 60.981,114.145 59.782,114.662 59.338 C 115.179 58.895,116.140 58.307,116.798 58.031 C 117.455 57.756,118.102 57.355,118.234 57.141 C 118.366 56.928,119.350 56.310,120.421 55.769 C 121.492 55.229,122.847 54.386,123.431 53.897 C 124.016 53.408,124.709 53.008,124.972 53.008 C 125.236 53.008,126.123 52.521,126.943 51.927 C 127.764 51.332,128.847 50.717,129.349 50.559 C 129.852 50.401,132.378 49.190,134.962 47.868 C 137.547 46.546,140.498 45.215,141.520 44.911 C 142.542 44.607,143.485 44.185,143.616 43.973 C 143.747 43.761,145.110 43.246,146.645 42.827 C 148.180 42.409,150.045 41.741,150.789 41.342 C 151.534 40.943,153.310 40.349,154.737 40.022 C 156.163 39.695,158.430 39.038,159.774 38.562 C 161.118 38.087,163.148 37.581,164.286 37.438 C 165.423 37.296,167.646 36.773,169.226 36.278 C 170.968 35.731,173.927 35.219,176.745 34.977 C 179.300 34.758,182.321 34.400,183.459 34.183 C 185.324 33.827,195.972 32.866,199.248 32.758 C 199.972 32.734,204.201 33.038,208.647 33.434 M246.617 75.626 C 245.045 76.068,242.824 78.122,241.865 80.020 C 241.484 80.774,240.975 81.645,240.734 81.955 C 240.494 82.265,239.870 83.575,239.349 84.866 C 238.827 86.157,238.061 87.690,237.646 88.272 C 237.231 88.855,236.776 89.829,236.633 90.436 C 236.491 91.044,235.908 92.303,235.338 93.233 C 234.768 94.164,234.184 95.432,234.039 96.053 C 233.894 96.673,233.357 97.731,232.844 98.405 C 232.332 99.078,231.582 100.589,231.179 101.762 C 230.775 102.935,230.197 104.169,229.894 104.504 C 229.591 104.839,229.078 105.865,228.755 106.786 C 228.431 107.706,227.771 109.057,227.288 109.789 C 226.806 110.520,226.294 111.649,226.152 112.297 C 226.009 112.946,225.411 114.208,224.823 115.103 C 224.234 115.997,223.567 117.429,223.340 118.283 C 223.113 119.138,222.681 120.042,222.380 120.291 C 222.079 120.541,221.480 121.687,221.050 122.839 C 220.619 123.990,219.959 125.370,219.584 125.906 C 219.208 126.442,218.682 127.556,218.415 128.383 C 218.147 129.211,217.538 130.479,217.061 131.203 C 216.585 131.927,215.938 133.249,215.624 134.141 C 215.310 135.034,214.735 136.218,214.346 136.773 C 213.957 137.328,213.422 138.459,213.158 139.286 C 212.894 140.113,212.359 141.244,211.970 141.798 C 211.581 142.353,211.030 143.467,210.746 144.272 C 210.461 145.078,209.722 146.654,209.102 147.775 C 208.483 148.895,207.780 150.433,207.540 151.192 C 207.300 151.951,206.869 152.767,206.580 153.006 C 206.292 153.246,205.768 154.316,205.417 155.386 C 205.065 156.456,204.403 157.781,203.945 158.330 C 203.488 158.880,202.921 160.097,202.685 161.034 C 201.710 164.908,198.450 164.673,197.583 160.667 C 197.444 160.020,196.911 158.925,196.401 158.233 C 195.890 157.541,195.292 156.305,195.072 155.487 C 194.851 154.669,194.284 153.480,193.811 152.845 C 193.339 152.211,192.667 150.817,192.320 149.747 C 191.972 148.677,191.453 147.607,191.165 147.368 C 190.878 147.130,190.368 146.109,190.033 145.099 C 189.698 144.090,189.039 142.697,188.568 142.004 C 188.098 141.311,187.441 139.946,187.109 138.971 C 186.777 137.996,186.158 136.757,185.734 136.217 C 185.309 135.678,184.962 134.954,184.962 134.608 C 184.962 134.262,184.375 133.002,183.656 131.809 C 182.938 130.616,182.191 129.066,181.998 128.364 C 181.804 127.663,181.300 126.604,180.878 126.011 C 180.455 125.418,179.757 123.990,179.326 122.839 C 178.896 121.687,178.304 120.546,178.011 120.304 C 177.718 120.061,177.224 118.985,176.912 117.912 C 176.600 116.840,176.013 115.607,175.608 115.171 C 175.202 114.736,174.660 113.640,174.402 112.735 C 174.145 111.830,173.567 110.583,173.119 109.962 C 172.670 109.342,172.030 108.027,171.697 107.039 C 171.364 106.051,170.745 104.803,170.321 104.264 C 169.898 103.726,169.381 102.654,169.174 101.882 C 168.966 101.110,168.395 99.888,167.905 99.166 C 167.415 98.444,166.729 96.996,166.381 95.948 C 166.033 94.900,165.513 93.848,165.226 93.609 C 164.938 93.370,164.429 92.352,164.095 91.346 C 163.761 90.339,163.140 89.075,162.716 88.536 C 162.292 87.996,161.729 86.838,161.465 85.961 C 161.201 85.085,160.459 83.538,159.816 82.524 C 159.173 81.510,158.647 80.460,158.647 80.191 C 158.647 76.852,151.556 74.409,148.194 76.589 C 145.427 78.383,144.576 85.507,146.830 87.998 C 147.161 88.364,147.833 89.964,148.324 91.553 C 148.814 93.142,149.465 94.823,149.770 95.289 C 150.075 95.755,150.607 97.132,150.953 98.350 C 151.298 99.568,151.972 101.246,152.450 102.079 C 152.927 102.912,153.438 104.266,153.584 105.087 C 153.730 105.907,154.316 107.425,154.887 108.459 C 155.458 109.492,156.045 111.012,156.191 111.835 C 156.338 112.658,156.950 114.265,157.551 115.406 C 158.153 116.548,158.645 117.838,158.646 118.274 C 158.646 118.710,159.152 120.064,159.770 121.282 C 160.388 122.500,161.162 124.427,161.491 125.564 C 161.819 126.701,162.414 128.191,162.811 128.875 C 163.209 129.559,163.726 130.912,163.960 131.882 C 164.194 132.853,164.778 134.408,165.258 135.338 C 165.737 136.269,166.320 137.791,166.554 138.722 C 166.787 139.652,167.299 140.967,167.691 141.643 C 168.083 142.319,168.684 143.841,169.027 145.026 C 169.369 146.211,170.042 147.942,170.522 148.872 C 171.002 149.803,171.574 151.374,171.793 152.365 C 172.012 153.356,172.589 154.797,173.076 155.569 C 173.563 156.340,174.151 157.857,174.383 158.940 C 174.615 160.022,175.212 161.541,175.709 162.315 C 176.206 163.089,176.729 164.398,176.871 165.226 C 177.013 166.053,177.603 167.575,178.182 168.609 C 178.760 169.643,179.345 171.119,179.482 171.889 C 179.618 172.660,180.231 174.242,180.842 175.405 C 181.454 176.568,181.955 177.909,181.955 178.383 C 181.955 178.858,182.430 180.152,183.010 181.259 C 183.591 182.365,184.290 184.117,184.564 185.150 C 184.839 186.184,185.498 187.791,186.029 188.722 C 187.367 191.065,187.365 193.740,186.023 195.728 C 185.484 196.527,184.835 197.838,184.581 198.641 C 184.327 199.445,183.712 200.701,183.215 201.433 C 182.718 202.166,182.211 203.200,182.088 203.732 C 181.964 204.264,181.392 205.461,180.815 206.391 C 180.239 207.321,179.599 208.707,179.394 209.470 C 179.189 210.232,178.603 211.416,178.094 212.101 C 177.584 212.786,177.048 213.853,176.902 214.474 C 176.757 215.094,176.155 216.363,175.564 217.293 C 174.973 218.224,174.371 219.492,174.225 220.113 C 174.080 220.733,173.586 221.748,173.128 222.368 C 172.670 222.989,172.080 224.173,171.819 225.000 C 171.557 225.827,170.872 227.265,170.296 228.195 C 169.720 229.126,169.133 230.441,168.991 231.118 C 168.849 231.795,168.350 232.810,167.881 233.374 C 167.411 233.937,166.739 235.276,166.386 236.349 C 165.365 239.452,163.269 241.121,160.765 240.826 C 159.515 240.678,158.039 240.808,156.579 241.193 C 155.338 241.521,152.944 241.999,151.259 242.256 C 149.496 242.524,147.760 243.030,147.171 243.447 C 146.152 244.170,145.235 244.791,141.265 247.447 C 140.082 248.239,138.672 249.621,138.004 250.643 C 136.627 252.752,135.351 254.592,134.080 256.303 C 133.442 257.161,133.034 258.441,132.726 260.549 C 132.483 262.209,132.043 264.363,131.748 265.336 C 131.072 267.565,131.069 269.267,131.737 271.471 C 132.027 272.424,132.464 274.524,132.708 276.136 C 133.149 279.045,133.940 280.666,136.544 283.998 C 137.018 284.604,137.744 285.650,138.158 286.321 C 138.875 287.485,141.394 289.519,145.880 292.554 C 147.425 293.600,148.583 294.046,150.564 294.359 C 152.011 294.588,154.527 295.114,156.155 295.528 C 158.928 296.233,159.224 296.243,160.854 295.684 C 161.811 295.357,164.189 294.831,166.138 294.516 C 168.860 294.076,169.992 293.705,171.025 292.914 C 171.764 292.348,172.834 291.684,173.402 291.439 C 173.971 291.194,174.436 290.824,174.436 290.617 C 174.436 290.410,175.087 289.909,175.881 289.503 C 177.286 288.787,178.392 287.652,180.563 284.700 C 183.877 280.193,184.418 279.137,184.758 276.504 C 184.891 275.470,185.367 273.153,185.814 271.355 L 186.627 268.086 185.831 265.528 C 185.393 264.121,184.927 262.039,184.796 260.902 C 184.522 258.518,183.906 256.391,183.489 256.391 C 183.331 256.391,182.760 255.578,182.219 254.584 C 181.678 253.591,180.913 252.486,180.519 252.130 C 178.362 250.177,178.465 245.037,180.700 243.183 C 181.020 242.917,181.700 241.847,182.210 240.805 C 182.720 239.762,183.796 237.726,184.601 236.278 C 185.405 234.831,186.573 232.602,187.196 231.325 C 187.819 230.047,188.510 228.890,188.733 228.752 C 188.956 228.615,189.561 227.630,190.078 226.563 C 191.668 223.286,193.541 219.873,194.105 219.225 C 194.400 218.886,194.836 218.003,195.074 217.261 C 195.761 215.117,198.200 213.158,200.182 213.158 C 202.132 213.158,205.263 215.671,205.263 217.236 C 205.263 217.587,205.738 218.462,206.319 219.181 C 206.900 219.900,207.680 221.305,208.052 222.302 C 208.425 223.300,208.946 224.199,209.210 224.300 C 209.475 224.401,209.990 225.277,210.355 226.246 C 210.720 227.215,211.401 228.468,211.868 229.032 C 212.335 229.595,212.922 230.695,213.172 231.475 C 213.422 232.256,213.936 233.235,214.314 233.651 C 214.692 234.067,215.343 235.180,215.760 236.124 C 216.178 237.068,216.836 238.250,217.222 238.751 C 217.609 239.252,218.124 240.246,218.368 240.961 C 218.612 241.676,219.144 242.615,219.551 243.047 C 220.309 243.854,221.820 247.768,221.785 248.837 C 221.775 249.167,221.225 250.228,220.563 251.195 C 215.941 257.955,215.896 258.039,215.644 260.286 C 215.508 261.497,215.055 263.811,214.636 265.426 C 213.909 268.228,213.903 268.473,214.487 270.729 C 214.824 272.029,215.330 274.516,215.612 276.256 C 215.941 278.288,216.383 279.704,216.850 280.217 C 217.249 280.656,217.787 281.438,218.046 281.955 C 218.305 282.472,219.045 283.624,219.691 284.516 C 222.448 288.324,222.270 288.163,228.248 292.272 C 230.394 293.747,231.212 294.068,234.075 294.558 C 235.907 294.872,238.155 295.379,239.071 295.685 C 240.993 296.327,242.765 296.390,244.693 295.884 C 245.441 295.689,247.525 295.182,249.324 294.758 C 251.123 294.334,253.219 293.564,253.981 293.046 C 255.772 291.831,257.903 291.811,260.153 292.989 C 262.140 294.029,264.292 294.598,269.173 295.376 C 275.640 296.407,275.951 296.404,278.321 295.281 C 287.063 291.142,283.287 282.311,272.368 281.359 C 267.216 280.910,266.649 279.855,268.610 274.374 C 269.589 271.639,269.750 268.017,268.994 265.723 C 268.632 264.622,268.191 262.588,268.015 261.202 C 267.672 258.507,267.091 256.986,265.602 254.887 C 260.919 248.287,261.204 248.577,256.032 245.113 C 255.261 244.596,254.080 243.810,253.409 243.367 C 252.649 242.865,251.245 242.461,249.685 242.295 C 248.307 242.149,246.419 241.759,245.489 241.428 C 244.532 241.089,242.482 240.811,240.770 240.788 C 236.711 240.734,235.416 239.785,233.877 235.735 C 233.462 234.644,232.882 233.473,232.587 233.135 C 232.293 232.796,231.767 231.644,231.419 230.574 C 231.071 229.504,230.551 228.435,230.265 228.197 C 229.978 227.959,229.301 226.605,228.759 225.188 C 228.218 223.771,227.531 222.409,227.233 222.162 C 226.935 221.915,226.691 221.522,226.691 221.289 C 226.690 221.055,226.039 219.596,225.243 218.045 C 224.447 216.494,223.593 214.605,223.345 213.846 C 223.097 213.087,222.658 212.270,222.370 212.031 C 222.082 211.792,221.561 210.740,221.214 209.694 C 220.867 208.648,220.116 207.097,219.546 206.246 C 218.977 205.395,218.401 204.186,218.266 203.559 C 218.131 202.933,217.520 201.664,216.907 200.740 C 216.294 199.816,215.792 198.797,215.791 198.476 C 215.790 198.154,215.282 197.091,214.662 196.113 C 213.227 193.851,213.160 191.745,214.448 189.427 C 214.952 188.522,215.572 186.936,215.827 185.902 C 216.082 184.868,216.673 183.410,217.141 182.662 C 217.610 181.913,218.112 180.645,218.257 179.842 C 218.403 179.040,219.091 177.200,219.787 175.753 C 220.483 174.307,221.058 172.784,221.064 172.370 C 221.071 171.955,221.502 170.771,222.022 169.737 C 222.543 168.703,223.315 166.758,223.739 165.414 C 224.163 164.070,224.813 162.462,225.184 161.842 C 225.555 161.222,225.976 160.122,226.120 159.398 C 226.263 158.675,226.849 157.152,227.420 156.015 C 227.992 154.878,228.667 153.102,228.920 152.068 C 229.173 151.034,229.691 149.680,230.070 149.060 C 230.450 148.440,231.041 146.959,231.385 145.770 C 231.728 144.581,232.398 142.889,232.875 142.010 C 233.351 141.132,233.944 139.568,234.192 138.534 C 234.440 137.500,234.956 136.147,235.338 135.526 C 235.721 134.906,236.236 133.553,236.484 132.519 C 236.733 131.485,237.328 129.949,237.807 129.105 C 238.287 128.261,238.882 126.739,239.130 125.722 C 239.379 124.704,240.065 122.942,240.655 121.805 C 241.245 120.667,241.728 119.373,241.729 118.929 C 241.729 118.485,242.240 117.150,242.865 115.962 C 243.490 114.774,244.187 113.023,244.415 112.071 C 244.643 111.118,245.143 109.785,245.527 109.109 C 245.910 108.433,246.500 106.929,246.838 105.767 C 247.176 104.605,247.866 102.830,248.372 101.824 C 248.877 100.817,249.543 99.027,249.850 97.846 C 250.158 96.665,250.650 95.433,250.945 95.108 C 251.239 94.783,251.747 93.474,252.073 92.199 C 252.400 90.924,253.124 89.070,253.683 88.080 C 255.167 85.449,255.213 79.191,253.759 77.613 C 251.876 75.567,249.336 74.861,246.617 75.626 M164.684 256.113 C 165.188 256.477,166.219 257.187,166.974 257.692 C 172.411 261.325,173.787 270.582,169.743 276.316 C 164.732 283.420,153.072 283.665,148.041 276.773 C 145.969 273.935,145.746 273.265,145.572 269.361 C 145.350 264.410,147.882 257.895,150.026 257.895 C 150.243 257.895,151.045 257.402,151.808 256.800 C 153.996 255.073,162.605 254.614,164.684 256.113 M247.650 256.148 C 248.322 256.499,248.872 256.931,248.872 257.107 C 248.872 257.283,249.361 257.630,249.958 257.877 C 250.610 258.147,251.774 259.386,252.872 260.978 L 254.699 263.628 254.699 268.396 C 254.699 272.370,254.588 273.316,254.031 274.082 C 253.663 274.587,252.902 275.721,252.339 276.602 C 251.776 277.483,251.047 278.290,250.719 278.394 C 250.391 278.498,249.568 279.078,248.890 279.683 C 246.124 282.153,237.493 282.260,234.710 279.860 C 234.125 279.356,233.376 278.856,233.045 278.750 C 230.059 277.791,227.638 269.520,228.889 264.551 C 229.396 262.535,232.089 258.398,233.103 258.076 C 233.507 257.948,234.355 257.408,234.987 256.877 C 237.047 255.143,244.865 254.693,247.650 256.148 " stroke="none" fill="#4b5357" fill-rule="evenodd"></path><path id="path1" d="M0.000 187.970 L 0.000 375.940 200.000 375.940 L 400.000 375.940 400.000 187.970 L 400.000 0.000 200.000 0.000 L 0.000 0.000 0.000 187.970 M224.248 20.090 C 226.471 20.864,228.383 21.213,231.579 21.427 C 235.050 21.659,236.347 21.916,238.158 22.729 C 239.521 23.341,241.529 23.857,243.233 24.034 C 245.135 24.232,246.873 24.712,248.575 25.510 C 249.962 26.160,251.619 26.692,252.259 26.692 C 253.390 26.692,255.252 27.446,256.391 28.366 C 256.701 28.616,258.004 29.007,259.286 29.234 C 260.593 29.465,262.241 30.071,263.038 30.613 C 263.820 31.144,264.765 31.579,265.137 31.579 C 266.138 31.579,268.251 32.537,269.081 33.367 C 269.481 33.766,270.381 34.208,271.082 34.348 C 271.783 34.488,273.012 35.037,273.813 35.567 C 274.614 36.097,276.065 36.767,277.037 37.056 C 278.008 37.344,279.204 38.006,279.693 38.527 C 280.182 39.048,280.875 39.474,281.233 39.474 C 281.591 39.474,282.592 40.066,283.459 40.789 C 284.325 41.513,285.350 42.105,285.737 42.105 C 286.124 42.105,286.996 42.584,287.675 43.169 C 288.354 43.753,289.698 44.607,290.662 45.066 C 291.626 45.524,292.502 46.129,292.610 46.410 C 292.718 46.692,293.321 47.035,293.949 47.173 C 294.578 47.311,295.509 47.919,296.018 48.524 C 296.527 49.129,297.094 49.624,297.276 49.624 C 297.459 49.624,298.274 50.180,299.086 50.859 C 299.899 51.539,300.987 52.389,301.504 52.750 C 303.327 54.021,305.239 55.464,306.577 56.579 C 312.937 61.878,329.090 78.287,331.015 81.403 C 332.553 83.894,334.039 85.917,334.681 86.395 C 335.045 86.666,335.618 87.427,335.955 88.087 C 336.292 88.746,336.801 89.422,337.085 89.589 C 337.370 89.755,338.027 90.728,338.545 91.750 C 339.063 92.773,339.632 93.609,339.810 93.609 C 339.987 93.609,340.486 94.429,340.917 95.431 C 341.348 96.432,341.934 97.447,342.221 97.684 C 342.507 97.922,343.055 98.836,343.440 99.716 C 343.824 100.596,344.595 101.853,345.154 102.510 C 345.712 103.166,346.283 104.224,346.422 104.859 C 346.562 105.495,346.818 106.015,346.992 106.015 C 347.474 106.015,348.872 108.451,348.872 109.292 C 348.872 109.702,349.378 110.736,349.996 111.589 C 350.614 112.443,351.272 113.817,351.458 114.643 C 351.643 115.468,352.222 116.652,352.744 117.272 C 353.265 117.892,353.883 119.288,354.116 120.375 C 354.349 121.461,354.871 122.703,355.276 123.134 C 355.680 123.564,356.209 124.922,356.451 126.150 C 356.692 127.378,357.369 129.241,357.954 130.290 C 358.540 131.339,359.129 133.030,359.264 134.049 C 359.399 135.068,359.910 136.676,360.399 137.622 C 360.954 138.695,361.448 140.606,361.712 142.698 C 362.002 145.003,362.428 146.560,363.072 147.674 C 363.875 149.064,364.059 150.024,364.359 154.411 C 364.551 157.225,364.929 159.963,365.199 160.496 C 366.738 163.539,366.967 167.205,366.846 186.898 L 366.729 205.827 365.702 208.656 C 364.887 210.900,364.628 212.416,364.448 215.987 C 364.253 219.857,364.073 220.805,363.162 222.744 C 362.482 224.194,361.947 226.206,361.666 228.373 C 361.398 230.436,360.887 232.406,360.349 233.448 C 359.865 234.384,359.285 236.165,359.059 237.406 C 358.833 238.647,358.299 240.134,357.872 240.711 C 357.446 241.289,356.870 242.847,356.592 244.174 C 356.314 245.501,355.735 247.082,355.305 247.686 C 354.874 248.291,354.345 249.608,354.128 250.614 C 353.898 251.678,353.267 252.976,352.619 253.716 C 351.969 254.458,351.504 255.415,351.504 256.010 C 351.504 256.571,350.998 257.728,350.380 258.582 C 349.762 259.435,349.099 260.833,348.907 261.687 C 348.715 262.542,348.141 263.687,347.632 264.233 C 347.124 264.779,346.511 265.840,346.272 266.590 C 346.032 267.340,345.482 268.271,345.050 268.658 C 344.617 269.044,343.944 270.102,343.553 271.007 C 343.162 271.913,342.423 273.152,341.910 273.762 C 341.397 274.371,340.977 275.086,340.977 275.350 C 340.977 275.614,340.552 276.289,340.032 276.850 C 339.512 277.411,338.836 278.409,338.530 279.067 C 337.969 280.272,336.057 282.849,334.433 284.586 C 333.949 285.103,333.275 286.076,332.933 286.748 C 332.591 287.420,332.175 287.970,332.009 287.970 C 331.842 287.970,331.468 288.435,331.177 289.004 C 330.411 290.501,323.884 297.756,318.149 303.485 C 310.482 311.143,304.705 316.171,301.202 318.233 C 300.851 318.440,299.955 319.117,299.210 319.737 C 296.209 322.237,290.337 326.313,289.734 326.315 C 289.566 326.315,288.805 326.806,288.042 327.406 C 287.279 328.005,286.231 328.620,285.714 328.772 C 285.197 328.924,284.237 329.517,283.581 330.090 C 282.924 330.663,281.867 331.245,281.231 331.385 C 280.595 331.524,280.075 331.779,280.075 331.951 C 280.075 332.319,276.392 334.211,275.675 334.211 C 275.403 334.211,274.481 334.718,273.625 335.338 C 272.768 335.959,271.695 336.466,271.241 336.466 C 270.786 336.466,269.705 336.979,268.840 337.606 C 267.974 338.233,266.723 338.847,266.058 338.970 C 265.393 339.094,264.004 339.662,262.970 340.234 C 261.936 340.805,260.237 341.451,259.194 341.669 C 258.151 341.886,256.315 342.581,255.114 343.213 C 253.802 343.903,252.367 344.361,251.516 344.361 C 250.738 344.361,249.698 344.664,249.205 345.034 C 247.684 346.175,246.395 346.572,243.348 346.835 C 241.546 346.991,239.688 347.424,238.534 347.956 C 236.031 349.111,235.448 349.233,230.630 349.609 C 228.361 349.787,225.573 350.216,224.436 350.562 C 223.299 350.909,221.776 351.338,221.053 351.516 C 216.053 352.747,179.647 352.053,175.752 350.653 C 173.851 349.970,171.972 349.639,168.985 349.462 C 165.574 349.259,164.422 349.025,162.406 348.128 C 160.730 347.381,159.038 346.962,157.021 346.793 C 154.885 346.615,153.543 346.265,152.120 345.516 C 151.042 344.949,149.341 344.373,148.341 344.236 C 147.341 344.099,145.656 343.500,144.596 342.905 C 143.536 342.310,141.908 341.710,140.977 341.572 C 140.047 341.434,138.659 340.907,137.892 340.403 C 137.126 339.898,135.816 339.331,134.981 339.144 C 134.146 338.956,132.643 338.277,131.642 337.634 C 130.641 336.992,129.489 336.466,129.083 336.466 C 128.676 336.466,127.676 335.977,126.860 335.379 C 126.044 334.781,124.728 334.114,123.937 333.897 C 123.145 333.681,121.961 333.096,121.305 332.598 C 120.649 332.100,119.481 331.486,118.709 331.233 C 117.937 330.980,116.998 330.383,116.624 329.907 C 116.249 329.430,115.422 328.926,114.785 328.787 C 114.149 328.647,113.227 328.105,112.736 327.582 C 112.245 327.060,111.051 326.292,110.084 325.875 C 109.116 325.459,108.032 324.796,107.675 324.401 C 107.318 324.007,106.809 323.684,106.544 323.684 C 106.109 323.684,104.621 322.567,101.316 319.761 C 99.926 318.581,97.915 317.133,96.455 316.260 C 95.134 315.470,93.678 314.216,90.018 310.714 C 88.506 309.267,85.967 306.898,84.377 305.451 C 82.787 304.004,81.296 302.589,81.063 302.307 C 80.379 301.480,78.244 299.157,74.553 295.223 C 72.653 293.198,70.257 290.357,69.230 288.910 C 67.363 286.280,65.845 284.281,63.722 281.657 C 63.102 280.890,62.275 279.671,61.886 278.947 C 61.497 278.224,60.981 277.462,60.741 277.256 C 60.500 277.049,60.070 276.307,59.785 275.608 C 59.499 274.908,58.893 273.893,58.438 273.352 C 57.983 272.811,57.233 271.565,56.771 270.583 C 56.310 269.601,55.791 268.797,55.619 268.797 C 55.446 268.797,54.850 267.782,54.293 266.541 C 53.736 265.301,53.147 264.286,52.983 264.286 C 52.820 264.286,52.322 263.313,51.878 262.124 C 51.434 260.935,50.839 259.706,50.556 259.392 C 50.273 259.078,49.656 257.809,49.186 256.572 C 48.716 255.335,47.958 253.768,47.501 253.089 C 47.044 252.410,46.553 251.311,46.410 250.645 C 46.267 249.980,45.754 248.757,45.272 247.927 C 44.789 247.097,44.155 245.406,43.863 244.168 C 43.571 242.930,42.993 241.325,42.578 240.602 C 42.163 239.878,41.549 238.155,41.214 236.773 C 40.880 235.391,40.272 233.696,39.865 233.005 C 39.403 232.222,38.978 230.457,38.735 228.311 C 38.313 224.586,38.113 223.799,37.370 222.926 C 36.829 222.291,36.283 219.086,35.903 214.313 C 35.764 212.571,35.349 210.372,34.980 209.426 C 32.900 204.096,32.870 163.987,34.945 161.488 C 35.195 161.186,35.636 158.689,35.924 155.940 C 36.549 149.977,36.719 149.132,37.652 147.342 C 38.045 146.588,38.526 144.573,38.721 142.866 C 39.129 139.284,39.360 138.389,40.091 137.555 C 40.381 137.223,40.875 135.700,41.188 134.171 C 41.502 132.642,42.098 130.922,42.513 130.349 C 42.928 129.775,43.599 128.012,44.004 126.429 C 44.409 124.847,44.971 123.286,45.254 122.960 C 45.537 122.635,46.070 121.438,46.440 120.301 C 46.809 119.164,47.490 117.641,47.952 116.917 C 48.415 116.194,49.001 114.944,49.255 114.141 C 49.509 113.337,50.108 112.102,50.587 111.397 C 51.066 110.691,51.658 109.487,51.903 108.722 C 52.148 107.957,52.638 106.992,52.992 106.579 C 53.346 106.165,53.936 105.150,54.303 104.323 C 54.670 103.496,55.163 102.650,55.399 102.444 C 55.634 102.237,56.236 101.222,56.736 100.188 C 57.236 99.154,58.125 97.720,58.710 97.001 C 59.295 96.282,59.774 95.543,59.774 95.360 C 59.774 94.913,63.101 89.905,64.181 88.726 C 64.652 88.211,65.038 87.604,65.038 87.378 C 65.038 87.152,65.503 86.539,66.071 86.017 C 66.640 85.494,67.402 84.578,67.764 83.981 C 69.114 81.753,70.327 80.192,72.700 77.632 C 74.042 76.184,76.292 73.743,77.701 72.206 C 84.476 64.819,94.754 55.446,98.651 53.102 C 99.253 52.740,100.345 51.894,101.079 51.222 C 101.812 50.550,102.541 50.000,102.697 50.000 C 102.854 50.000,103.575 49.408,104.298 48.684 C 105.022 47.961,105.857 47.368,106.155 47.368 C 106.452 47.368,107.404 46.776,108.271 46.053 C 109.137 45.329,110.042 44.737,110.281 44.737 C 110.521 44.737,111.549 44.145,112.567 43.421 C 113.585 42.697,114.626 42.105,114.880 42.105 C 115.134 42.105,116.051 41.513,116.917 40.789 C 117.783 40.066,118.697 39.474,118.946 39.474 C 119.196 39.474,120.070 38.981,120.888 38.380 C 121.706 37.778,123.009 37.167,123.783 37.022 C 124.557 36.877,125.800 36.274,126.545 35.682 C 127.289 35.090,128.515 34.493,129.269 34.354 C 130.023 34.216,131.182 33.631,131.845 33.055 C 132.594 32.403,133.700 31.908,134.763 31.749 C 135.705 31.608,136.569 31.340,136.684 31.154 C 137.090 30.498,139.685 29.419,141.492 29.155 C 142.585 28.996,143.932 28.446,144.837 27.790 C 145.895 27.024,146.796 26.692,147.816 26.692 C 148.653 26.692,150.305 26.212,151.675 25.572 C 153.281 24.821,155.104 24.333,157.205 24.092 C 159.339 23.847,160.929 23.417,162.191 22.744 C 163.750 21.911,164.672 21.724,168.018 21.562 C 171.710 21.383,174.798 20.794,177.068 19.836 C 178.988 19.025,183.357 18.872,202.068 18.956 L 221.241 19.043 224.248 20.090 M57.018 140.476 C 56.624 140.870,56.725 142.481,57.143 142.481 C 57.350 142.481,57.519 141.974,57.519 141.353 C 57.519 140.185,57.442 140.051,57.018 140.476 " stroke="none" fill="#faf9f8" fill-rule="evenodd"></path><path id="path2" d="M180.451 19.154 C 179.107 19.311,177.585 19.618,177.068 19.836 C 174.798 20.794,171.710 21.383,168.018 21.562 C 164.672 21.724,163.750 21.911,162.191 22.744 C 160.929 23.417,159.339 23.847,157.205 24.092 C 155.104 24.333,153.281 24.821,151.675 25.572 C 150.305 26.212,148.653 26.692,147.816 26.692 C 146.796 26.692,145.895 27.024,144.837 27.790 C 143.932 28.446,142.585 28.996,141.492 29.155 C 139.685 29.419,137.090 30.498,136.684 31.154 C 136.569 31.340,135.705 31.608,134.763 31.749 C 133.700 31.908,132.594 32.403,131.845 33.055 C 131.182 33.631,130.023 34.216,129.269 34.354 C 128.515 34.493,127.289 35.090,126.545 35.682 C 125.800 36.274,124.557 36.877,123.783 37.022 C 123.009 37.167,121.706 37.778,120.888 38.380 C 120.070 38.981,119.196 39.474,118.946 39.474 C 118.697 39.474,117.783 40.066,116.917 40.789 C 116.051 41.513,115.134 42.105,114.880 42.105 C 114.626 42.105,113.585 42.697,112.567 43.421 C 111.549 44.145,110.521 44.737,110.281 44.737 C 110.042 44.737,109.137 45.329,108.271 46.053 C 107.404 46.776,106.452 47.368,106.155 47.368 C 105.857 47.368,105.022 47.961,104.298 48.684 C 103.575 49.408,102.854 50.000,102.697 50.000 C 102.541 50.000,101.812 50.550,101.079 51.222 C 100.345 51.894,99.253 52.740,98.651 53.102 C 94.754 55.446,84.476 64.819,77.701 72.206 C 76.292 73.743,74.042 76.184,72.700 77.632 C 70.327 80.192,69.114 81.753,67.764 83.981 C 67.402 84.578,66.640 85.494,66.071 86.017 C 65.503 86.539,65.038 87.152,65.038 87.378 C 65.038 87.604,64.652 88.211,64.181 88.726 C 63.101 89.905,59.774 94.913,59.774 95.360 C 59.774 95.543,59.295 96.282,58.710 97.001 C 58.125 97.720,57.236 99.154,56.736 100.188 C 56.236 101.222,55.634 102.237,55.399 102.444 C 55.163 102.650,54.670 103.496,54.303 104.323 C 53.936 105.150,53.346 106.165,52.992 106.579 C 52.638 106.992,52.148 107.957,51.903 108.722 C 51.658 109.487,51.066 110.691,50.587 111.397 C 50.108 112.102,49.509 113.337,49.255 114.141 C 49.001 114.944,48.415 116.194,47.952 116.917 C 47.490 117.641,46.809 119.164,46.440 120.301 C 46.070 121.438,45.537 122.635,45.254 122.960 C 44.971 123.286,44.409 124.847,44.004 126.429 C 43.599 128.012,42.928 129.775,42.513 130.349 C 42.098 130.922,41.502 132.642,41.188 134.171 C 40.875 135.700,40.381 137.223,40.091 137.555 C 39.360 138.389,39.129 139.284,38.721 142.866 C 38.526 144.573,38.045 146.588,37.652 147.342 C 36.719 149.132,36.549 149.977,35.924 155.940 C 35.636 158.689,35.195 161.186,34.945 161.488 C 32.870 163.987,32.900 204.096,34.980 209.426 C 35.349 210.372,35.764 212.571,35.903 214.313 C 36.283 219.086,36.829 222.291,37.370 222.926 C 38.113 223.799,38.313 224.586,38.735 228.311 C 38.978 230.457,39.403 232.222,39.865 233.005 C 40.272 233.696,40.880 235.391,41.214 236.773 C 41.549 238.155,42.163 239.878,42.578 240.602 C 42.993 241.325,43.571 242.930,43.863 244.168 C 44.155 245.406,44.789 247.097,45.272 247.927 C 45.754 248.757,46.267 249.980,46.410 250.645 C 46.553 251.311,47.044 252.410,47.501 253.089 C 47.958 253.768,48.716 255.335,49.186 256.572 C 49.656 257.809,50.273 259.078,50.556 259.392 C 50.839 259.706,51.434 260.935,51.878 262.124 C 52.322 263.313,52.820 264.286,52.983 264.286 C 53.147 264.286,53.736 265.301,54.293 266.541 C 54.850 267.782,55.446 268.797,55.619 268.797 C 55.791 268.797,56.310 269.601,56.771 270.583 C 57.233 271.565,57.983 272.811,58.438 273.352 C 58.893 273.893,59.499 274.908,59.785 275.608 C 60.070 276.307,60.500 277.049,60.741 277.256 C 60.981 277.462,61.497 278.224,61.886 278.947 C 62.275 279.671,63.102 280.890,63.722 281.657 C 65.845 284.281,67.363 286.280,69.230 288.910 C 70.257 290.357,72.653 293.198,74.553 295.223 C 78.244 299.157,80.379 301.480,81.063 302.307 C 81.296 302.589,82.787 304.004,84.377 305.451 C 85.967 306.898,88.506 309.267,90.018 310.714 C 93.678 314.216,95.134 315.470,96.455 316.260 C 97.915 317.133,99.926 318.581,101.316 319.761 C 104.621 322.567,106.109 323.684,106.544 323.684 C 106.809 323.684,107.318 324.007,107.675 324.401 C 108.032 324.796,109.116 325.459,110.084 325.875 C 111.051 326.292,112.245 327.060,112.736 327.582 C 113.227 328.105,114.149 328.647,114.785 328.787 C 115.422 328.926,116.249 329.430,116.624 329.907 C 116.998 330.383,117.937 330.980,118.709 331.233 C 119.481 331.486,120.649 332.100,121.305 332.598 C 121.961 333.096,123.145 333.681,123.937 333.897 C 124.728 334.114,126.044 334.781,126.860 335.379 C 127.676 335.977,128.676 336.466,129.083 336.466 C 129.489 336.466,130.641 336.992,131.642 337.634 C 132.643 338.277,134.146 338.956,134.981 339.144 C 135.816 339.331,137.126 339.898,137.892 340.403 C 138.659 340.907,140.047 341.434,140.977 341.572 C 141.908 341.710,143.536 342.310,144.596 342.905 C 145.656 343.500,147.341 344.099,148.341 344.236 C 149.341 344.373,151.042 344.949,152.120 345.516 C 153.543 346.265,154.885 346.615,157.021 346.793 C 159.038 346.962,160.730 347.381,162.406 348.128 C 164.422 349.025,165.574 349.259,168.985 349.462 C 171.972 349.639,173.851 349.970,175.752 350.653 C 179.647 352.053,216.053 352.747,221.053 351.516 C 221.776 351.338,223.299 350.909,224.436 350.562 C 225.573 350.216,228.361 349.787,230.630 349.609 C 235.448 349.233,236.031 349.111,238.534 347.956 C 239.688 347.424,241.546 346.991,243.348 346.835 C 246.395 346.572,247.684 346.175,249.205 345.034 C 249.698 344.664,250.738 344.361,251.516 344.361 C 252.367 344.361,253.802 343.903,255.114 343.213 C 256.315 342.581,258.151 341.886,259.194 341.669 C 260.237 341.451,261.936 340.805,262.970 340.234 C 264.004 339.662,265.393 339.094,266.058 338.970 C 266.723 338.847,267.974 338.233,268.840 337.606 C 269.705 336.979,270.786 336.466,271.241 336.466 C 271.695 336.466,272.768 335.959,273.625 335.338 C 274.481 334.718,275.403 334.211,275.675 334.211 C 276.392 334.211,280.075 332.319,280.075 331.951 C 280.075 331.779,280.595 331.524,281.231 331.385 C 281.867 331.245,282.924 330.663,283.581 330.090 C 284.237 329.517,285.197 328.924,285.714 328.772 C 286.231 328.620,287.279 328.005,288.042 327.406 C 288.805 326.806,289.566 326.315,289.734 326.315 C 290.337 326.313,296.209 322.237,299.210 319.737 C 299.955 319.117,300.851 318.440,301.202 318.233 C 304.705 316.171,310.482 311.143,318.149 303.485 C 323.884 297.756,330.411 290.501,331.177 289.004 C 331.468 288.435,331.842 287.970,332.009 287.970 C 332.175 287.970,332.591 287.420,332.933 286.748 C 333.275 286.076,333.949 285.103,334.433 284.586 C 336.057 282.849,337.969 280.272,338.530 279.067 C 338.836 278.409,339.512 277.411,340.032 276.850 C 340.552 276.289,340.977 275.614,340.977 275.350 C 340.977 275.086,341.397 274.371,341.910 273.762 C 342.423 273.152,343.162 271.913,343.553 271.007 C 343.944 270.102,344.617 269.044,345.050 268.658 C 345.482 268.271,346.032 267.340,346.272 266.590 C 346.511 265.840,347.124 264.779,347.632 264.233 C 348.141 263.687,348.715 262.542,348.907 261.687 C 349.099 260.833,349.762 259.435,350.380 258.582 C 350.998 257.728,351.504 256.571,351.504 256.010 C 351.504 255.415,351.969 254.458,352.619 253.716 C 353.267 252.976,353.898 251.678,354.128 250.614 C 354.345 249.608,354.874 248.291,355.305 247.686 C 355.735 247.082,356.314 245.501,356.592 244.174 C 356.870 242.847,357.446 241.289,357.872 240.711 C 358.299 240.134,358.833 238.647,359.059 237.406 C 359.285 236.165,359.865 234.384,360.349 233.448 C 360.887 232.406,361.398 230.436,361.666 228.373 C 361.947 226.206,362.482 224.194,363.162 222.744 C 364.073 220.805,364.253 219.857,364.448 215.987 C 364.628 212.416,364.887 210.900,365.702 208.656 L 366.729 205.827 366.846 186.898 C 366.967 167.205,366.738 163.539,365.199 160.496 C 364.929 159.963,364.551 157.225,364.359 154.411 C 364.059 150.024,363.875 149.064,363.072 147.674 C 362.428 146.560,362.002 145.003,361.712 142.698 C 361.448 140.606,360.954 138.695,360.399 137.622 C 359.910 136.676,359.399 135.068,359.264 134.049 C 359.129 133.030,358.540 131.339,357.954 130.290 C 357.369 129.241,356.692 127.378,356.451 126.150 C 356.209 124.922,355.680 123.564,355.276 123.134 C 354.871 122.703,354.349 121.461,354.116 120.375 C 353.883 119.288,353.265 117.892,352.744 117.272 C 352.222 116.652,351.643 115.468,351.458 114.643 C 351.272 113.817,350.614 112.443,349.996 111.589 C 349.378 110.736,348.872 109.702,348.872 109.292 C 348.872 108.451,347.474 106.015,346.992 106.015 C 346.818 106.015,346.562 105.495,346.422 104.859 C 346.283 104.224,345.712 103.166,345.154 102.510 C 344.595 101.853,343.824 100.596,343.440 99.716 C 343.055 98.836,342.507 97.922,342.221 97.684 C 341.934 97.447,341.348 96.432,340.917 95.431 C 340.486 94.429,339.987 93.609,339.810 93.609 C 339.632 93.609,339.063 92.773,338.545 91.750 C 338.027 90.728,337.370 89.755,337.085 89.589 C 336.801 89.422,336.292 88.746,335.955 88.087 C 335.618 87.427,335.045 86.666,334.681 86.395 C 334.039 85.917,332.553 83.894,331.015 81.403 C 329.090 78.287,312.937 61.878,306.577 56.579 C 305.239 55.464,303.327 54.021,301.504 52.750 C 300.987 52.389,299.899 51.539,299.086 50.859 C 298.274 50.180,297.459 49.624,297.276 49.624 C 297.094 49.624,296.527 49.129,296.018 48.524 C 295.509 47.919,294.578 47.311,293.949 47.173 C 293.321 47.035,292.718 46.692,292.610 46.410 C 292.502 46.129,291.626 45.524,290.662 45.066 C 289.698 44.607,288.354 43.753,287.675 43.169 C 286.996 42.584,286.124 42.105,285.737 42.105 C 285.350 42.105,284.325 41.513,283.459 40.789 C 282.592 40.066,281.591 39.474,281.233 39.474 C 280.875 39.474,280.182 39.048,279.693 38.527 C 279.204 38.006,278.008 37.344,277.037 37.056 C 276.065 36.767,274.614 36.097,273.813 35.567 C 273.012 35.037,271.783 34.488,271.082 34.348 C 270.381 34.208,269.481 33.766,269.081 33.367 C 268.251 32.537,266.138 31.579,265.137 31.579 C 264.765 31.579,263.820 31.144,263.038 30.613 C 262.241 30.071,260.593 29.465,259.286 29.234 C 258.004 29.007,256.701 28.616,256.391 28.366 C 255.252 27.446,253.390 26.692,252.259 26.692 C 251.619 26.692,249.962 26.160,248.575 25.510 C 246.873 24.712,245.135 24.232,243.233 24.034 C 241.529 23.857,239.521 23.341,238.158 22.729 C 236.347 21.916,235.050 21.659,231.579 21.427 C 228.383 21.213,226.471 20.864,224.248 20.090 L 221.241 19.043 202.068 18.956 C 191.523 18.909,181.795 18.998,180.451 19.154 M213.722 20.298 C 216.203 20.478,219.248 20.882,220.489 21.197 C 221.729 21.513,224.859 21.956,227.444 22.183 C 230.324 22.436,233.234 22.945,234.962 23.498 C 236.513 23.994,238.935 24.582,240.345 24.805 C 241.755 25.028,243.785 25.545,244.857 25.953 C 245.928 26.362,248.020 26.948,249.506 27.256 C 250.991 27.564,252.770 28.148,253.459 28.555 C 254.148 28.961,255.778 29.567,257.082 29.901 C 258.386 30.235,260.028 30.848,260.732 31.263 C 261.435 31.678,262.879 32.247,263.940 32.527 C 265.001 32.807,266.486 33.450,267.239 33.956 C 267.993 34.462,269.073 34.983,269.640 35.114 C 270.207 35.244,271.467 35.856,272.439 36.473 C 273.412 37.089,274.489 37.594,274.833 37.594 C 275.177 37.594,276.105 38.033,276.895 38.569 C 277.685 39.105,279.210 39.932,280.283 40.406 C 281.356 40.881,282.353 41.461,282.497 41.695 C 282.642 41.928,283.552 42.549,284.519 43.075 C 286.092 43.929,288.396 45.295,292.080 47.556 C 292.754 47.970,293.862 48.731,294.542 49.248 C 295.223 49.765,296.749 50.865,297.934 51.692 C 299.119 52.519,300.812 53.788,301.696 54.511 C 302.580 55.235,304.267 56.588,305.444 57.519 C 306.622 58.449,307.782 59.387,308.022 59.602 C 314.037 64.989,318.062 68.895,321.992 73.159 C 323.440 74.729,325.132 76.560,325.752 77.228 C 326.372 77.896,327.556 79.338,328.383 80.431 C 329.211 81.525,330.395 83.058,331.015 83.838 C 333.866 87.426,337.071 91.859,337.719 93.111 C 338.021 93.696,338.625 94.497,339.059 94.890 C 339.494 95.283,339.850 95.810,339.850 96.060 C 339.850 96.310,340.526 97.511,341.352 98.727 C 342.179 99.944,342.856 101.071,342.856 101.231 C 342.857 101.391,343.449 102.383,344.173 103.435 C 344.897 104.487,345.489 105.543,345.489 105.782 C 345.489 106.021,345.909 106.835,346.423 107.591 C 346.937 108.347,347.711 109.867,348.144 110.968 C 348.577 112.069,349.143 113.224,349.402 113.534 C 349.661 113.844,350.162 114.884,350.517 115.845 C 350.871 116.806,351.468 117.946,351.844 118.379 C 352.219 118.813,352.817 120.141,353.171 121.332 C 353.525 122.522,354.126 124.088,354.507 124.812 C 354.888 125.536,355.471 127.182,355.803 128.470 C 356.136 129.759,356.747 131.388,357.162 132.091 C 357.577 132.795,358.162 134.532,358.462 135.952 C 358.762 137.372,359.344 139.410,359.756 140.482 C 360.167 141.553,360.683 143.583,360.903 144.993 C 361.122 146.403,361.713 148.825,362.216 150.376 C 362.719 151.927,363.320 155.056,363.552 157.331 C 363.784 159.605,364.300 163.158,364.699 165.226 C 366.458 174.355,366.463 196.463,364.708 205.451 C 364.305 207.519,363.781 211.156,363.545 213.534 C 363.308 215.912,362.707 219.126,362.208 220.677 C 361.710 222.227,361.123 224.641,360.906 226.041 C 360.688 227.441,360.162 229.468,359.737 230.546 C 359.312 231.623,358.793 233.439,358.583 234.580 C 358.373 235.721,357.782 237.540,357.270 238.624 C 356.759 239.707,356.019 241.715,355.627 243.086 C 355.235 244.457,354.679 245.939,354.390 246.380 C 354.102 246.820,353.592 248.127,353.256 249.283 C 352.920 250.439,352.328 251.793,351.940 252.290 C 351.552 252.788,351.003 253.872,350.719 254.699 C 350.435 255.526,349.826 256.795,349.364 257.519 C 348.903 258.242,348.286 259.515,347.994 260.346 C 347.702 261.178,347.029 262.497,346.499 263.278 C 345.969 264.060,345.342 265.282,345.107 265.996 C 344.871 266.709,344.550 267.293,344.393 267.293 C 344.236 267.293,343.645 268.209,343.078 269.328 C 342.512 270.448,341.729 271.652,341.339 272.005 C 340.949 272.358,340.430 273.261,340.186 274.012 C 339.942 274.762,339.301 275.901,338.762 276.542 C 338.223 277.184,337.488 278.199,337.129 278.798 C 336.769 279.397,335.714 280.902,334.784 282.143 C 333.853 283.383,332.735 284.948,332.298 285.620 C 331.862 286.292,331.389 286.842,331.247 286.842 C 331.105 286.842,330.678 287.370,330.297 288.014 C 327.415 292.893,308.161 312.112,302.896 315.367 C 302.130 315.840,301.504 316.351,301.504 316.503 C 301.504 316.655,300.827 317.159,300.000 317.624 C 299.173 318.089,298.496 318.602,298.496 318.765 C 298.496 318.927,297.693 319.586,296.711 320.228 C 295.728 320.870,293.571 322.332,291.917 323.476 C 290.263 324.620,288.711 325.558,288.469 325.560 C 288.226 325.562,287.549 325.964,286.965 326.453 C 286.380 326.942,285.056 327.798,284.023 328.354 C 282.989 328.910,280.959 330.054,279.511 330.896 C 278.064 331.737,276.048 332.753,275.031 333.153 C 274.014 333.553,272.764 334.208,272.253 334.610 C 271.743 335.011,270.496 335.586,269.483 335.887 C 268.470 336.188,267.202 336.779,266.666 337.201 C 266.130 337.622,264.994 338.145,264.143 338.362 C 263.291 338.580,261.817 339.169,260.867 339.671 C 259.918 340.173,258.252 340.775,257.166 341.008 C 256.081 341.240,254.260 341.921,253.122 342.520 C 251.983 343.119,250.558 343.609,249.955 343.609 C 249.352 343.609,247.635 344.039,246.140 344.564 C 244.644 345.090,241.803 345.836,239.825 346.222 C 237.847 346.609,235.563 347.206,234.750 347.550 C 233.936 347.894,230.882 348.418,227.963 348.714 C 225.043 349.009,221.068 349.591,219.128 350.007 C 212.063 351.521,186.255 351.382,180.451 349.799 C 179.314 349.489,175.930 348.999,172.932 348.710 C 169.535 348.382,166.702 347.894,165.414 347.414 C 164.276 346.990,161.908 346.390,160.150 346.079 C 158.393 345.769,156.034 345.159,154.908 344.723 C 153.782 344.288,151.927 343.760,150.786 343.549 C 149.645 343.338,147.774 342.690,146.630 342.109 C 145.485 341.528,143.872 340.937,143.045 340.796 C 142.218 340.654,140.780 340.146,139.850 339.666 C 138.919 339.186,137.227 338.508,136.090 338.160 C 134.953 337.811,133.769 337.301,133.459 337.026 C 133.148 336.751,131.964 336.160,130.827 335.714 C 129.690 335.268,128.497 334.667,128.177 334.379 C 127.856 334.090,126.841 333.590,125.921 333.266 C 125.001 332.942,123.656 332.287,122.932 331.810 C 122.209 331.334,120.855 330.578,119.925 330.132 C 117.999 329.209,116.294 328.198,114.036 326.642 C 113.175 326.049,112.330 325.562,112.157 325.560 C 111.984 325.558,110.489 324.625,108.835 323.486 C 107.180 322.347,105.150 320.959,104.323 320.401 C 103.496 319.843,102.294 318.957,101.652 318.434 C 101.010 317.910,99.585 316.805,98.486 315.977 C 89.979 309.574,73.495 293.119,70.337 287.876 C 69.870 287.101,69.343 286.466,69.166 286.466 C 68.990 286.466,68.465 285.789,68.000 284.962 C 67.535 284.135,67.042 283.459,66.904 283.459 C 66.766 283.459,66.135 282.655,65.500 281.673 C 64.865 280.691,63.506 278.687,62.480 277.219 C 61.453 275.752,60.503 274.202,60.367 273.775 C 60.232 273.348,59.627 272.377,59.023 271.617 C 58.419 270.857,57.809 269.869,57.668 269.422 C 57.528 268.975,56.929 268.021,56.338 267.302 C 55.747 266.582,55.259 265.737,55.254 265.422 C 55.248 265.107,54.656 263.927,53.938 262.799 C 53.219 261.672,52.632 260.469,52.632 260.126 C 52.632 259.784,52.182 258.845,51.632 258.041 C 51.082 257.237,50.406 255.834,50.129 254.924 C 49.852 254.013,49.215 252.730,48.714 252.073 C 48.212 251.415,47.684 250.215,47.540 249.405 C 47.396 248.595,46.809 247.086,46.235 246.053 C 45.661 245.019,45.074 243.412,44.930 242.481 C 44.787 241.551,44.251 240.143,43.740 239.353 C 43.229 238.562,42.572 236.701,42.281 235.217 C 41.990 233.733,41.327 231.335,40.808 229.887 C 40.290 228.440,39.862 226.708,39.858 226.038 C 39.853 225.369,39.347 223.252,38.733 221.335 C 37.984 218.998,37.433 216.113,37.061 212.589 C 36.755 209.697,36.236 206.231,35.907 204.887 C 34.422 198.824,34.409 171.384,35.888 166.165 C 36.211 165.028,36.734 161.560,37.051 158.459 C 37.447 154.587,37.920 152.008,38.561 150.231 C 39.075 148.808,39.670 146.355,39.884 144.780 C 40.098 143.206,40.589 141.241,40.977 140.414 C 41.364 139.586,41.921 137.726,42.215 136.278 C 42.508 134.831,43.182 132.791,43.712 131.746 C 44.242 130.701,44.791 129.178,44.932 128.363 C 45.073 127.547,45.665 125.941,46.247 124.793 C 46.830 123.646,47.424 122.080,47.567 121.315 C 47.711 120.549,48.298 119.331,48.872 118.609 C 49.446 117.887,50.032 116.675,50.175 115.916 C 50.317 115.157,50.854 113.985,51.367 113.312 C 51.880 112.639,52.476 111.441,52.691 110.650 C 52.906 109.858,53.479 108.684,53.964 108.040 C 54.450 107.396,54.950 106.460,55.076 105.958 C 55.202 105.457,55.887 104.311,56.600 103.411 C 57.312 102.510,57.895 101.569,57.895 101.319 C 57.895 101.069,58.395 100.173,59.007 99.329 C 59.619 98.484,60.384 97.232,60.706 96.547 C 61.418 95.032,62.511 93.401,64.380 91.063 C 65.155 90.093,65.789 89.148,65.789 88.962 C 65.789 88.777,66.339 87.977,67.011 87.185 C 67.683 86.394,68.825 84.975,69.549 84.033 C 75.087 76.826,84.004 67.334,91.311 60.872 C 93.045 59.338,94.741 57.829,95.080 57.519 C 95.420 57.209,96.369 56.495,97.191 55.932 C 98.012 55.370,99.615 54.147,100.752 53.216 C 101.889 52.285,103.442 51.183,104.204 50.767 C 104.965 50.351,105.687 49.850,105.809 49.653 C 106.093 49.195,110.287 46.462,113.910 44.377 C 115.461 43.484,117.152 42.437,117.669 42.051 C 118.186 41.664,119.534 40.919,120.664 40.395 C 121.794 39.872,122.987 39.201,123.314 38.904 C 123.642 38.608,124.631 38.111,125.513 37.800 C 126.396 37.489,127.605 36.886,128.202 36.462 C 128.798 36.037,130.014 35.468,130.903 35.198 C 131.791 34.927,133.147 34.276,133.916 33.751 C 134.684 33.225,135.953 32.678,136.735 32.535 C 137.518 32.392,138.862 31.866,139.724 31.366 C 140.585 30.866,142.192 30.266,143.295 30.032 C 144.398 29.798,145.994 29.204,146.841 28.711 C 147.689 28.218,149.380 27.638,150.601 27.421 C 151.821 27.204,153.919 26.619,155.263 26.120 C 156.607 25.622,158.891 25.029,160.338 24.803 C 161.786 24.577,163.985 24.053,165.226 23.638 C 166.466 23.224,169.680 22.639,172.368 22.338 C 175.056 22.038,178.947 21.459,181.015 21.053 C 188.087 19.664,200.864 19.369,213.722 20.298 M191.729 33.295 C 188.318 33.566,184.596 33.966,183.459 34.183 C 182.321 34.400,179.300 34.758,176.745 34.977 C 173.927 35.219,170.968 35.731,169.226 36.278 C 167.646 36.773,165.423 37.296,164.286 37.438 C 163.148 37.581,161.118 38.087,159.774 38.562 C 158.430 39.038,156.163 39.695,154.737 40.022 C 153.310 40.349,151.534 40.943,150.789 41.342 C 150.045 41.741,148.180 42.409,146.645 42.827 C 145.110 43.246,143.747 43.761,143.616 43.973 C 143.485 44.185,142.542 44.607,141.520 44.911 C 140.498 45.215,137.547 46.546,134.962 47.868 C 132.378 49.190,129.852 50.401,129.349 50.559 C 128.847 50.717,127.764 51.332,126.943 51.927 C 126.123 52.521,125.236 53.008,124.972 53.008 C 124.709 53.008,124.016 53.408,123.431 53.897 C 122.847 54.386,121.492 55.229,120.421 55.769 C 119.350 56.310,118.366 56.928,118.234 57.141 C 118.102 57.355,117.455 57.756,116.798 58.031 C 116.140 58.307,115.179 58.895,114.662 59.338 C 114.145 59.782,112.538 60.981,111.090 62.004 C 109.643 63.027,108.203 64.088,107.890 64.362 C 107.577 64.636,106.731 65.277,106.010 65.788 C 104.554 66.818,103.086 68.041,101.267 69.737 C 100.602 70.357,98.818 71.960,97.303 73.299 C 94.139 76.095,91.447 78.791,87.970 82.647 C 86.626 84.138,84.625 86.325,83.522 87.509 C 82.420 88.693,81.238 90.085,80.894 90.602 C 80.274 91.536,78.779 93.631,76.793 96.349 C 76.220 97.133,75.117 98.539,74.342 99.474 C 73.567 100.409,72.932 101.347,72.932 101.559 C 72.932 101.771,72.447 102.649,71.854 103.510 C 70.591 105.345,68.899 108.167,67.905 110.098 C 67.517 110.850,66.798 111.944,66.307 112.529 C 65.816 113.113,65.414 113.801,65.414 114.057 C 65.414 114.313,64.737 115.854,63.910 117.481 C 63.083 119.108,62.406 120.649,62.406 120.905 C 62.406 121.161,62.001 121.852,61.507 122.439 C 61.012 123.027,60.340 124.408,60.014 125.508 C 59.687 126.608,59.081 128.056,58.667 128.726 C 58.254 129.395,57.724 130.861,57.491 131.983 C 57.258 133.105,56.647 134.784,56.134 135.714 C 55.620 136.645,55.047 138.346,54.859 139.494 C 54.672 140.642,54.091 142.634,53.568 143.920 C 53.046 145.206,52.509 147.306,52.375 148.586 C 52.241 149.866,51.807 151.766,51.409 152.807 C 50.305 155.700,50.059 156.992,49.795 161.275 C 49.661 163.448,49.320 166.156,49.039 167.293 C 47.190 174.752,47.196 191.300,49.052 203.383 C 49.354 205.348,49.777 208.718,49.994 210.873 C 50.215 213.068,50.776 215.878,51.271 217.264 C 51.756 218.624,52.272 220.818,52.417 222.138 C 52.562 223.459,53.177 225.790,53.784 227.317 C 54.391 228.845,54.887 230.574,54.887 231.160 C 54.887 231.746,55.391 233.221,56.006 234.440 C 56.622 235.658,57.317 237.574,57.551 238.698 C 57.786 239.823,58.370 241.345,58.851 242.082 C 59.331 242.818,59.840 244.061,59.981 244.844 C 60.123 245.626,60.653 246.877,61.160 247.624 C 61.667 248.370,62.415 249.872,62.822 250.960 C 63.229 252.049,63.800 253.137,64.091 253.378 C 64.382 253.620,64.890 254.630,65.220 255.624 C 65.551 256.617,66.136 257.716,66.523 258.066 C 66.909 258.415,67.442 259.239,67.708 259.896 C 67.974 260.553,68.708 261.872,69.340 262.828 C 70.481 264.554,71.130 265.601,72.932 268.620 C 74.061 270.511,76.185 273.453,77.350 274.740 C 77.815 275.253,78.195 275.818,78.195 275.994 C 78.195 276.170,78.761 276.949,79.453 277.724 C 80.144 278.500,80.863 279.418,81.050 279.764 C 82.189 281.867,92.203 292.434,98.496 298.173 C 104.285 303.452,105.316 304.284,111.221 308.437 C 112.120 309.069,113.474 310.117,114.229 310.765 C 114.984 311.413,116.200 312.194,116.932 312.499 C 117.664 312.804,118.522 313.313,118.839 313.629 C 119.155 313.946,120.248 314.656,121.267 315.208 C 122.286 315.759,124.220 316.870,125.564 317.676 C 126.908 318.482,129.212 319.721,130.684 320.429 C 132.156 321.137,133.477 321.906,133.620 322.137 C 133.762 322.367,134.193 322.556,134.577 322.556 C 134.960 322.556,136.552 323.233,138.113 324.060 C 139.674 324.887,141.185 325.564,141.472 325.564 C 141.759 325.564,142.810 325.998,143.808 326.529 C 144.806 327.059,146.649 327.751,147.905 328.066 C 149.161 328.381,150.749 328.963,151.435 329.359 C 152.121 329.756,154.189 330.409,156.030 330.810 C 157.871 331.212,159.733 331.732,160.169 331.965 C 160.604 332.198,162.935 332.792,165.349 333.286 C 167.762 333.780,170.794 334.427,172.086 334.726 C 174.373 335.253,180.456 335.968,190.414 336.878 C 200.157 337.769,222.082 336.449,229.135 334.546 C 229.962 334.323,232.523 333.744,234.825 333.259 C 237.128 332.774,239.631 332.118,240.389 331.801 C 241.147 331.485,243.064 330.958,244.650 330.630 C 246.236 330.303,248.046 329.720,248.673 329.334 C 249.299 328.949,250.912 328.354,252.256 328.012 C 253.600 327.669,255.228 327.081,255.874 326.705 C 256.521 326.328,257.959 325.756,259.070 325.432 C 260.181 325.109,261.673 324.414,262.385 323.888 C 263.097 323.363,263.847 322.932,264.051 322.932 C 264.254 322.932,266.294 321.980,268.583 320.816 C 275.025 317.539,276.822 316.562,277.047 316.213 C 277.162 316.036,278.017 315.506,278.947 315.037 C 279.878 314.567,281.117 313.783,281.702 313.294 C 282.286 312.806,282.967 312.406,283.215 312.406 C 283.630 312.406,291.770 306.484,295.969 303.127 C 301.257 298.899,309.911 290.378,315.265 284.128 C 320.606 277.893,321.292 277.026,321.841 275.821 C 322.094 275.266,322.420 274.812,322.566 274.812 C 322.711 274.812,323.313 274.093,323.904 273.214 C 324.495 272.336,325.448 271.061,326.023 270.382 C 326.598 269.702,327.068 268.912,327.068 268.625 C 327.068 268.338,327.467 267.625,327.956 267.040 C 328.445 266.456,329.229 265.216,329.699 264.286 C 330.169 263.355,330.954 262.116,331.442 261.531 C 331.931 260.947,332.336 260.270,332.341 260.028 C 332.347 259.785,332.855 258.922,333.469 258.110 C 334.084 257.298,334.586 256.448,334.586 256.222 C 334.586 255.997,335.855 253.287,337.406 250.200 C 338.957 247.114,340.226 244.309,340.226 243.967 C 340.226 243.625,340.670 242.516,341.214 241.503 C 341.757 240.490,342.439 238.658,342.729 237.432 C 343.019 236.205,343.595 234.653,344.010 233.982 C 344.425 233.311,344.984 231.608,345.253 230.197 C 345.522 228.786,346.183 226.278,346.723 224.624 C 348.645 218.733,350.051 211.202,350.899 202.256 C 352.502 185.342,352.510 184.104,351.092 170.489 C 350.899 168.628,350.564 165.244,350.348 162.970 C 350.132 160.695,349.556 157.312,349.068 155.451 C 348.580 153.590,347.996 150.941,347.769 149.564 C 347.543 148.186,347.106 146.456,346.798 145.719 C 346.490 144.982,345.909 142.968,345.507 141.245 C 345.105 139.521,344.365 137.275,343.862 136.254 C 343.359 135.234,342.829 133.722,342.686 132.895 C 342.542 132.068,342.035 130.688,341.559 129.828 C 341.083 128.968,340.484 127.393,340.229 126.328 C 339.973 125.263,339.387 123.937,338.926 123.380 C 338.465 122.824,337.808 121.537,337.466 120.520 C 337.125 119.503,336.614 118.404,336.331 118.076 C 336.048 117.749,335.512 116.635,335.139 115.602 C 334.766 114.568,334.159 113.381,333.790 112.965 C 333.421 112.548,332.870 111.612,332.565 110.883 C 332.261 110.154,331.449 108.700,330.761 107.650 C 330.074 106.601,329.173 105.169,328.760 104.469 C 326.685 100.953,325.994 99.909,324.436 97.935 C 323.506 96.756,322.406 95.246,321.992 94.579 C 318.221 88.503,306.580 76.315,296.053 67.419 C 291.568 63.630,283.094 57.691,279.301 55.681 C 278.151 55.071,276.989 54.305,276.717 53.978 C 276.446 53.651,276.010 53.383,275.748 53.383 C 275.486 53.383,274.446 52.815,273.436 52.120 C 272.425 51.425,271.200 50.730,270.713 50.575 C 270.226 50.421,267.861 49.283,265.459 48.046 C 263.056 46.809,260.244 45.543,259.211 45.231 C 258.177 44.920,256.823 44.358,256.203 43.982 C 255.583 43.606,254.100 43.045,252.909 42.736 C 251.718 42.427,250.156 41.828,249.438 41.404 C 248.721 40.981,246.904 40.377,245.401 40.062 C 243.899 39.748,241.739 39.130,240.602 38.691 C 239.464 38.251,237.354 37.726,235.912 37.524 C 234.471 37.321,232.054 36.752,230.542 36.258 C 228.732 35.668,226.095 35.223,222.825 34.957 C 220.093 34.735,217.603 34.463,217.293 34.353 C 216.537 34.084,200.915 32.703,199.248 32.758 C 198.524 32.782,195.141 33.023,191.729 33.295 M251.316 75.899 C 254.989 77.594,256.170 83.671,253.683 88.080 C 253.124 89.070,252.400 90.924,252.073 92.199 C 251.747 93.474,251.239 94.783,250.945 95.108 C 250.650 95.433,250.158 96.665,249.850 97.846 C 249.543 99.027,248.877 100.817,248.372 101.824 C 247.866 102.830,247.176 104.605,246.838 105.767 C 246.500 106.929,245.910 108.433,245.527 109.109 C 245.143 109.785,244.643 111.118,244.415 112.071 C 244.187 113.023,243.490 114.774,242.865 115.962 C 242.240 117.150,241.729 118.485,241.729 118.929 C 241.728 119.373,241.245 120.667,240.655 121.805 C 240.065 122.942,239.379 124.704,239.130 125.722 C 238.882 126.739,238.287 128.261,237.807 129.105 C 237.328 129.949,236.733 131.485,236.484 132.519 C 236.236 133.553,235.721 134.906,235.338 135.526 C 234.956 136.147,234.440 137.500,234.192 138.534 C 233.944 139.568,233.351 141.132,232.875 142.010 C 232.398 142.889,231.728 144.581,231.385 145.770 C 231.041 146.959,230.450 148.440,230.070 149.060 C 229.691 149.680,229.173 151.034,228.920 152.068 C 228.667 153.102,227.992 154.878,227.420 156.015 C 226.849 157.152,226.263 158.675,226.120 159.398 C 225.976 160.122,225.555 161.222,225.184 161.842 C 224.813 162.462,224.163 164.070,223.739 165.414 C 223.315 166.758,222.543 168.703,222.022 169.737 C 221.502 170.771,221.071 171.955,221.064 172.370 C 221.058 172.784,220.483 174.307,219.787 175.753 C 219.091 177.200,218.403 179.040,218.257 179.842 C 218.112 180.645,217.610 181.913,217.141 182.662 C 216.673 183.410,216.082 184.868,215.827 185.902 C 215.572 186.936,214.952 188.522,214.448 189.427 C 213.160 191.745,213.227 193.851,214.662 196.113 C 215.282 197.091,215.790 198.154,215.791 198.476 C 215.792 198.797,216.294 199.816,216.907 200.740 C 217.520 201.664,218.131 202.933,218.266 203.559 C 218.401 204.186,218.977 205.395,219.546 206.246 C 220.116 207.097,220.867 208.648,221.214 209.694 C 221.561 210.740,222.082 211.792,222.370 212.031 C 222.658 212.270,223.097 213.087,223.345 213.846 C 223.593 214.605,224.447 216.494,225.243 218.045 C 226.039 219.596,226.690 221.055,226.691 221.289 C 226.691 221.522,226.935 221.915,227.233 222.162 C 227.531 222.409,228.218 223.771,228.759 225.188 C 229.301 226.605,229.978 227.959,230.265 228.197 C 230.551 228.435,231.071 229.504,231.419 230.574 C 231.767 231.644,232.293 232.796,232.587 233.135 C 232.882 233.473,233.462 234.644,233.877 235.735 C 235.416 239.785,236.711 240.734,240.770 240.788 C 242.482 240.811,244.532 241.089,245.489 241.428 C 246.419 241.759,248.307 242.149,249.685 242.295 C 251.245 242.461,252.649 242.865,253.409 243.367 C 255.455 244.718,257.346 245.991,259.263 247.309 C 260.268 247.999,261.895 249.691,262.879 251.068 C 263.863 252.445,265.089 254.164,265.602 254.887 C 267.091 256.986,267.672 258.507,268.015 261.202 C 268.191 262.588,268.632 264.622,268.994 265.723 C 269.750 268.017,269.589 271.639,268.610 274.374 C 266.649 279.855,267.216 280.910,272.368 281.359 C 283.287 282.311,287.063 291.142,278.321 295.281 C 275.951 296.404,275.640 296.407,269.173 295.376 C 264.292 294.598,262.140 294.029,260.153 292.989 C 257.903 291.811,255.772 291.831,253.981 293.046 C 253.219 293.564,251.123 294.334,249.324 294.758 C 247.525 295.182,245.441 295.689,244.693 295.884 C 242.765 296.390,240.993 296.327,239.071 295.685 C 238.155 295.379,235.907 294.872,234.075 294.558 C 231.212 294.068,230.394 293.747,228.248 292.272 C 222.270 288.163,222.448 288.324,219.691 284.516 C 219.045 283.624,218.305 282.472,218.046 281.955 C 217.787 281.438,217.249 280.656,216.850 280.217 C 216.383 279.704,215.941 278.288,215.612 276.256 C 215.330 274.516,214.824 272.029,214.487 270.729 C 213.903 268.473,213.909 268.228,214.636 265.426 C 215.055 263.811,215.508 261.497,215.644 260.286 C 215.896 258.039,215.941 257.955,220.563 251.195 C 221.225 250.228,221.775 249.167,221.785 248.837 C 221.820 247.768,220.309 243.854,219.551 243.047 C 219.144 242.615,218.612 241.676,218.368 240.961 C 218.124 240.246,217.609 239.252,217.222 238.751 C 216.836 238.250,216.178 237.068,215.760 236.124 C 215.343 235.180,214.692 234.067,214.314 233.651 C 213.936 233.235,213.422 232.256,213.172 231.475 C 212.922 230.695,212.335 229.595,211.868 229.032 C 211.401 228.468,210.720 227.215,210.355 226.246 C 209.990 225.277,209.475 224.401,209.210 224.300 C 208.946 224.199,208.425 223.300,208.052 222.302 C 207.680 221.305,206.900 219.900,206.319 219.181 C 205.738 218.462,205.263 217.587,205.263 217.236 C 205.263 215.671,202.132 213.158,200.182 213.158 C 198.200 213.158,195.761 215.117,195.074 217.261 C 194.836 218.003,194.400 218.886,194.105 219.225 C 193.541 219.873,191.668 223.286,190.078 226.563 C 189.561 227.630,188.956 228.615,188.733 228.752 C 188.510 228.890,187.819 230.047,187.196 231.325 C 186.573 232.602,185.405 234.831,184.601 236.278 C 183.796 237.726,182.720 239.762,182.210 240.805 C 181.700 241.847,181.020 242.917,180.700 243.183 C 178.465 245.037,178.362 250.177,180.519 252.130 C 180.913 252.486,181.678 253.591,182.219 254.584 C 182.760 255.578,183.331 256.391,183.489 256.391 C 183.906 256.391,184.522 258.518,184.796 260.902 C 184.927 262.039,185.393 264.121,185.831 265.528 L 186.627 268.086 185.814 271.355 C 185.367 273.153,184.891 275.470,184.758 276.504 C 184.418 279.137,183.877 280.193,180.563 284.700 C 178.392 287.652,177.286 288.787,175.881 289.503 C 175.087 289.909,174.436 290.410,174.436 290.617 C 174.436 290.824,173.971 291.194,173.402 291.439 C 172.834 291.684,171.764 292.348,171.025 292.914 C 169.992 293.705,168.860 294.076,166.138 294.516 C 164.189 294.831,161.811 295.357,160.854 295.684 C 159.224 296.243,158.928 296.233,156.155 295.528 C 154.527 295.114,152.011 294.588,150.564 294.359 C 148.583 294.046,147.425 293.600,145.880 292.554 C 141.394 289.519,138.875 287.485,138.158 286.321 C 137.744 285.650,137.018 284.604,136.544 283.998 C 133.940 280.666,133.149 279.045,132.708 276.136 C 132.464 274.524,132.027 272.424,131.737 271.471 C 131.069 269.267,131.072 267.565,131.748 265.336 C 132.043 264.363,132.483 262.209,132.726 260.549 C 133.034 258.441,133.442 257.161,134.080 256.303 C 135.351 254.592,136.627 252.752,138.004 250.643 C 138.672 249.621,140.082 248.239,141.265 247.447 C 145.235 244.791,146.152 244.170,147.171 243.447 C 147.760 243.030,149.496 242.524,151.259 242.256 C 152.944 241.999,155.338 241.521,156.579 241.193 C 158.039 240.808,159.515 240.678,160.765 240.826 C 163.269 241.121,165.365 239.452,166.386 236.349 C 166.739 235.276,167.411 233.937,167.881 233.374 C 168.350 232.810,168.849 231.795,168.991 231.118 C 169.133 230.441,169.720 229.126,170.296 228.195 C 170.872 227.265,171.557 225.827,171.819 225.000 C 172.080 224.173,172.670 222.989,173.128 222.368 C 173.586 221.748,174.080 220.733,174.225 220.113 C 174.371 219.492,174.973 218.224,175.564 217.293 C 176.155 216.363,176.757 215.094,176.902 214.474 C 177.048 213.853,177.584 212.786,178.094 212.101 C 178.603 211.416,179.189 210.232,179.394 209.470 C 179.599 208.707,180.239 207.321,180.815 206.391 C 181.392 205.461,181.964 204.264,182.088 203.732 C 182.211 203.200,182.718 202.166,183.215 201.433 C 183.712 200.701,184.327 199.445,184.581 198.641 C 184.835 197.838,185.484 196.527,186.023 195.728 C 187.365 193.740,187.367 191.065,186.029 188.722 C 185.498 187.791,184.839 186.184,184.564 185.150 C 184.290 184.117,183.591 182.365,183.010 181.259 C 182.430 180.152,181.955 178.858,181.955 178.383 C 181.955 177.909,181.454 176.568,180.842 175.405 C 180.231 174.242,179.618 172.660,179.482 171.889 C 179.345 171.119,178.760 169.643,178.182 168.609 C 177.603 167.575,177.013 166.053,176.871 165.226 C 176.729 164.398,176.206 163.089,175.709 162.315 C 175.212 161.541,174.615 160.022,174.383 158.940 C 174.151 157.857,173.563 156.340,173.076 155.569 C 172.589 154.797,172.012 153.356,171.793 152.365 C 171.574 151.374,171.002 149.803,170.522 148.872 C 170.042 147.942,169.369 146.211,169.027 145.026 C 168.684 143.841,168.083 142.319,167.691 141.643 C 167.299 140.967,166.787 139.652,166.554 138.722 C 166.320 137.791,165.737 136.269,165.258 135.338 C 164.778 134.408,164.194 132.853,163.960 131.882 C 163.726 130.912,163.209 129.559,162.811 128.875 C 162.414 128.191,161.819 126.701,161.491 125.564 C 161.162 124.427,160.388 122.500,159.770 121.282 C 159.152 120.064,158.646 118.710,158.646 118.274 C 158.645 117.838,158.153 116.548,157.551 115.406 C 156.950 114.265,156.338 112.658,156.191 111.835 C 156.045 111.012,155.458 109.492,154.887 108.459 C 154.316 107.425,153.730 105.907,153.584 105.087 C 153.438 104.266,152.927 102.912,152.450 102.079 C 151.972 101.246,151.298 99.568,150.953 98.350 C 150.607 97.132,150.075 95.755,149.770 95.289 C 149.465 94.823,148.814 93.142,148.324 91.553 C 147.833 89.964,147.161 88.364,146.830 87.998 C 144.576 85.507,145.427 78.383,148.194 76.589 C 151.556 74.409,158.647 76.852,158.647 80.191 C 158.647 80.460,159.173 81.510,159.816 82.524 C 160.459 83.538,161.201 85.085,161.465 85.961 C 161.729 86.838,162.292 87.996,162.716 88.536 C 163.140 89.075,163.761 90.339,164.095 91.346 C 164.429 92.352,164.938 93.370,165.226 93.609 C 165.513 93.848,166.033 94.900,166.381 95.948 C 166.729 96.996,167.415 98.444,167.905 99.166 C 168.395 99.888,168.966 101.110,169.174 101.882 C 169.381 102.654,169.898 103.726,170.321 104.264 C 170.745 104.803,171.364 106.051,171.697 107.039 C 172.030 108.027,172.670 109.342,173.119 109.962 C 173.567 110.583,174.145 111.830,174.402 112.735 C 174.660 113.640,175.202 114.736,175.608 115.171 C 176.013 115.607,176.600 116.840,176.912 117.912 C 177.224 118.985,177.718 120.061,178.011 120.304 C 178.304 120.546,178.896 121.687,179.326 122.839 C 179.757 123.990,180.455 125.418,180.878 126.011 C 181.300 126.604,181.804 127.663,181.998 128.364 C 182.191 129.066,182.938 130.616,183.656 131.809 C 184.375 133.002,184.962 134.262,184.962 134.608 C 184.962 134.954,185.309 135.678,185.734 136.217 C 186.158 136.757,186.777 137.996,187.109 138.971 C 187.441 139.946,188.098 141.311,188.568 142.004 C 189.039 142.697,189.698 144.090,190.033 145.099 C 190.368 146.109,190.878 147.130,191.165 147.368 C 191.453 147.607,191.972 148.677,192.320 149.747 C 192.667 150.817,193.339 152.211,193.811 152.845 C 194.284 153.480,194.851 154.669,195.072 155.487 C 195.292 156.305,195.890 157.541,196.401 158.233 C 196.911 158.925,197.444 160.020,197.583 160.667 C 198.450 164.673,201.710 164.908,202.685 161.034 C 202.921 160.097,203.488 158.880,203.945 158.330 C 204.403 157.781,205.065 156.456,205.417 155.386 C 205.768 154.316,206.292 153.246,206.580 153.006 C 206.869 152.767,207.300 151.951,207.540 151.192 C 207.780 150.433,208.483 148.895,209.102 147.775 C 209.722 146.654,210.461 145.078,210.746 144.272 C 211.030 143.467,211.581 142.353,211.970 141.798 C 212.359 141.244,212.894 140.113,213.158 139.286 C 213.422 138.459,213.957 137.328,214.346 136.773 C 214.735 136.218,215.310 135.034,215.624 134.141 C 215.938 133.249,216.585 131.927,217.061 131.203 C 217.538 130.479,218.147 129.211,218.415 128.383 C 218.682 127.556,219.208 126.442,219.584 125.906 C 219.959 125.370,220.619 123.990,221.050 122.839 C 221.480 121.687,222.079 120.541,222.380 120.291 C 222.681 120.042,223.113 119.138,223.340 118.283 C 223.567 117.429,224.234 115.997,224.823 115.103 C 225.411 114.208,226.009 112.946,226.152 112.297 C 226.294 111.649,226.806 110.520,227.288 109.789 C 227.771 109.057,228.431 107.706,228.755 106.786 C 229.078 105.865,229.591 104.839,229.894 104.504 C 230.197 104.169,230.775 102.935,231.179 101.762 C 231.582 100.589,232.332 99.078,232.844 98.405 C 233.357 97.731,233.894 96.673,234.039 96.053 C 234.184 95.432,234.768 94.164,235.338 93.233 C 235.908 92.303,236.491 91.044,236.633 90.436 C 236.776 89.829,237.231 88.855,237.646 88.272 C 238.061 87.690,238.827 86.157,239.349 84.866 C 239.870 83.575,240.494 82.265,240.734 81.955 C 240.975 81.645,241.484 80.774,241.865 80.020 C 243.868 76.058,247.874 74.310,251.316 75.899 M57.519 141.353 C 57.519 141.974,57.350 142.481,57.143 142.481 C 56.725 142.481,56.624 140.870,57.018 140.476 C 57.442 140.051,57.519 140.185,57.519 141.353 M153.947 255.509 C 153.534 255.617,152.571 256.198,151.808 256.800 C 151.045 257.402,150.243 257.895,150.026 257.895 C 149.368 257.895,146.249 262.481,145.813 264.092 C 145.215 266.296,145.581 272.841,146.380 274.248 C 151.189 282.711,161.711 284.451,168.524 277.911 C 173.841 272.806,172.990 261.712,166.974 257.692 C 166.219 257.187,165.188 256.477,164.684 256.113 C 163.764 255.450,155.880 255.006,153.947 255.509 M237.334 255.603 C 236.674 255.772,235.618 256.346,234.987 256.877 C 234.355 257.408,233.507 257.948,233.103 258.076 C 232.089 258.398,229.396 262.535,228.889 264.551 C 227.638 269.520,230.059 277.791,233.045 278.750 C 233.376 278.856,234.125 279.356,234.710 279.860 C 237.493 282.260,246.124 282.153,248.890 279.683 C 249.568 279.078,250.391 278.498,250.719 278.394 C 251.047 278.290,251.776 277.483,252.339 276.602 C 252.902 275.721,253.663 274.587,254.031 274.082 C 254.588 273.316,254.699 272.370,254.699 268.396 L 254.699 263.628 252.872 260.978 C 251.774 259.386,250.610 258.147,249.958 257.877 C 249.361 257.630,248.872 257.283,248.872 257.107 C 248.872 255.800,240.709 254.736,237.334 255.603 " stroke="none" fill="#f2d7bd" fill-rule="evenodd"></path></g></svg>